  0
SECTION
  2
HEADER
  9
$ACADVER
  1
AC1027
  9
$ACADMAINTVER
 70
   125
  9
$DWGCODEPAGE
  3
ANSI_1252
  9
$REQUIREDVERSIONS
160
                 0
  9
$INSBASE
 10
0.0
 20
0.0
 30
0.0
  9
$EXTMIN
 10
1.000000000000000E+20
 20
1.000000000000000E+20
 30
1.000000000000000E+20
  9
$EXTMAX
 10
-1.000000000000000E+20
 20
-1.000000000000000E+20
 30
-1.000000000000000E+20
  9
$LIMMIN
 10
0.0
 20
0.0
  9
$LIMMAX
 10
12.0
 20
9.0
  9
$ORTHOMODE
 70
     0
  9
$REGENMODE
 70
     1
  9
$FILLMODE
 70
     1
  9
$QTEXTMODE
 70
     0
  9
$MIRRTEXT
 70
     0
  9
$LTSCALE
 40
1.0
  9
$ATTMODE
 70
     1
  9
$TEXTSIZE
 40
0.2
  9
$TRACEWID
 40
0.05
  9
$TEXTSTYLE
  7
Standard
  9
$CLAYER
  8
0
  9
$CELTYPE
  6
ByLayer
  9
$CECOLOR
 62
   256
  9
$CELTSCALE
 40
1.0
  9
$DISPSILH
 70
     0
  9
$DIMSCALE
 40
1.0
  9
$DIMASZ
 40
0.18
  9
$DIMEXO
 40
0.0625
  9
$DIMDLI
 40
0.38
  9
$DIMRND
 40
0.0
  9
$DIMDLE
 40
0.0
  9
$DIMEXE
 40
0.18
  9
$DIMTP
 40
0.0
  9
$DIMTM
 40
0.0
  9
$DIMTXT
 40
0.18
  9
$DIMCEN
 40
0.09
  9
$DIMTSZ
 40
0.0
  9
$DIMTOL
 70
     0
  9
$DIMLIM
 70
     0
  9
$DIMTIH
 70
     1
  9
$DIMTOH
 70
     1
  9
$DIMSE1
 70
     0
  9
$DIMSE2
 70
     0
  9
$DIMTAD
 70
     0
  9
$DIMZIN
 70
     0
  9
$DIMBLK
  1

  9
$DIMASO
 70
     1
  9
$DIMSHO
 70
     1
  9
$DIMPOST
  1

  9
$DIMAPOST
  1

  9
$DIMALT
 70
     0
  9
$DIMALTD
 70
     2
  9
$DIMALTF
 40
25.4
  9
$DIMLFAC
 40
1.0
  9
$DIMTOFL
 70
     0
  9
$DIMTVP
 40
0.0
  9
$DIMTIX
 70
     0
  9
$DIMSOXD
 70
     0
  9
$DIMSAH
 70
     0
  9
$DIMBLK1
  1

  9
$DIMBLK2
  1

  9
$DIMSTYLE
  2
Standard
  9
$DIMCLRD
 70
     0
  9
$DIMCLRE
 70
     0
  9
$DIMCLRT
 70
     0
  9
$DIMTFAC
 40
1.0
  9
$DIMGAP
 40
0.09
  9
$DIMJUST
 70
     0
  9
$DIMSD1
 70
     0
  9
$DIMSD2
 70
     0
  9
$DIMTOLJ
 70
     1
  9
$DIMTZIN
 70
     0
  9
$DIMALTZ
 70
     0
  9
$DIMALTTZ
 70
     0
  9
$DIMUPT
 70
     0
  9
$DIMDEC
 70
     4
  9
$DIMTDEC
 70
     4
  9
$DIMALTU
 70
     2
  9
$DIMALTTD
 70
     2
  9
$DIMTXSTY
  7
Standard
  9
$DIMAUNIT
 70
     0
  9
$DIMADEC
 70
     0
  9
$DIMALTRND
 40
0.0
  9
$DIMAZIN
 70
     0
  9
$DIMDSEP
 70
    46
  9
$DIMATFIT
 70
     3
  9
$DIMFRAC
 70
     0
  9
$DIMLDRBLK
  1

  9
$DIMLUNIT
 70
     2
  9
$DIMLWD
 70
    -2
  9
$DIMLWE
 70
    -2
  9
$DIMTMOVE
 70
     0
  9
$DIMFXL
 40
1.0
  9
$DIMFXLON
 70
     0
  9
$DIMJOGANG
 40
0.7853981633974483
  9
$DIMTFILL
 70
     0
  9
$DIMTFILLCLR
 70
     0
  9
$DIMARCSYM
 70
     0
  9
$DIMLTYPE
  6

  9
$DIMLTEX1
  6

  9
$DIMLTEX2
  6

  9
$DIMTXTDIRECTION
 70
     0
  9
$LUNITS
 70
     2
  9
$LUPREC
 70
     4
  9
$SKETCHINC
 40
0.1
  9
$FILLETRAD
 40
0.0
  9
$AUNITS
 70
     0
  9
$AUPREC
 70
     0
  9
$MENU
  1
.
  9
$ELEVATION
 40
0.0
  9
$PELEVATION
 40
0.0
  9
$THICKNESS
 40
0.0
  9
$LIMCHECK
 70
     0
  9
$CHAMFERA
 40
0.0
  9
$CHAMFERB
 40
0.0
  9
$CHAMFERC
 40
0.0
  9
$CHAMFERD
 40
0.0
  9
$SKPOLY
 70
     0
  9
$TDCREATE
 40
2460979.220636574
  9
$TDUCREATE
 40
2460979.220636574
  9
$TDUPDATE
 40
2460979.220636574
  9
$TDUUPDATE
 40
2460979.220636574
  9
$TDINDWG
 40
0.0000000000
  9
$TDUSRTIMER
 40
0.0000000000
  9
$USRTIMER
 70
     1
  9
$ANGBASE
 50
0.0
  9
$ANGDIR
 70
     0
  9
$PDMODE
 70
     0
  9
$PDSIZE
 40
0.0
  9
$PLINEWID
 40
0.0
  9
$SPLFRAME
 70
     0
  9
$SPLINETYPE
 70
     6
  9
$SPLINESEGS
 70
     8
  9
$HANDSEED
  5
188
  9
$SURFTAB1
 70
     6
  9
$SURFTAB2
 70
     6
  9
$SURFTYPE
 70
     6
  9
$SURFU
 70
     6
  9
$SURFV
 70
     6
  9
$UCSBASE
  2

  9
$UCSNAME
  2

  9
$UCSORG
 10
0.0
 20
0.0
 30
0.0
  9
$UCSXDIR
 10
1.0
 20
0.0
 30
0.0
  9
$UCSYDIR
 10
0.0
 20
1.0
 30
0.0
  9
$UCSORTHOREF
  2

  9
$UCSORTHOVIEW
 70
     0
  9
$UCSORGTOP
 10
0.0
 20
0.0
 30
0.0
  9
$UCSORGBOTTOM
 10
0.0
 20
0.0
 30
0.0
  9
$UCSORGLEFT
 10
0.0
 20
0.0
 30
0.0
  9
$UCSORGRIGHT
 10
0.0
 20
0.0
 30
0.0
  9
$UCSORGFRONT
 10
0.0
 20
0.0
 30
0.0
  9
$UCSORGBACK
 10
0.0
 20
0.0
 30
0.0
  9
$PUCSBASE
  2

  9
$PUCSNAME
  2

  9
$PUCSORG
 10
0.0
 20
0.0
 30
0.0
  9
$PUCSXDIR
 10
1.0
 20
0.0
 30
0.0
  9
$PUCSYDIR
 10
0.0
 20
1.0
 30
0.0
  9
$PUCSORTHOREF
  2

  9
$PUCSORTHOVIEW
 70
     0
  9
$PUCSORGTOP
 10
0.0
 20
0.0
 30
0.0
  9
$PUCSORGBOTTOM
 10
0.0
 20
0.0
 30
0.0
  9
$PUCSORGLEFT
 10
0.0
 20
0.0
 30
0.0
  9
$PUCSORGRIGHT
 10
0.0
 20
0.0
 30
0.0
  9
$PUCSORGFRONT
 10
0.0
 20
0.0
 30
0.0
  9
$PUCSORGBACK
 10
0.0
 20
0.0
 30
0.0
  9
$USERI1
 70
     0
  9
$USERI2
 70
     0
  9
$USERI3
 70
     0
  9
$USERI4
 70
     0
  9
$USERI5
 70
     0
  9
$USERR1
 40
0.0
  9
$USERR2
 40
0.0
  9
$USERR3
 40
0.0
  9
$USERR4
 40
0.0
  9
$USERR5
 40
0.0
  9
$WORLDVIEW
 70
     1
  9
$SHADEDGE
 70
     3
  9
$SHADEDIF
 70
    70
  9
$TILEMODE
 70
     1
  9
$MAXACTVP
 70
    64
  9
$PINSBASE
 10
0.0
 20
0.0
 30
0.0
  9
$PLIMCHECK
 70
     0
  9
$PEXTMIN
 10
1.000000000000000E+20
 20
1.000000000000000E+20
 30
1.000000000000000E+20
  9
$PEXTMAX
 10
-1.000000000000000E+20
 20
-1.000000000000000E+20
 30
-1.000000000000000E+20
  9
$PLIMMIN
 10
0.0
 20
0.0
  9
$PLIMMAX
 10
12.0
 20
9.0
  9
$UNITMODE
 70
     0
  9
$VISRETAIN
 70
     1
  9
$PLINEGEN
 70
     0
  9
$PSLTSCALE
 70
     1
  9
$TREEDEPTH
 70
  3020
  9
$CMLSTYLE
  2
Standard
  9
$CMLJUST
 70
     0
  9
$CMLSCALE
 40
1.0
  9
$PROXYGRAPHICS
 70
     1
  9
$MEASUREMENT
 70
     0
  9
$CELWEIGHT
370
    -1
  9
$ENDCAPS
280
     0
  9
$JOINSTYLE
280
     0
  9
$LWDISPLAY
290
     0
  9
$INSUNITS
 70
     4
  9
$HYPERLINKBASE
  1

  9
$STYLESHEET
  1

  9
$XEDIT
290
     1
  9
$CEPSNTYPE
380
     0
  9
$PSTYLEMODE
290
     1
  9
$FINGERPRINTGUID
  2
{0DE2B800-FA2F-A642-A0E7-B6FAB050F5E1}
  9
$VERSIONGUID
  2
{D19148FE-55BC-D544-9034-F2FD7265035F}
  9
$EXTNAMES
290
     1
  9
$PSVPSCALE
 40
0.0
  9
$OLESTARTUP
290
     0
  9
$SORTENTS
280
   127
  9
$INDEXCTL
280
     0
  9
$HIDETEXT
280
     1
  9
$XCLIPFRAME
280
     2
  9
$HALOGAP
280
     0
  9
$OBSCOLOR
 70
   257
  9
$OBSLTYPE
280
     0
  9
$INTERSECTIONDISPLAY
280
     0
  9
$INTERSECTIONCOLOR
 70
   257
  9
$DIMASSOC
280
     2
  9
$PROJECTNAME
  1

  9
$CAMERADISPLAY
290
     0
  9
$LENSLENGTH
 40
50.0
  9
$CAMERAHEIGHT
 40
0.0
  9
$STEPSPERSEC
 40
2.0
  9
$STEPSIZE
 40
6.0
  9
$3DDWFPREC
 40
2.0
  9
$PSOLWIDTH
 40
0.25
  9
$PSOLHEIGHT
 40
4.0
  9
$LOFTANG1
 40
1.570796326794896
  9
$LOFTANG2
 40
1.570796326794896
  9
$LOFTMAG1
 40
0.0
  9
$LOFTMAG2
 40
0.0
  9
$LOFTPARAM
 70
     7
  9
$LOFTNORMALS
280
     1
  9
$LATITUDE
 40
37.795
  9
$LONGITUDE
 40
-122.394
  9
$NORTHDIRECTION
 40
0.0
  9
$TIMEZONE
 70
 -8000
  9
$LIGHTGLYPHDISPLAY
280
     1
  9
$TILEMODELIGHTSYNCH
280
     1
  9
$CMATERIAL
347
11
  9
$SOLIDHIST
280
     0
  9
$SHOWHIST
280
     1
  9
$DWFFRAME
280
     2
  9
$DGNFRAME
280
     0
  9
$REALWORLDSCALE
290
     1
  9
$INTERFERECOLOR
 62
     1
  9
$INTERFEREOBJVS
345
33
  9
$INTERFEREVPVS
346
30
  9
$CSHADOW
280
     0
  9
$SHADOWPLANELOCATION
 40
0.0
  0
ENDSEC
  0
SECTION
  2
CLASSES
  0
CLASS
  1
ACDBDICTIONARYWDFLT
  2
AcDbDictionaryWithDefault
  3
ObjectDBX Classes
 90
        0
 91
        1
280
     0
281
     0
  0
CLASS
  1
MATERIAL
  2
AcDbMaterial
  3
ObjectDBX Classes
 90
     1153
 91
        3
280
     0
281
     0
  0
CLASS
  1
VISUALSTYLE
  2
AcDbVisualStyle
  3
ObjectDBX Classes
 90
     4095
 91
       24
280
     0
281
     0
  0
CLASS
  1
SCALE
  2
AcDbScale
  3
ObjectDBX Classes
 90
     1153
 91
       17
280
     0
281
     0
  0
CLASS
  1
TABLESTYLE
  2
AcDbTableStyle
  3
ObjectDBX Classes
 90
     4095
 91
        1
280
     0
281
     0
  0
CLASS
  1
MLEADERSTYLE
  2
AcDbMLeaderStyle
  3
ACDB_MLEADERSTYLE_CLASS
 90
     4095
 91
        1
280
     0
281
     0
  0
CLASS
  1
ACDBSECTIONVIEWSTYLE
  2
AcDbSectionViewStyle
  3
ObjectDBX Classes
 90
     1025
 91
        1
280
     0
281
     0
  0
CLASS
  1
ACDBDETAILVIEWSTYLE
  2
AcDbDetailViewStyle
  3
ObjectDBX Classes
 90
     1025
 91
        1
280
     0
281
     0
  0
CLASS
  1
DICTIONARYVAR
  2
AcDbDictionaryVar
  3
ObjectDBX Classes
 90
        0
 91
        5
280
     0
281
     0
  0
CLASS
  1
CELLSTYLEMAP
  2
AcDbCellStyleMap
  3
ObjectDBX Classes
 90
     1152
 91
        1
280
     0
281
     0
  0
ENDSEC
  0
SECTION
  2
TABLES
  0
TABLE
  2
VPORT
  5
8
330
0
100
AcDbSymbolTable
 70
     1
1001
ACAD
1000
DbSaveVer
1071
      421
  0
VPORT
  5
57
330
8
100
AcDbSymbolTableRecord
100
AcDbViewportTableRecord
  2
*Active
 70
     0
 10
0.0
 20
0.0
 11
1.0
 21
1.0
 12
500.0
 22
500.0
 13
0.0
 23
0.0
 14
1.0
 24
1.0
 15
0.0
 25
0.0
 16
0.0
 26
0.0
 36
1.0
 17
0.0
 27
0.0
 37
0.0
 40
12.0
 41
1.0
 42
50.0
 43
0.0
 44
0.0
 50
0.0
 51
0.0
 71
     0
 72
   100
 73
     1
 74
     1
 75
     0
 76
     0
 77
     0
 78
     0
281
     0
 65
     1
110
0.0
120
0.0
130
0.0
111
1.0
121
0.0
131
0.0
112
0.0
122
1.0
132
0.0
 79
     0
146
0.0
 60
     3
 61
     5
292
     1
282
     1
141
0.0
142
0.0
 63
   250
421
  3355443
  0
ENDTAB
  0
TABLE
  2
LTYPE
  5
5
330
0
100
AcDbSymbolTable
 70
     1
  0
LTYPE
  5
5B
330
5
100
AcDbSymbolTableRecord
100
AcDbLinetypeTableRecord
  2
ByBlock
 70
     0
  3

 72
    65
 73
     0
 40
0.0
  0
LTYPE
  5
5C
330
5
100
AcDbSymbolTableRecord
100
AcDbLinetypeTableRecord
  2
ByLayer
 70
     0
  3

 72
    65
 73
     0
 40
0.0
  0
LTYPE
  5
5D
330
5
100
AcDbSymbolTableRecord
100
AcDbLinetypeTableRecord
  2
Continuous
 70
     0
  3
Solid line
 72
    65
 73
     0
 40
0.0
  0
ENDTAB
  0
TABLE
  2
LAYER
  5
2
330
0
100
AcDbSymbolTable
 70
     5
  0
LAYER
  5
54
330
2
100
AcDbSymbolTableRecord
100
AcDbLayerTableRecord
  2
0
 70
     0
 62
     7
  6
Continuous
370
    -3
390
F
347
21
348
0
  0
LAYER
  5
7A
330
2
100
AcDbSymbolTableRecord
100
AcDbLayerTableRecord
  2
デジファブ　課題　花びらコースター v2_Sketch1
 70
     0
 62
     7
  6
Continuous
370
    -3
390
F
347
21
348
0
1001
NFusion_SketchTransform
1000
1.000000;0.000000;0.000000;0.000000;0.000000;1.000000;0.000000;0.000000;0.000000;0.000000;1.000000;0.000000;0.000000;0.000000;0.000000;1.000000
  0
LAYER
  5
EE
330
2
100
AcDbSymbolTableRecord
100
AcDbLayerTableRecord
  2
デジファブ　課題　花びらコースター v2_Sketch2
 70
     0
 62
     7
  6
Continuous
370
    -3
390
F
347
21
348
0
1001
NFusion_SketchTransform
1000
1.000000;0.000000;0.000000;0.000000;0.000000;1.000000;0.000000;0.000000;0.000000;0.000000;1.000000;0.000000;0.000000;0.000000;0.000000;1.000000
  0
LAYER
  5
143
330
2
100
AcDbSymbolTableRecord
100
AcDbLayerTableRecord
  2
デジファブ　課題　花びらコースター v2_Sketch3
 70
     0
 62
     7
  6
Continuous
370
    -3
390
F
347
21
348
0
1001
NFusion_SketchTransform
1000
1.000000;0.000000;0.000000;0.000000;0.000000;1.000000;0.000000;0.000000;0.000000;0.000000;1.000000;0.000000;0.000000;0.000000;0.000000;1.000000
  0
LAYER
  5
145
330
2
100
AcDbSymbolTableRecord
100
AcDbLayerTableRecord
  2
デジファブ　課題　花びらコースター v2_Sketch4
 70
     0
 62
     7
  6
Continuous
370
    -3
390
F
347
21
348
0
1001
NFusion_SketchTransform
1000
1.000000;0.000000;0.000000;0.000000;0.000000;1.000000;0.000000;0.000000;0.000000;0.000000;1.000000;0.000000;0.000000;0.000000;0.000000;1.000000
  0
ENDTAB
  0
TABLE
  2
STYLE
  5
3
330
0
100
AcDbSymbolTable
 70
     2
  0
STYLE
  5
55
330
3
100
AcDbSymbolTableRecord
100
AcDbTextStyleTableRecord
  2
Standard
 70
     0
 40
0.0
 41
1.0
 50
0.0
 71
     0
 42
0.2
  3
txt
  4

  0
STYLE
  5
5A
330
3
100
AcDbSymbolTableRecord
100
AcDbTextStyleTableRecord
  2
Annotative
 70
     0
 40
0.0
 41
1.0
 50
0.0
 71
     0
 42
0.2
  3
txt
  4

1001
AcadAnnotative
1000
AnnotativeData
1002
{
1070
     1
1070
     1
1002
}
  0
ENDTAB
  0
TABLE
  2
VIEW
  5
6
330
0
100
AcDbSymbolTable
 70
     0
  0
ENDTAB
  0
TABLE
  2
UCS
  5
7
330
0
100
AcDbSymbolTable
 70
     0
  0
ENDTAB
  0
TABLE
  2
APPID
  5
9
330
0
100
AcDbSymbolTable
 70
     4
  0
APPID
  5
56
330
9
100
AcDbSymbolTableRecord
100
AcDbRegAppTableRecord
  2
ACAD
 70
     0
  0
APPID
  5
5E
330
9
100
AcDbSymbolTableRecord
100
AcDbRegAppTableRecord
  2
AcadAnnotative
 70
     0
  0
APPID
  5
78
330
9
100
AcDbSymbolTableRecord
100
AcDbRegAppTableRecord
  2
EDIT_IN_FUSION_ACAD_ADDIN
 70
     0
  0
APPID
  5
79
330
9
100
AcDbSymbolTableRecord
100
AcDbRegAppTableRecord
  2
NFusion_SketchTransform
 70
     0
  0
ENDTAB
  0
TABLE
  2
DIMSTYLE
  5
A
330
0
100
AcDbSymbolTable
 70
     2
100
AcDbDimStyleTable
 71
     0
  0
DIMSTYLE
105
58
330
A
100
AcDbSymbolTableRecord
100
AcDbDimStyleTableRecord
  2
Standard
 70
     0
340
55
  0
DIMSTYLE
105
59
330
A
100
AcDbSymbolTableRecord
100
AcDbDimStyleTableRecord
  2
Annotative
 70
     0
340
55
1001
AcadAnnotative
1000
AnnotativeData
1002
{
1070
     1
1070
     1
1002
}
  0
ENDTAB
  0
TABLE
  2
BLOCK_RECORD
  5
1
330
0
100
AcDbSymbolTable
 70
     1
  0
BLOCK_RECORD
  5
70
330
1
100
AcDbSymbolTableRecord
100
AcDbBlockTableRecord
  2
*Model_Space
340
73
 70
     0
280
     1
281
     0
  0
BLOCK_RECORD
  5
6C
330
1
100
AcDbSymbolTableRecord
100
AcDbBlockTableRecord
  2
*Paper_Space
340
6F
 70
     0
280
     1
281
     0
  0
BLOCK_RECORD
  5
74
330
1
100
AcDbSymbolTableRecord
100
AcDbBlockTableRecord
  2
*Paper_Space0
340
77
 70
     0
280
     1
281
     0
  0
ENDTAB
  0
ENDSEC
  0
SECTION
  2
BLOCKS
  0
BLOCK
  5
71
330
70
100
AcDbEntity
  8
0
100
AcDbBlockBegin
  2
*Model_Space
 70
     0
 10
0.0
 20
0.0
 30
0.0
  3
*Model_Space
  1

  0
ENDBLK
  5
72
330
70
100
AcDbEntity
  8
0
100
AcDbBlockEnd
  0
BLOCK
  5
6D
330
6C
100
AcDbEntity
 67
     1
  8
0
100
AcDbBlockBegin
  2
*Paper_Space
 70
     0
 10
0.0
 20
0.0
 30
0.0
  3
*Paper_Space
  1

  0
ENDBLK
  5
6E
330
6C
100
AcDbEntity
 67
     1
  8
0
100
AcDbBlockEnd
  0
BLOCK
  5
75
330
74
100
AcDbEntity
 67
     1
  8
0
100
AcDbBlockBegin
  2
*Paper_Space0
 70
     0
 10
0.0
 20
0.0
 30
0.0
  3
*Paper_Space0
  1

  0
ENDBLK
  5
76
330
74
100
AcDbEntity
 67
     1
  8
0
100
AcDbBlockEnd
  0
ENDSEC
  0
SECTION
  2
ENTITIES
  0
POINT
  5
7B
330
70
100
AcDbEntity
  8
デジファブ　課題　花びらコースター v2_Sketch1
100
AcDbPoint
 10
0.0
 20
0.0
 30
0.0
  0
SPLINE
  5
7C
330
70
100
AcDbEntity
  8
デジファブ　課題　花びらコースター v2_Sketch1
100
AcDbSpline
210
0.0
220
0.0
230
1.0
 70
    12
 71
     5
 72
    23
 73
    17
 74
     0
 42
0.000000001
 43
0.0000000001
 40
0.0
 40
0.0
 40
0.0
 40
0.0
 40
0.0
 40
0.0
 40
0.05
 40
0.1
 40
0.15
 40
0.2
 40
0.25
 40
0.3
 40
0.35
 40
0.4
 40
0.45
 40
0.5
 40
0.55
 40
0.5723041155862524
 40
0.5723041155862524
 40
0.5723041155862524
 40
0.5723041155862524
 40
0.5723041155862524
 40
0.5723041155862524
 10
-163.0554199573229
 20
-102.9353660628552
 30
0.0
 41
1.0
 10
-164.6423718248822
 20
-106.4961530675012
 30
0.0
 41
1.0
 10
-167.3979489782231
 20
-113.5707902814131
 30
0.0
 41
1.0
 10
-170.2763144795744
 20
-124.0419938468696
 30
0.0
 41
1.0
 10
-171.5940693395588
 20
-137.7204448878046
 30
0.0
 41
1.0
 10
-169.0276104856376
 20
-154.2491540622446
 30
0.0
 41
1.0
 10
-162.3165669229497
 20
-169.9175842417409
 30
0.0
 41
1.0
 10
-151.6771875839177
 20
-184.1663775701024
 30
0.0
 41
1.0
 10
-137.5673430531945
 20
-196.0275072829602
 30
0.0
 41
1.0
 10
-120.7018194719561
 20
-204.1936057084345
 30
0.0
 41
1.0
 10
-101.9643801481945
 20
-207.3480160595116
 30
0.0
 41
1.0
 10
-82.3502968092834
 20
-204.4481427815034
 30
0.0
 41
1.0
 10
-65.05781529549929
 20
-196.0469681267143
 30
0.0
 41
1.0
 10
-52.36462013102883
 20
-185.9069997934892
 30
0.0
 41
1.0
 10
-43.95092076652652
 20
-177.1990794036307
 30
0.0
 41
1.0
 10
-39.23198607294305
 20
-171.6080842508883
 30
0.0
 41
1.0
 10
-37.80192683875823
 20
-169.8438676563243
 30
0.0
 41
1.0
  0
SPLINE
  5
7D
330
70
100
AcDbEntity
  8
デジファブ　課題　花びらコースター v2_Sketch1
100
AcDbSpline
210
0.0
220
0.0
230
1.0
 70
    12
 71
     5
 72
    41
 73
    35
 74
     0
 42
0.000000001
 43
0.0000000001
 40
0.0
 40
0.0
 40
0.0
 40
0.0
 40
0.0
 40
0.0
 40
0.0333333333333333
 40
0.0666666666666667
 40
0.1
 40
0.1333333333333333
 40
0.1666666666666666
 40
0.2
 40
0.2333333333333333
 40
0.2666666666666666
 40
0.3
 40
0.3333333333333333
 40
0.3666666666666666
 40
0.4
 40
0.4333333333333333
 40
0.4666666666666666
 40
0.5
 40
0.5333333333333333
 40
0.5666666666666666
 40
0.6
 40
0.6333333333333333
 40
0.6666666666666666
 40
0.7
 40
0.7333333333333333
 40
0.7666666666666666
 40
0.8
 40
0.8333333333333332
 40
0.8666666666666666
 40
0.9
 40
0.9333333333333332
 40
0.9666666666666666
 40
1.0
 40
1.0
 40
1.0
 40
1.0
 40
1.0
 40
1.0
 10
-44.06996876322922
 20
23.4879168759154
 30
0.0
 41
1.0
 10
-46.08200941485397
 20
25.24840978436002
 30
0.0
 41
1.0
 10
-50.01866141824745
 20
28.88548716921383
 30
0.0
 41
1.0
 10
-55.66137220600499
 20
34.68937893585324
 30
0.0
 41
1.0
 10
-62.65932366892285
 20
43.12570560256208
 30
0.0
 41
1.0
 10
-70.48992932823892
 20
54.82647596412269
 30
0.0
 41
1.0
 10
-77.28761953304732
 20
67.64663394525183
 30
0.0
 41
1.0
 10
-82.83290327695821
 20
81.50451485320497
 30
0.0
 41
1.0
 10
-86.75201196678393
 20
96.25375256881172
 30
0.0
 41
1.0
 10
-88.54484944438482
 20
111.6684627340595
 30
0.0
 41
1.0
 10
-87.69637437418383
 20
127.4349376928201
 30
0.0
 41
1.0
 10
-83.77046334395558
 20
143.1381988892939
 30
0.0
 41
1.0
 10
-76.50233947183057
 20
158.2556747368759
 30
0.0
 41
1.0
 10
-65.91676138385981
 20
172.1325734871891
 30
0.0
 41
1.0
 10
-52.34044442768607
 20
184.0243161712201
 30
0.0
 41
1.0
 10
-36.32288333799682
 20
193.1959994822081
 30
0.0
 41
1.0
 10
-18.58541907217297
 20
199.0060261074375
 30
0.0
 41
1.0
 10
0.0392481499564359
 20
200.997295600672
 30
0.0
 41
1.0
 10
18.66215708920534
 20
198.9870901866556
 30
0.0
 41
1.0
 10
36.39438286975128
 20
193.1601461397478
 30
0.0
 41
1.0
 10
52.40340827785061
 20
183.9749770733771
 30
0.0
 41
1.0
 10
65.96828348079151
 20
172.0740968029789
 30
0.0
 41
1.0
 10
76.5402040169875
 20
158.1926487174866
 30
0.0
 41
1.0
 10
83.79347315479671
 20
143.0747563647063
 30
0.0
 41
1.0
 10
87.70487728870197
 20
127.3738506181788
 30
0.0
 41
1.0
 10
88.54047486237812
 20
111.6107802658459
 30
0.0
 41
1.0
 10
86.73739573289211
 20
96.19863615951784
 30
0.0
 41
1.0
 10
82.81133908400674
 20
81.4492745816633
 30
0.0
 41
1.0
 10
77.262675578283
 20
67.58694940403076
 30
0.0
 41
1.0
 10
70.4649437678641
 20
54.75685495353037
 30
0.0
 41
1.0
 10
62.63752112206745
 20
43.04000873657714
 30
0.0
 41
1.0
 10
55.64463044411645
 20
34.5856670655704
 30
0.0
 41
1.0
 10
50.00711421455834
 20
28.76533145583075
 30
0.0
 41
1.0
 10
46.07454565289743
 20
25.11599032659465
 30
0.0
 41
1.0
 10
44.06470183659441
 20
23.34904025993362
 30
0.0
 41
1.0
  0
LINE
  5
7E
330
70
100
AcDbEntity
  8
デジファブ　課題　花びらコースター v2_Sketch1
100
AcDbLine
 10
10.0
 20
-15.0
 30
0.0
 11
15.0
 21
0.0
 31
0.0
  0
SPLINE
  5
7F
330
70
100
AcDbEntity
  8
デジファブ　課題　花びらコースター v2_Sketch1
100
AcDbSpline
210
0.0
220
0.0
230
1.0
 70
    12
 71
     5
 72
    32
 73
    26
 74
     0
 42
0.000000001
 43
0.0000000001
 40
0.0
 40
0.0
 40
0.0
 40
0.0
 40
0.0
 40
0.0
 40
0.04
 40
0.08
 40
0.12
 40
0.16
 40
0.2
 40
0.24
 40
0.28
 40
0.32
 40
0.36
 40
0.4
 40
0.44
 40
0.4799999999999999
 40
0.52
 40
0.56
 40
0.6
 40
0.6400000000000001
 40
0.6800000000000001
 40
0.7200000000000001
 40
0.7600000000000002
 40
0.8000000000000001
 40
0.8232192400741325
 40
0.8232192400741325
 40
0.8232192400741325
 40
0.8232192400741325
 40
0.8232192400741325
 40
0.8232192400741325
 10
-125.0
 20
-75.0
 30
0.0
 41
1.0
 10
-127.1231474802649
 20
-77.41709790643605
 30
0.0
 41
1.0
 10
-131.2579970231896
 20
-82.57854978954499
 30
0.0
 41
1.0
 10
-137.0386337212787
 20
-91.27185406671333
 30
0.0
 41
1.0
 10
-143.4770016037429
 20
-104.4808681254851
 30
0.0
 41
1.0
 10
-148.2012007869161
 20
-122.4121721142443
 30
0.0
 41
1.0
 10
-148.4813025287659
 20
-140.1596551427292
 30
0.0
 41
1.0
 10
-143.5353947009581
 20
-156.033852890992
 30
0.0
 41
1.0
 10
-133.1357640085094
 20
-168.4826904267865
 30
0.0
 41
1.0
 10
-117.9245259090402
 20
-176.3618244427118
 30
0.0
 41
1.0
 10
-99.40550091216906
 20
-179.0471469901407
 30
0.0
 41
1.0
 10
-79.54534007234172
 20
-176.3619646331965
 30
0.0
 41
1.0
 10
-60.48884331715114
 20
-168.5562296829137
 30
0.0
 41
1.0
 10
-44.21726970252443
 20
-156.2767298534249
 30
0.0
 41
1.0
 10
-32.26334129850613
 20
-140.5364242991447
 30
0.0
 41
1.0
 10
-25.31364151196939
 20
-122.7196301056915
 30
0.0
 41
1.0
 10
-23.25012442275
 20
-104.4379142411352
 30
0.0
 41
1.0
 10
-25.43798850023243
 20
-87.30110428960253
 30
0.0
 41
1.0
 10
-30.9330871161189
 20
-72.71009101930888
 30
0.0
 41
1.0
 10
-38.71053014695231
 20
-61.6500277137973
 30
0.0
 41
1.0
 10
-47.89521927148253
 20
-54.45146181302991
 30
0.0
 41
1.0
 10
-57.10530238622827
 20
-50.95918109718424
 30
0.0
 41
1.0
 10
-64.66263818456481
 20
-49.89088191350609
 30
0.0
 41
1.0
 10
-70.25073882006544
 20
-49.76887321508694
 30
0.0
 41
1.0
 10
-73.71987220587408
 20
-49.91632873325581
 30
0.0
 41
1.0
 10
-74.99999999395291
 20
-49.99999999960474
 30
0.0
 41
1.0
  0
LINE
  5
80
330
70
100
AcDbEntity
  8
デジファブ　課題　花びらコースター v2_Sketch1
100
AcDbLine
 10
-2.407775199422154
 20
-84.32925905256212
 30
0.0
 11
-3.85661414479073
 21
-67.46566322156319
 31
0.0
  0
LINE
  5
81
330
70
100
AcDbEntity
  8
デジファブ　課題　花びらコースター v2_Sketch1
100
AcDbLine
 10
15.0
 20
0.0
 30
0.0
 11
0.0
 21
15.0
 31
0.0
  0
LINE
  5
82
330
70
100
AcDbEntity
  8
デジファブ　課題　花びらコースター v2_Sketch1
100
AcDbLine
 10
-40.43780044609083
 20
-29.40721501744319
 30
0.0
 11
-25.0
 21
-29.40721501744319
 31
0.0
  0
CIRCLE
  5
83
330
70
100
AcDbEntity
  8
デジファブ　課題　花びらコースター v2_Sketch1
100
AcDbCircle
 10
-83.3610442945263
 20
-114.7563097052764
 30
0.0
 40
21.57503560544576
  0
CIRCLE
  5
84
330
70
100
AcDbEntity
  8
デジファブ　課題　花びらコースター v2_Sketch1
100
AcDbCircle
 10
0.0
 20
0.0
 30
0.0
 40
50.0
  0
CIRCLE
  5
85
330
70
100
AcDbEntity
  8
デジファブ　課題　花びらコースター v2_Sketch1
100
AcDbCircle
 10
-83.3610442945263
 20
-114.7563097052764
 30
0.0
 40
43.80382562686945
  0
CIRCLE
  5
86
330
70
100
AcDbEntity
  8
デジファブ　課題　花びらコースター v2_Sketch1
100
AcDbCircle
 10
-83.3610442945263
 20
-114.7563097052764
 30
0.0
 40
43.80382562686945
  0
SPLINE
  5
87
330
70
100
AcDbEntity
  8
デジファブ　課題　花びらコースター v2_Sketch1
100
AcDbSpline
210
0.0
220
0.0
230
1.0
 70
    12
 71
     5
 72
    16
 73
    10
 74
     0
 42
0.000000001
 43
0.0000000001
 40
0.7837204082794595
 40
0.7837204082794595
 40
0.7837204082794595
 40
0.7837204082794595
 40
0.7837204082794595
 40
0.7837204082794595
 40
0.8000000000000001
 40
0.8500000000000001
 40
0.9000000000000001
 40
0.9500000000000003
 40
1.0
 40
1.0
 40
1.0
 40
1.0
 40
1.0
 40
1.0
 10
-3.132194845141606
 20
-75.89745912303918
 30
0.0
 41
1.0
 10
-3.23705968199517
 20
-74.67689680226841
 30
0.0
 41
1.0
 10
-3.779292340622639
 20
-69.79597394356567
 30
0.0
 41
1.0
 10
-5.55912514588111
 20
-61.8855433732557
 30
0.0
 41
1.0
 10
-10.22878312931124
 20
-52.41053986100364
 30
0.0
 41
1.0
 10
-20.32705943173901
 20
-43.91257969519717
 30
0.0
 41
1.0
 10
-34.15148612567892
 20
-40.5649188047144
 30
0.0
 41
1.0
 10
-47.02372301688793
 20
-40.6158210229058
 30
0.0
 41
1.0
 10
-56.71358975394038
 20
-41.78383210508417
 30
0.0
 41
1.0
 10
-61.83561432005376
 20
-42.65134546788281
 30
0.0
 41
1.0
  0
SPLINE
  5
88
330
70
100
AcDbEntity
  8
デジファブ　課題　花びらコースター v2_Sketch1
100
AcDbSpline
210
0.0
220
0.0
230
1.0
 70
    12
 71
     5
 72
    41
 73
    35
 74
     0
 42
0.000000001
 43
0.0000000001
 40
0.0
 40
0.0
 40
0.0
 40
0.0
 40
0.0
 40
0.0
 40
0.0333333333333333
 40
0.0666666666666667
 40
0.1
 40
0.1333333333333333
 40
0.1666666666666666
 40
0.2
 40
0.2333333333333333
 40
0.2666666666666666
 40
0.3
 40
0.3333333333333333
 40
0.3666666666666666
 40
0.4
 40
0.4333333333333333
 40
0.4666666666666666
 40
0.5
 40
0.5333333333333333
 40
0.5666666666666666
 40
0.6
 40
0.6333333333333333
 40
0.6666666666666666
 40
0.7
 40
0.7333333333333333
 40
0.7666666666666666
 40
0.8
 40
0.8333333333333332
 40
0.8666666666666666
 40
0.9
 40
0.9333333333333332
 40
0.9666666666666666
 40
1.0
 40
1.0
 40
1.0
 40
1.0
 40
1.0
 40
1.0
 10
-44.06996876322922
 20
23.4879168759154
 30
0.0
 41
1.0
 10
-45.35066962105698
 20
24.76354900240217
 30
0.0
 41
1.0
 10
-48.16171266736134
 20
27.29093411124811
 30
0.0
 41
1.0
 10
-53.12722323295422
 20
31.0103872969415
 30
0.0
 41
1.0
 10
-61.24831831882516
 20
35.82603807106597
 30
0.0
 41
1.0
 10
-73.859606645536
 20
41.57460309451457
 30
0.0
 41
1.0
 10
-88.77711649026426
 20
46.95765071521542
 30
0.0
 41
1.0
 10
-105.6778195035276
 20
51.79134781410976
 30
0.0
 41
1.0
 10
-123.9877161280739
 20
55.76179485705154
 30
0.0
 41
1.0
 10
-142.8749199591129
 20
58.42794051652527
 30
0.0
 41
1.0
 10
-161.390749645879
 20
59.31053310251342
 30
0.0
 41
1.0
 10
-178.5746799858065
 20
57.96073501661066
 30
0.0
 41
1.0
 10
-193.5799561221124
 20
54.0407172097514
 30
0.0
 41
1.0
 10
-205.7762630279898
 20
47.39244229682811
 30
0.0
 41
1.0
 10
-214.9007116879131
 20
38.13247099828155
 30
0.0
 41
1.0
 10
-221.055686179243
 20
26.66720062422071
 30
0.0
 41
1.0
 10
-224.5120636087494
 20
13.60753905181505
 30
0.0
 41
1.0
 10
-225.5645453816772
 20
-0.289362807971508
 30
0.0
 41
1.0
 10
-224.3645339877945
 20
-14.18728528238203
 30
0.0
 41
1.0
 10
-220.7688505359382
 20
-27.23438076862344
 30
0.0
 41
1.0
 10
-214.4963514297907
 20
-38.64288513413179
 30
0.0
 41
1.0
 10
-205.2882749191534
 20
-47.77350508742048
 30
0.0
 41
1.0
 10
-193.0510870872278
 20
-54.20885220647833
 30
0.0
 41
1.0
 10
-178.0484411332698
 20
-57.85915878537321
 30
0.0
 41
1.0
 10
-160.8914077182069
 20
-58.93959769050269
 30
0.0
 41
1.0
 10
-142.3955960807934
 20
-57.86307366490667
 30
0.0
 41
1.0
 10
-123.4820969978542
 20
-55.16169819068033
 30
0.0
 41
1.0
 10
-105.0575847800702
 20
-51.39511589117503
 30
0.0
 41
1.0
 10
-87.91324089155493
 20
-47.07199613492103
 30
0.0
 41
1.0
 10
-72.59047587919368
 20
-42.54880974539646
 30
0.0
 41
1.0
 10
-59.39504318241143
 20
-38.03294547489875
 30
0.0
 41
1.0
 10
-50.65688487381382
 20
-34.50986499636071
 30
0.0
 41
1.0
 10
-45.1434950416236
 20
-31.93307404955853
 30
0.0
 41
1.0
 10
-41.92944373336916
 20
-30.24431863411007
 30
0.0
 41
1.0
 10
-40.43780044609083
 20
-29.40721501744319
 30
0.0
 41
1.0
  0
SPLINE
  5
89
330
70
100
AcDbEntity
  8
デジファブ　課題　花びらコースター v2_Sketch1
100
AcDbSpline
210
0.0
220
0.0
230
1.0
 70
    12
 71
     5
 72
    46
 73
    40
 74
     0
 42
0.000000001
 43
0.0000000001
 40
0.0
 40
0.0
 40
0.0
 40
0.0
 40
0.0
 40
0.0
 40
0.0285714285714286
 40
0.0571428571428571
 40
0.0857142857142858
 40
0.1142857142857143
 40
0.1428571428571428
 40
0.1714285714285714
 40
0.2
 40
0.2285714285714286
 40
0.2571428571428572
 40
0.2857142857142858
 40
0.3142857142857143
 40
0.3428571428571429
 40
0.3714285714285715
 40
0.4000000000000001
 40
0.4285714285714287
 40
0.4571428571428572
 40
0.4857142857142859
 40
0.5142857142857144
 40
0.5428571428571429
 40
0.5714285714285716
 40
0.6000000000000001
 40
0.6285714285714287
 40
0.6571428571428573
 40
0.6857142857142859
 40
0.7142857142857145
 40
0.742857142857143
 40
0.7714285714285716
 40
0.8000000000000001
 40
0.8285714285714288
 40
0.8571428571428572
 40
0.8857142857142859
 40
0.9142857142857144
 40
0.942857142857143
 40
0.9714285714285717
 40
1.0
 40
1.0
 40
1.0
 40
1.0
 40
1.0
 40
1.0
 10
0.0
 20
-50.0
 30
0.0
 41
1.0
 10
0.3747661184013969
 20
-54.03669380445927
 30
0.0
 41
1.0
 10
1.193986856488064
 20
-61.98665668979668
 30
0.0
 41
1.0
 10
2.631882702608023
 20
-73.54132627697321
 30
0.0
 41
1.0
 10
4.967769209058399
 20
-88.20602300415565
 30
0.0
 41
1.0
 10
8.597270070651026
 20
-105.2979717865679
 30
0.0
 41
1.0
 10
12.96641833404587
 20
-121.1519369709497
 30
0.0
 41
1.0
 10
18.13084307867855
 20
-135.7772221762037
 30
0.0
 41
1.0
 10
24.18002502517206
 20
-149.1966869462999
 30
0.0
 41
1.0
 10
31.24385620570194
 20
-161.4505372234675
 30
0.0
 41
1.0
 10
39.50382729338227
 20
-172.6043400038724
 30
0.0
 41
1.0
 10
49.14108712085578
 20
-182.7023604873753
 30
0.0
 41
1.0
 10
60.27984014099202
 20
-191.7177173246205
 30
0.0
 41
1.0
 10
72.93040209123749
 20
-199.5006100571461
 30
0.0
 41
1.0
 10
86.93542422852045
 20
-205.7334478844302
 30
0.0
 41
1.0
 10
101.9037933812076
 20
-209.8649726715598
 30
0.0
 41
1.0
 10
117.2614284586639
 20
-211.2436568318758
 30
0.0
 41
1.0
 10
132.3173660877704
 20
-209.2736618727256
 30
0.0
 41
1.0
 10
146.3240792258758
 20
-203.5721893496042
 30
0.0
 41
1.0
 10
158.5388559301575
 20
-194.1071912068349
 30
0.0
 41
1.0
 10
168.287201219519
 20
-181.3972547963675
 30
0.0
 41
1.0
 10
175.0118834734295
 20
-166.413614601946
 30
0.0
 41
1.0
 10
178.3133494911101
 20
-150.3490115399349
 30
0.0
 41
1.0
 10
177.9974891188565
 20
-134.4239836584529
 30
0.0
 41
1.0
 10
174.1140567691345
 20
-119.6929141622204
 30
0.0
 41
1.0
 10
167.0195167747868
 20
-106.8142307815222
 30
0.0
 41
1.0
 10
157.368861974612
 20
-95.95293346508027
 30
0.0
 41
1.0
 10
145.9703068900414
 20
-86.94960476930651
 30
0.0
 41
1.0
 10
133.666755889866
 20
-79.43274103022758
 30
0.0
 41
1.0
 10
121.2152163781073
 20
-72.94632765027694
 30
0.0
 41
1.0
 10
109.147775333073
 20
-67.08402167152039
 30
0.0
 41
1.0
 10
97.70168626719692
 20
-61.57491089497099
 30
0.0
 41
1.0
 10
86.9223153448623
 20
-56.24038600246039
 30
0.0
 41
1.0
 10
76.73277153580018
 20
-50.97671253393034
 30
0.0
 41
1.0
 10
67.01222783412186
 20
-45.7285324002156
 30
0.0
 41
1.0
 10
57.67962420339839
 20
-40.46460323270681
 30
0.0
 41
1.0
 10
50.49246281582184
 20
-36.22805681098488
 30
0.0
 41
1.0
 10
45.2523349677342
 20
-33.03409231087968
 30
0.0
 41
1.0
 10
41.82564542480872
 20
-30.89742438348857
 30
0.0
 41
1.0
 10
40.12898043284348
 20
-29.82725145601694
 30
0.0
 41
1.0
  0
SPLINE
  5
8A
330
70
100
AcDbEntity
  8
デジファブ　課題　花びらコースター v2_Sketch1
100
AcDbSpline
210
0.0
220
0.0
230
1.0
 70
    12
 71
     5
 72
    46
 73
    40
 74
     0
 42
0.000000001
 43
0.0000000001
 40
0.0
 40
0.0
 40
0.0
 40
0.0
 40
0.0
 40
0.0
 40
0.0285714285714286
 40
0.0571428571428571
 40
0.0857142857142858
 40
0.1142857142857143
 40
0.1428571428571428
 40
0.1714285714285714
 40
0.2
 40
0.2285714285714286
 40
0.2571428571428572
 40
0.2857142857142858
 40
0.3142857142857143
 40
0.3428571428571429
 40
0.3714285714285715
 40
0.4000000000000001
 40
0.4285714285714287
 40
0.4571428571428572
 40
0.4857142857142859
 40
0.5142857142857144
 40
0.5428571428571429
 40
0.5714285714285716
 40
0.6000000000000001
 40
0.6285714285714287
 40
0.6571428571428573
 40
0.6857142857142859
 40
0.7142857142857145
 40
0.742857142857143
 40
0.7714285714285716
 40
0.8000000000000001
 40
0.8285714285714288
 40
0.8571428571428572
 40
0.8857142857142859
 40
0.9142857142857144
 40
0.942857142857143
 40
0.9714285714285717
 40
1.0
 40
1.0
 40
1.0
 40
1.0
 40
1.0
 40
1.0
 10
0.0
 20
-50.0
 30
0.0
 41
1.0
 10
-0.3748959692698112
 20
-54.03616516094943
 30
0.0
 41
1.0
 10
-1.194337991697321
 20
-61.98513162229549
 30
0.0
 41
1.0
 10
-2.632450508427437
 20
-73.53848916076585
 30
0.0
 41
1.0
 10
-4.968395122822722
 20
-88.20180216566425
 30
0.0
 41
1.0
 10
-8.59758631898943
 20
-105.2926213633496
 30
0.0
 41
1.0
 10
-12.96605336148618
 20
-121.1460241894646
 30
0.0
 41
1.0
 10
-18.12944817015811
 20
-135.7712441979029
 30
0.0
 41
1.0
 10
-24.17729403485399
 20
-149.1910215017291
 30
0.0
 41
1.0
 10
-31.23954404997298
 20
-161.4453766316525
 30
0.0
 41
1.0
 10
-39.4977902629883
 20
-172.5996188625155
 30
0.0
 41
1.0
 10
-49.13331835450214
 20
-182.6977854523258
 30
0.0
 41
1.0
 10
-60.27047285137123
 20
-191.7128868268586
 30
0.0
 41
1.0
 10
-72.91967966458471
 20
-199.49521933186
 30
0.0
 41
1.0
 10
-86.92366126671835
 20
-205.727603303881
 30
0.0
 41
1.0
 10
-101.891256373245
 20
-209.8595547535415
 30
0.0
 41
1.0
 10
-117.2482292305023
 20
-211.2403177025171
 30
0.0
 41
1.0
 10
-132.303493150798
 20
-209.2746038704285
 30
0.0
 41
1.0
 10
-146.3095367622172
 20
-203.5796658779094
 30
0.0
 41
1.0
 10
-158.5238964510399
 20
-194.1227734726559
 30
0.0
 41
1.0
 10
-168.2727270941137
 20
-181.4207759896442
 30
0.0
 41
1.0
 10
-174.9996717701959
 20
-166.4428998523406
 30
0.0
 41
1.0
 10
-178.3059178388749
 20
-150.3800908365289
 30
0.0
 41
1.0
 10
-177.9976208445438
 20
-134.4519108231117
 30
0.0
 41
1.0
 10
-174.1240585259547
 20
-119.7130082557619
 30
0.0
 41
1.0
 10
-167.0399701958372
 20
-106.8241638897896
 30
0.0
 41
1.0
 10
-157.3977238424704
 20
-95.95420744733807
 30
0.0
 41
1.0
 10
-146.0029927982983
 20
-86.9475456414821
 30
0.0
 41
1.0
 10
-133.6970383822597
 20
-79.43530217070713
 30
0.0
 41
1.0
 10
-121.2368847005795
 20
-72.96172896827115
 30
0.0
 41
1.0
 10
-109.1573953222201
 20
-67.11683082421274
 30
0.0
 41
1.0
 10
-97.70124495133558
 20
-61.62197876786915
 30
0.0
 41
1.0
 10
-86.92040091461548
 20
-56.2889179494271
 30
0.0
 41
1.0
 10
-76.74469335963173
 20
-51.00395518522333
 30
0.0
 41
1.0
 10
-67.05895649449449
 20
-45.7031758561435
 30
0.0
 41
1.0
 10
-57.78547941044088
 20
-40.35014073547967
 30
0.0
 41
1.0
 10
-50.66633317502628
 20
-36.01117492226713
 30
0.0
 41
1.0
 10
-45.48907501521964
 20
-32.72255935405104
 30
0.0
 41
1.0
 10
-42.10956160162618
 20
-30.51487508878495
 30
0.0
 41
1.0
 10
-40.43780044609083
 20
-29.40721501744319
 30
0.0
 41
1.0
  0
LINE
  5
8B
330
70
100
AcDbEntity
  8
デジファブ　課題　花びらコースター v2_Sketch1
100
AcDbLine
 10
-52.52114754112505
 20
-188.0024815105035
 30
0.0
 11
-23.08270613639141
 21
-151.6852538021452
 31
0.0
  0
SPLINE
  5
8C
330
70
100
AcDbEntity
  8
デジファブ　課題　花びらコースター v2_Sketch1
100
AcDbSpline
210
0.0
220
0.0
230
1.0
 70
    12
 71
     5
 72
    41
 73
    35
 74
     0
 42
0.000000001
 43
0.0000000001
 40
0.0
 40
0.0
 40
0.0
 40
0.0
 40
0.0
 40
0.0
 40
0.0333333333333333
 40
0.0666666666666667
 40
0.1
 40
0.1333333333333333
 40
0.1666666666666666
 40
0.2
 40
0.2333333333333333
 40
0.2666666666666666
 40
0.3
 40
0.3333333333333333
 40
0.3666666666666666
 40
0.4
 40
0.4333333333333333
 40
0.4666666666666666
 40
0.5
 40
0.5333333333333333
 40
0.5666666666666666
 40
0.6
 40
0.6333333333333333
 40
0.6666666666666666
 40
0.7
 40
0.7333333333333333
 40
0.7666666666666666
 40
0.8
 40
0.8333333333333332
 40
0.8666666666666666
 40
0.9
 40
0.9333333333333332
 40
0.9666666666666666
 40
1.0
 40
1.0
 40
1.0
 40
1.0
 40
1.0
 40
1.0
 10
44.06470183659441
 20
23.34904025993362
 30
0.0
 41
1.0
 10
45.34381183480698
 20
24.63403622126233
 30
0.0
 41
1.0
 10
48.15188756567842
 20
27.17935908106816
 30
0.0
 41
1.0
 10
53.11359032186809
 20
30.92334906344447
 30
0.0
 41
1.0
 10
61.23089739873211
 20
35.76696796151025
 30
0.0
 41
1.0
 10
73.83959076498325
 20
41.54262901147636
 30
0.0
 41
1.0
 10
88.75660445370209
 20
46.94515368672671
 30
0.0
 41
1.0
 10
105.6587955923041
 20
51.79124615762496
 30
0.0
 41
1.0
 10
123.971989234939
 20
55.76801618795074
 30
0.0
 41
1.0
 10
142.863839755311
 20
58.43578011511304
 30
0.0
 41
1.0
 10
161.3850220842909
 20
59.31677051729177
 30
0.0
 41
1.0
 10
178.5742786032296
 20
57.96358578189341
 30
0.0
 41
1.0
 10
193.5841325719758
 20
54.03957433746126
 30
0.0
 41
1.0
 10
205.7836429301825
 20
47.38745824332695
 30
0.0
 41
1.0
 10
214.9095151798555
 20
38.1238776385909
 30
0.0
 41
1.0
 10
221.0638593679733
 20
26.65465947235118
 30
0.0
 41
1.0
 10
224.5173997219899
 20
13.5901076952828
 30
0.0
 41
1.0
 10
225.5648779229553
 20
-0.3127895603294708
 30
0.0
 41
1.0
 10
224.357819250411
 20
-14.21697871673173
 30
0.0
 41
1.0
 10
220.753637147797
 20
-27.26831212434526
 30
0.0
 41
1.0
 10
214.4722757458854
 20
-38.676307275372
 30
0.0
 41
1.0
 10
205.2561127880905
 20
-47.79958282137058
 30
0.0
 41
1.0
 10
193.012585373474
 20
-54.22023799449714
 30
0.0
 41
1.0
 10
178.0057409718303
 20
-57.85084094096736
 30
0.0
 41
1.0
 10
160.8456310531574
 20
-58.91105506990844
 30
0.0
 41
1.0
 10
142.3459806010977
 20
-57.81953905185708
 30
0.0
 41
1.0
 10
123.4253406711181
 20
-55.11466895243858
 30
0.0
 41
1.0
 10
104.9875688812294
 20
-51.36204622957734
 30
0.0
 41
1.0
 10
87.82096697730816
 20
-47.0752212378061
 30
0.0
 41
1.0
 10
72.46449539661205
 20
-42.61359212168508
 30
0.0
 41
1.0
 10
59.22263293366729
 20
-38.1861929202104
 30
0.0
 41
1.0
 10
50.43665243261687
 20
-34.75596717058655
 30
0.0
 41
1.0
 10
44.88132590668439
 20
-32.26129847059227
 30
0.0
 41
1.0
 10
41.63662295222422
 20
-30.63282822605193
 30
0.0
 41
1.0
 10
40.12898043284348
 20
-29.82725145601694
 30
0.0
 41
1.0
  0
LINE
  5
8D
330
70
100
AcDbEntity
  8
デジファブ　課題　花びらコースター v2_Sketch1
100
AcDbLine
 10
-14.98374898162161
 20
47.70206773773809
 30
0.0
 11
0.0
 21
35.0
 31
0.0
  0
LINE
  5
8E
330
70
100
AcDbEntity
  8
デジファブ　課題　花びらコースター v2_Sketch1
100
AcDbLine
 10
0.0
 20
35.0
 30
0.0
 11
14.9837489816216
 21
47.70206773773809
 31
0.0
  0
LINE
  5
8F
330
70
100
AcDbEntity
  8
デジファブ　課題　花びらコースター v2_Sketch1
100
AcDbLine
 10
0.0
 20
15.0
 30
0.0
 11
-15.0
 21
0.0
 31
0.0
  0
LINE
  5
90
330
70
100
AcDbEntity
  8
デジファブ　課題　花びらコースター v2_Sketch1
100
AcDbLine
 10
-15.0
 20
0.0
 30
0.0
 11
-10.0
 21
-15.0
 31
0.0
  0
LINE
  5
91
330
70
100
AcDbEntity
  8
デジファブ　課題　花びらコースター v2_Sketch1
100
AcDbLine
 10
-10.0
 20
-15.0
 30
0.0
 11
10.0
 21
-15.0
 31
0.0
  0
LINE
  5
92
330
70
100
AcDbEntity
  8
デジファブ　課題　花びらコースター v2_Sketch1
100
AcDbLine
 10
-165.0
 20
-25.0
 30
0.0
 11
-160.0
 21
-35.0
 31
0.0
  0
LINE
  5
93
330
70
100
AcDbEntity
  8
デジファブ　課題　花びらコースター v2_Sketch1
100
AcDbLine
 10
14.56469177924425
 20
165.5866067410736
 30
0.0
 11
14.56469177924425
 21
190.0
 31
0.0
  0
LINE
  5
94
330
70
100
AcDbEntity
  8
デジファブ　課題　花びらコースター v2_Sketch1
100
AcDbLine
 10
54.53245945402148
 20
60.92524901644519
 30
0.0
 11
54.53245945402148
 21
90.0
 31
0.0
  0
LINE
  5
95
330
70
100
AcDbEntity
  8
デジファブ　課題　花びらコースター v2_Sketch1
100
AcDbLine
 10
-30.0
 20
80.0
 30
0.0
 11
-30.0
 21
120.0
 31
0.0
  0
LINE
  5
96
330
70
100
AcDbEntity
  8
デジファブ　課題　花びらコースター v2_Sketch1
100
AcDbLine
 10
22.69372927241928
 20
160.0
 30
0.0
 11
25.73866861099929
 21
156.3201729488333
 31
0.0
  0
LINE
  5
97
330
70
100
AcDbEntity
  8
デジファブ　課題　花びらコースター v2_Sketch1
100
AcDbLine
 10
25.0
 20
-29.82725145601694
 30
0.0
 11
22.8473340815092
 21
-44.47470433142764
 31
0.0
  0
SPLINE
  5
98
330
70
100
AcDbEntity
  8
デジファブ　課題　花びらコースター v2_Sketch1
100
AcDbSpline
210
0.0
220
0.0
230
1.0
 70
    13
 71
     5
 72
    36
 73
    30
 74
     0
 42
0.000000001
 43
0.0000000001
 40
0.0
 40
0.0
 40
0.0
 40
0.0
 40
0.0
 40
0.0
 40
0.04
 40
0.08
 40
0.12
 40
0.16
 40
0.2
 40
0.24
 40
0.28
 40
0.32
 40
0.36
 40
0.4
 40
0.44
 40
0.4799999999999999
 40
0.52
 40
0.56
 40
0.6
 40
0.6400000000000001
 40
0.6800000000000001
 40
0.7200000000000001
 40
0.7600000000000002
 40
0.8000000000000001
 40
0.8400000000000002
 40
0.8800000000000002
 40
0.9200000000000002
 40
0.9600000000000003
 40
1.0
 40
1.0
 40
1.0
 40
1.0
 40
1.0
 40
1.0
 10
125.0
 20
-105.0
 30
0.0
 41
1.0
 10
124.7725825355292
 20
-104.9999999895339
 30
0.0
 41
1.0
 10
124.3177476133383
 20
-105.159592721221
 30
0.0
 41
1.0
 10
123.6406410118284
 20
-105.8777600769009
 30
0.0
 41
1.0
 10
122.7687068180731
 20
-107.7458064978606
 30
0.0
 41
1.0
 10
121.781141229324
 20
-111.3098874254466
 30
0.0
 41
1.0
 10
120.9456707645112
 20
-115.7063603428482
 30
0.0
 41
1.0
 10
120.3102688805113
 20
-120.4920000750991
 30
0.0
 41
1.0
 10
119.9204301630244
 20
-125.2375229846434
 30
0.0
 41
1.0
 10
119.8184468051942
 20
-129.5890714469879
 30
0.0
 41
1.0
 10
120.0423819570191
 20
-133.3276656904901
 30
0.0
 41
1.0
 10
120.6156345508139
 20
-136.3372315396231
 30
0.0
 41
1.0
 10
121.5368760687632
 20
-138.5763194802732
 30
0.0
 41
1.0
 10
122.7687915535998
 20
-140.0492313318637
 30
0.0
 41
1.0
 10
124.2283512856439
 20
-140.7792536343278
 30
0.0
 41
1.0
 10
125.7716525076246
 20
-140.779253639196
 30
0.0
 41
1.0
 10
127.2312121311294
 20
-140.0492313627399
 30
0.0
 41
1.0
 10
128.4631274034555
 20
-138.5763195748826
 30
0.0
 41
1.0
 10
129.3843686154678
 20
-136.3372317285902
 30
0.0
 41
1.0
 10
129.9576208262061
 20
-133.3276659812067
 30
0.0
 41
1.0
 10
130.1815555384689
 20
-129.5890718191389
 30
0.0
 41
1.0
 10
130.0795717089602
 20
-125.2375233942865
 30
0.0
 41
1.0
 10
129.6897325142102
 20
-120.4920004762453
 30
0.0
 41
1.0
 10
129.0543301770344
 20
-115.7063607023248
 30
0.0
 41
1.0
 10
128.2188593150115
 20
-111.309887716686
 30
0.0
 41
1.0
 10
127.231293415289
 20
-107.7458067022063
 30
0.0
 41
1.0
 10
126.359359062414
 20
-105.8777602018966
 30
0.0
 41
1.0
 10
125.6822524001632
 20
-105.1595927840173
 30
0.0
 41
1.0
 10
125.2274174644708
 20
-105.000000010466
 30
0.0
 41
1.0
 10
125.0
 20
-105.0
 30
0.0
 41
1.0
  0
LINE
  5
99
330
70
100
AcDbEntity
  8
デジファブ　課題　花びらコースター v2_Sketch1
100
AcDbLine
 10
-35.05401673950543
 20
9.963988840329715
 30
0.0
 11
-50.0
 21
0.0
 31
0.0
  0
LINE
  5
9A
330
70
100
AcDbEntity
  8
デジファブ　課題　花びらコースター v2_Sketch1
100
AcDbLine
 10
-90.0
 20
20.0
 30
0.0
 11
-85.0
 21
10.0
 31
0.0
  0
CIRCLE
  5
9B
330
70
100
AcDbEntity
  8
デジファブ　課題　花びらコースター v2_Sketch1
100
AcDbCircle
 10
-170.0
 20
30.0
 30
0.0
 40
6.024694525372548
  0
LINE
  5
9C
330
70
100
AcDbEntity
  8
デジファブ　課題　花びらコースター v2_Sketch1
100
AcDbLine
 10
66.00000098347663
 20
-147.0000021904707
 30
0.0
 11
66.00000098347663
 21
-153.0000022798776
 31
0.0
  0
LINE
  5
9D
330
70
100
AcDbEntity
  8
デジファブ　課題　花びらコースター v2_Sketch1
100
AcDbLine
 10
0.0
 20
15.0
 30
0.0
 11
0.0
 21
35.0
 31
0.0
  0
LINE
  5
9E
330
70
100
AcDbEntity
  8
デジファブ　課題　花びらコースター v2_Sketch1
100
AcDbLine
 10
87.00000129640102
 20
-148.0000022053718
 30
0.0
 11
87.00000129640102
 21
-152.0000022649765
 31
0.0
  0
LINE
  5
9F
330
70
100
AcDbEntity
  8
デジファブ　課題　花びらコースター v2_Sketch1
100
AcDbLine
 10
101.0000015050173
 20
-147.0000021904707
 30
0.0
 11
101.0000015050173
 21
-153.0000022798776
 31
0.0
  0
SPLINE
  5
A0
330
70
100
AcDbEntity
  8
デジファブ　課題　花びらコースター v2_Sketch1
100
AcDbSpline
210
0.0
220
0.0
230
1.0
 70
    12
 71
     5
 72
    26
 73
    20
 74
     0
 42
0.000000001
 43
0.0000000001
 40
0.0
 40
0.0
 40
0.0
 40
0.0
 40
0.0
 40
0.0
 40
0.0666666666666667
 40
0.1333333333333333
 40
0.2
 40
0.2666666666666666
 40
0.3333333333333333
 40
0.4
 40
0.4666666666666666
 40
0.5333333333333333
 40
0.6
 40
0.6666666666666666
 40
0.7333333333333333
 40
0.8
 40
0.8666666666666666
 40
0.9333333333333332
 40
1.0
 40
1.0
 40
1.0
 40
1.0
 40
1.0
 40
1.0
 10
-180.0
 20
20.0
 30
0.0
 41
1.0
 10
-179.8036517911233
 20
19.39802437715385
 30
0.0
 41
1.0
 10
-179.3626055519922
 20
18.23063006011721
 30
0.0
 41
1.0
 10
-178.5559836248044
 20
16.58920957801926
 30
0.0
 41
1.0
 10
-177.1883002187406
 20
14.6215834342176
 30
0.0
 41
1.0
 10
-174.9868217787382
 20
12.54077176693369
 30
0.0
 41
1.0
 10
-172.3017840165825
 20
10.85327303362149
 30
0.0
 41
1.0
 10
-169.167252119836
 20
9.57490741154476
 30
0.0
 41
1.0
 10
-165.6615892376114
 20
8.717974690342748
 30
0.0
 41
1.0
 10
-161.9150750646108
 20
8.288261434942892
 30
0.0
 41
1.0
 10
-158.0849249355899
 20
8.28826143494234
 30
0.0
 41
1.0
 10
-154.3384107625313
 20
8.717974690341529
 30
0.0
 41
1.0
 10
-150.8327478802024
 20
9.57490741154401
 30
0.0
 41
1.0
 10
-147.6982159833288
 20
10.85327303362266
 30
0.0
 41
1.0
 10
-145.0131782210595
 20
12.54077176693758
 30
0.0
 41
1.0
 10
-142.8116997809996
 20
14.62158343422366
 30
0.0
 41
1.0
 10
-141.4440163749698
 20
16.58920957802518
 30
0.0
 41
1.0
 10
-140.6373944478688
 20
18.23063006012112
 30
0.0
 41
1.0
 10
-140.1963482088254
 20
19.39802437715533
 30
0.0
 41
1.0
 10
-140.0
 20
20.0
 30
0.0
 41
1.0
  0
LINE
  5
A1
330
70
100
AcDbEntity
  8
デジファブ　課題　花びらコースター v2_Sketch1
100
AcDbLine
 10
-70.0
 20
130.0
 30
0.0
 11
-66.00000098347663
 21
127.0000018924474
 31
0.0
  0
LINE
  5
A2
330
70
100
AcDbEntity
  8
デジファブ　課題　花びらコースター v2_Sketch1
100
AcDbLine
 10
35.11446730536523
 20
9.923688463089849
 30
0.0
 11
50.0
 21
0.0
 31
0.0
  0
LINE
  5
A3
330
70
100
AcDbEntity
  8
デジファブ　課題　花びらコースター v2_Sketch1
100
AcDbLine
 10
59.00000087916851
 20
-147.0000021904707
 30
0.0
 11
59.00000087916851
 21
-153.0000022798776
 31
0.0
  0
LINE
  5
A4
330
70
100
AcDbEntity
  8
デジファブ　課題　花びらコースター v2_Sketch1
100
AcDbLine
 10
-30.0
 20
120.0
 30
0.0
 11
-35.00000052154064
 21
116.0000017285347
 31
0.0
  0
SPLINE
  5
A5
330
70
100
AcDbEntity
  8
デジファブ　課題　花びらコースター v2_Sketch1
100
AcDbSpline
210
0.0
220
0.0
230
1.0
 70
    12
 71
     5
 72
    21
 73
    15
 74
     0
 42
0.000000001
 43
0.0000000001
 40
0.0
 40
0.0
 40
0.0
 40
0.0
 40
0.0
 40
0.0
 40
0.1
 40
0.2
 40
0.3
 40
0.4
 40
0.5
 40
0.6
 40
0.7
 40
0.8
 40
0.9
 40
1.0
 40
1.0
 40
1.0
 40
1.0
 40
1.0
 40
1.0
 10
65.00000096857547
 20
-155.00000230968
 30
0.0
 41
1.0
 10
65.60000097750635
 20
-154.8483070890041
 30
0.0
 41
1.0
 10
66.80000099537079
 20
-154.5581641189909
 30
0.0
 41
1.0
 10
68.60000102217556
 20
-154.1626908600381
 30
0.0
 41
1.0
 10
71.00000105792992
 20
-153.7161937379638
 30
0.0
 41
1.0
 10
74.00000110264203
 20
-153.3018795053549
 30
0.0
 41
1.0
 10
77.00000114736551
 20
-153.0442243525884
 30
0.0
 41
1.0
 10
80.00000119209344
 20
-152.9560128520642
 30
0.0
 41
1.0
 10
83.00000123681913
 20
-153.0442243527244
 30
0.0
 41
1.0
 10
86.00000128153766
 20
-153.3018795055929
 30
0.0
 41
1.0
 10
89.00000132624491
 20
-153.7161937382375
 30
0.0
 41
1.0
 10
91.40000136199928
 20
-154.1626908602628
 30
0.0
 41
1.0
 10
93.2000013888077
 20
-154.5581641191252
 30
0.0
 41
1.0
 10
94.40000140667663
 20
-154.848307089053
 30
0.0
 41
1.0
 10
95.00000141561031
 20
-155.00000230968
 30
0.0
 41
1.0
  0
LINE
  5
A6
330
70
100
AcDbEntity
  8
デジファブ　課題　花びらコースター v2_Sketch1
100
AcDbLine
 10
94.00000140070915
 20
-147.0000021904707
 30
0.0
 11
94.00000140070915
 21
-153.0000022798776
 31
0.0
  0
LINE
  5
A7
330
70
100
AcDbEntity
  8
デジファブ　課題　花びらコースター v2_Sketch1
100
AcDbLine
 10
-160.0
 20
-35.0
 30
0.0
 11
-155.0
 21
-25.0
 31
0.0
  0
LINE
  5
A8
330
70
100
AcDbEntity
  8
デジファブ　課題　花びらコースター v2_Sketch1
100
AcDbLine
 10
15.0
 20
0.0
 30
0.0
 11
35.11446730536523
 21
9.923688463089849
 31
0.0
  0
LINE
  5
A9
330
70
100
AcDbEntity
  8
デジファブ　課題　花びらコースター v2_Sketch1
100
AcDbLine
 10
-80.0
 20
20.0
 30
0.0
 11
-75.0
 21
10.0
 31
0.0
  0
LINE
  5
AA
330
70
100
AcDbEntity
  8
デジファブ　課題　花びらコースター v2_Sketch1
100
AcDbLine
 10
-85.0
 20
10.0
 30
0.0
 11
-80.0
 21
20.0
 31
0.0
  0
LINE
  5
AB
330
70
100
AcDbEntity
  8
デジファブ　課題　花びらコースター v2_Sketch1
100
AcDbLine
 10
-10.0
 20
130.0
 30
0.0
 11
-10.0
 21
170.0
 31
0.0
  0
LINE
  5
AC
330
70
100
AcDbEntity
  8
デジファブ　課題　花びらコースター v2_Sketch1
100
AcDbLine
 10
-35.05401673950543
 20
9.963988840329715
 30
0.0
 11
-15.0
 21
0.0
 31
0.0
  0
LINE
  5
AD
330
70
100
AcDbEntity
  8
デジファブ　課題　花びらコースター v2_Sketch1
100
AcDbLine
 10
70.0
 20
100.0
 30
0.0
 11
70.0
 21
141.9626447942758
 31
0.0
  0
LINE
  5
AE
330
70
100
AcDbEntity
  8
デジファブ　課題　花びらコースター v2_Sketch1
100
AcDbLine
 10
10.0
 20
-15.0
 30
0.0
 11
25.0
 21
-29.82725145601694
 31
0.0
  0
LINE
  5
AF
330
70
100
AcDbEntity
  8
デジファブ　課題　花びらコースター v2_Sketch1
100
AcDbLine
 10
50.0
 20
140.0
 30
0.0
 11
50.0
 21
170.0
 31
0.0
  0
LINE
  5
B0
330
70
100
AcDbEntity
  8
デジファブ　課題　花びらコースター v2_Sketch1
100
AcDbLine
 10
-35.00000052154064
 20
116.0000017285347
 30
0.0
 11
-30.0
 21
120.0
 31
0.0
  0
LINE
  5
B1
330
70
100
AcDbEntity
  8
デジファブ　課題　花びらコースター v2_Sketch1
100
AcDbLine
 10
40.0
 20
130.0
 30
0.0
 11
43.4558689701216
 21
125.8235620787534
 31
0.0
  0
LINE
  5
B2
330
70
100
AcDbEntity
  8
デジファブ　課題　花びらコースター v2_Sketch1
100
AcDbLine
 10
-50.0
 20
170.0
 30
0.0
 11
-54.0000008046627
 21
166.0000024735927
 31
0.0
  0
LINE
  5
B3
330
70
100
AcDbEntity
  8
デジファブ　課題　花びらコースター v2_Sketch1
100
AcDbLine
 10
-175.0
 20
-25.0
 30
0.0
 11
-170.0
 21
-35.0
 31
0.0
  0
LINE
  5
B4
330
70
100
AcDbEntity
  8
デジファブ　課題　花びらコースター v2_Sketch1
100
AcDbLine
 10
-54.0000008046627
 20
166.0000024735927
 30
0.0
 11
-50.0
 21
170.0
 31
0.0
  0
LINE
  5
B5
330
70
100
AcDbEntity
  8
デジファブ　課題　花びらコースター v2_Sketch1
100
AcDbLine
 10
-10.0
 20
-15.0
 30
0.0
 11
-25.0
 21
-29.40721501744319
 31
0.0
  0
LINE
  5
B6
330
70
100
AcDbEntity
  8
デジファブ　課題　花びらコースター v2_Sketch1
100
AcDbLine
 10
40.12898043284348
 20
-29.82725145601694
 30
0.0
 11
25.0
 21
-29.82725145601694
 31
0.0
  0
LINE
  5
B7
330
70
100
AcDbEntity
  8
デジファブ　課題　花びらコースター v2_Sketch1
100
AcDbLine
 10
80.00000119209289
 20
-148.0000022053718
 30
0.0
 11
80.00000119209289
 21
-152.0000022649765
 31
0.0
  0
LINE
  5
B8
330
70
100
AcDbEntity
  8
デジファブ　課題　花びらコースター v2_Sketch1
100
AcDbLine
 10
73.00000108778476
 20
-148.0000022053718
 30
0.0
 11
73.00000108778476
 21
-152.0000022649765
 31
0.0
  0
LINE
  5
B9
330
70
100
AcDbEntity
  8
デジファブ　課題　花びらコースター v2_Sketch1
100
AcDbLine
 10
-10.0
 20
70.0
 30
0.0
 11
-10.0
 21
100.0
 31
0.0
  0
LINE
  5
BA
330
70
100
AcDbEntity
  8
デジファブ　課題　花びらコースター v2_Sketch1
100
AcDbLine
 10
20.0
 20
60.0
 30
0.0
 11
20.0
 21
90.0
 31
0.0
  0
SPLINE
  5
BB
330
70
100
AcDbEntity
  8
デジファブ　課題　花びらコースター v2_Sketch1
100
AcDbSpline
210
0.0
220
0.0
230
1.0
 70
    12
 71
     5
 72
    31
 73
    25
 74
     0
 42
0.000000001
 43
0.0000000001
 40
0.0
 40
0.0
 40
0.0
 40
0.0
 40
0.0
 40
0.0
 40
0.05
 40
0.1
 40
0.15
 40
0.2
 40
0.25
 40
0.3
 40
0.35
 40
0.4
 40
0.45
 40
0.5
 40
0.55
 40
0.6
 40
0.65
 40
0.7000000000000001
 40
0.7500000000000001
 40
0.8000000000000001
 40
0.8500000000000001
 40
0.9000000000000001
 40
0.9500000000000003
 40
1.0
 40
1.0
 40
1.0
 40
1.0
 40
1.0
 40
1.0
 10
65.00000096857547
 20
-145.0000021606683
 30
0.0
 41
1.0
 10
64.60301234320208
 20
-144.6883159244707
 30
0.0
 41
1.0
 10
63.81005910884749
 20
-144.1100439370961
 30
0.0
 41
1.0
 10
62.62370262305805
 20
-143.3779364686368
 30
0.0
 41
1.0
 10
61.04805413396147
 20
-142.6735065976997
 30
0.0
 41
1.0
 10
59.09466259518301
 20
-142.2491217562982
 30
0.0
 41
1.0
 10
57.17474406213792
 20
-142.2794853078722
 30
0.0
 41
1.0
 10
55.32328274590041
 20
-142.7525395299853
 30
0.0
 41
1.0
 10
53.5980251559689
 20
-143.6398493416672
 30
0.0
 41
1.0
 10
52.0882978102039
 20
-144.8885261049281
 30
0.0
 41
1.0
 10
50.89980441691998
 20
-146.4250297298633
 30
0.0
 41
1.0
 10
50.13370934783155
 20
-148.1613860409487
 30
0.0
 41
1.0
 10
49.86738779524937
 20
-150.0000022351777
 30
0.0
 41
1.0
 10
50.13370934781086
 20
-151.8386184293919
 30
0.0
 41
1.0
 10
50.89980441688546
 20
-153.5749747404459
 30
0.0
 41
1.0
 10
52.08829781016766
 20
-155.1114783653571
 30
0.0
 41
1.0
 10
53.59802515594575
 20
-156.3601551286274
 30
0.0
 41
1.0
 10
55.32328274590438
 20
-157.2474649403675
 30
0.0
 41
1.0
 10
57.17474406217717
 20
-157.7205191625807
 30
0.0
 41
1.0
 10
59.09466259525395
 20
-157.7508827142588
 30
0.0
 41
1.0
 10
61.04805413404656
 20
-157.3264978729135
 30
0.0
 41
1.0
 10
62.62370262312964
 20
-156.6220680019412
 30
0.0
 41
1.0
 10
63.81005910889086
 20
-155.889960533393
 30
0.0
 41
1.0
 10
64.603012343218
 20
-155.3116885459294
 30
0.0
 41
1.0
 10
65.00000096857547
 20
-155.00000230968
 30
0.0
 41
1.0
  0
LINE
  5
BC
330
70
100
AcDbEntity
  8
デジファブ　課題　花びらコースター v2_Sketch1
100
AcDbLine
 10
22.69372927241928
 20
123.9252895885516
 30
0.0
 11
22.69372927241928
 21
160.0
 31
0.0
  0
LINE
  5
BD
330
70
100
AcDbEntity
  8
デジファブ　課題　花びらコースター v2_Sketch1
100
AcDbLine
 10
-50.0
 20
130.0
 30
0.0
 11
-50.0
 21
170.0
 31
0.0
  0
LINE
  5
BE
330
70
100
AcDbEntity
  8
デジファブ　課題　花びらコースター v2_Sketch1
100
AcDbLine
 10
-30.0
 20
160.0
 30
0.0
 11
-30.0
 21
190.0
 31
0.0
  0
LINE
  5
BF
330
70
100
AcDbEntity
  8
デジファブ　課題　花びらコースター v2_Sketch1
100
AcDbLine
 10
-30.0
 20
120.0
 30
0.0
 11
-25.00000037252903
 21
116.0000017285347
 31
0.0
  0
LINE
  5
C0
330
70
100
AcDbEntity
  8
デジファブ　課題　花びらコースター v2_Sketch1
100
AcDbLine
 10
-44.06996876322922
 20
23.4879168759154
 30
0.0
 11
-35.05401673950542
 21
9.963988840329715
 31
0.0
  0
LINE
  5
C1
330
70
100
AcDbEntity
  8
デジファブ　課題　花びらコースター v2_Sketch1
100
AcDbLine
 10
-25.0
 20
-29.40721501744319
 30
0.0
 11
-22.8473340815092
 21
-44.47470433142763
 31
0.0
  0
CIRCLE
  5
C2
330
70
100
AcDbEntity
  8
デジファブ　課題　花びらコースター v2_Sketch1
100
AcDbCircle
 10
-150.0
 20
30.0
 30
0.0
 40
6.009209376687874
  0
LINE
  5
C3
330
70
100
AcDbEntity
  8
デジファブ　課題　花びらコースター v2_Sketch1
100
AcDbLine
 10
44.06470183659441
 20
23.34904025993362
 30
0.0
 11
35.11446730536523
 21
9.923688463089849
 31
0.0
  0
SPLINE
  5
C4
330
70
100
AcDbEntity
  8
デジファブ　課題　花びらコースター v2_Sketch1
100
AcDbSpline
210
0.0
220
0.0
230
1.0
 70
    12
 71
     5
 72
    31
 73
    25
 74
     0
 42
0.000000001
 43
0.0000000001
 40
0.0
 40
0.0
 40
0.0
 40
0.0
 40
0.0
 40
0.0
 40
0.05
 40
0.1
 40
0.15
 40
0.2
 40
0.25
 40
0.3
 40
0.35
 40
0.4
 40
0.45
 40
0.5
 40
0.55
 40
0.6
 40
0.65
 40
0.7000000000000001
 40
0.7500000000000001
 40
0.8000000000000001
 40
0.8500000000000001
 40
0.9000000000000001
 40
0.9500000000000003
 40
1.0
 40
1.0
 40
1.0
 40
1.0
 40
1.0
 40
1.0
 10
95.00000141561031
 20
-145.0000021606683
 30
0.0
 41
1.0
 10
95.3969900409583
 20
-144.6883159244707
 30
0.0
 41
1.0
 10
96.18994327526895
 20
-144.1100439370961
 30
0.0
 41
1.0
 10
97.37629976101317
 20
-143.3779364686368
 30
0.0
 41
1.0
 10
98.95194825008779
 20
-142.6735065976997
 30
0.0
 41
1.0
 10
100.9053397888877
 20
-142.2491217562982
 30
0.0
 41
1.0
 10
102.8252583219826
 20
-142.2794853078722
 30
0.0
 41
1.0
 10
104.6767196382777
 20
-142.7525395299853
 30
0.0
 41
1.0
 10
106.4019772282567
 20
-143.6398493416672
 30
0.0
 41
1.0
 10
107.9117045740481
 20
-144.8885261049281
 30
0.0
 41
1.0
 10
109.1001979673329
 20
-146.4250297298633
 30
0.0
 41
1.0
 10
109.8662930363974
 20
-148.1613860409487
 30
0.0
 41
1.0
 10
110.1326145889377
 20
-150.0000022351777
 30
0.0
 41
1.0
 10
109.8662930363289
 20
-151.8386184293919
 30
0.0
 41
1.0
 10
109.1001979672187
 20
-153.5749747404459
 30
0.0
 41
1.0
 10
107.9117045739284
 20
-155.1114783653571
 30
0.0
 41
1.0
 10
106.4019772281803
 20
-156.3601551286274
 30
0.0
 41
1.0
 10
104.6767196382908
 20
-157.2474649403675
 30
0.0
 41
1.0
 10
102.825258322112
 20
-157.7205191625807
 30
0.0
 41
1.0
 10
100.9053397891221
 20
-157.7508827142588
 30
0.0
 41
1.0
 10
98.95194825036988
 20
-157.3264978729135
 30
0.0
 41
1.0
 10
97.37629976125122
 20
-156.6220680019412
 30
0.0
 41
1.0
 10
96.18994327541329
 20
-155.889960533393
 30
0.0
 41
1.0
 10
95.39699004101118
 20
-155.3116885459294
 30
0.0
 41
1.0
 10
95.00000141561031
 20
-155.00000230968
 30
0.0
 41
1.0
  0
LINE
  5
C5
330
70
100
AcDbEntity
  8
デジファブ　課題　花びらコースター v2_Sketch1
100
AcDbLine
 10
-50.0
 20
50.0
 30
0.0
 11
-50.0
 21
80.0
 31
0.0
  0
LINE
  5
C6
330
70
100
AcDbEntity
  8
デジファブ　課題　花びらコースター v2_Sketch1
100
AcDbLine
 10
-70.0
 20
100.0
 30
0.0
 11
-70.0
 21
130.0
 31
0.0
  0
LINE
  5
C7
330
70
100
AcDbEntity
  8
デジファブ　課題　花びらコースター v2_Sketch1
100
AcDbLine
 10
-74.00000110268592
 20
127.0000018924474
 30
0.0
 11
-70.0
 21
130.0
 31
0.0
  0
LINE
  5
C8
330
70
100
AcDbEntity
  8
デジファブ　課題　花びらコースター v2_Sketch1
100
AcDbLine
 10
22.69372927241928
 20
160.0
 30
0.0
 11
19.749868684293
 21
156.3201729488333
 31
0.0
  0
LINE
  5
C9
330
70
100
AcDbEntity
  8
デジファブ　課題　花びらコースター v2_Sketch1
100
AcDbLine
 10
40.0
 20
90.0
 30
0.0
 11
40.0
 21
130.0
 31
0.0
  0
LINE
  5
CA
330
70
100
AcDbEntity
  8
デジファブ　課題　花びらコースター v2_Sketch1
100
AcDbLine
 10
19.749868684293
 20
156.3201729488333
 30
0.0
 11
22.69372927241928
 21
160.0
 31
0.0
  0
LINE
  5
CB
330
70
100
AcDbEntity
  8
デジファブ　課題　花びらコースター v2_Sketch1
100
AcDbLine
 10
-170.0
 20
-35.0
 30
0.0
 11
-165.0
 21
-25.0
 31
0.0
  0
LINE
  5
CC
330
70
100
AcDbEntity
  8
デジファブ　課題　花びらコースター v2_Sketch1
100
AcDbLine
 10
40.0
 20
130.0
 30
0.0
 11
36.65885085789133
 21
125.8235620787534
 31
0.0
  0
LINE
  5
CD
330
70
100
AcDbEntity
  8
デジファブ　課題　花びらコースター v2_Sketch1
100
AcDbLine
 10
-70.0
 20
130.0
 30
0.0
 11
-74.00000110268592
 21
127.0000018924474
 31
0.0
  0
SPLINE
  5
CE
330
70
100
AcDbEntity
  8
デジファブ　課題　花びらコースター v2_Sketch1
100
AcDbSpline
210
0.0
220
0.0
230
1.0
 70
    12
 71
     5
 72
    21
 73
    15
 74
     0
 42
0.000000001
 43
0.0000000001
 40
0.0
 40
0.0
 40
0.0
 40
0.0
 40
0.0
 40
0.0
 40
0.1
 40
0.2
 40
0.3
 40
0.4
 40
0.5
 40
0.6
 40
0.7
 40
0.8
 40
0.9
 40
1.0
 40
1.0
 40
1.0
 40
1.0
 40
1.0
 40
1.0
 10
65.00000096857547
 20
-145.0000021606683
 30
0.0
 41
1.0
 10
65.60000097750635
 20
-145.1516973813176
 30
0.0
 41
1.0
 10
66.80000099537079
 20
-145.4418403512843
 30
0.0
 41
1.0
 10
68.60000102217556
 20
-145.8373136101875
 30
0.0
 41
1.0
 10
71.00000105792992
 20
-146.2838107322331
 30
0.0
 41
1.0
 10
74.00000110264203
 20
-146.6981249648593
 30
0.0
 41
1.0
 10
77.00000114736551
 20
-146.9557801176807
 30
0.0
 41
1.0
 10
80.00000119209344
 20
-147.0439916182829
 30
0.0
 41
1.0
 10
83.00000123681913
 20
-146.9557801177056
 30
0.0
 41
1.0
 10
86.00000128153766
 20
-146.6981249649029
 30
0.0
 41
1.0
 10
89.00000132624491
 20
-146.2838107322835
 30
0.0
 41
1.0
 10
91.40000136199928
 20
-145.8373136102287
 30
0.0
 41
1.0
 10
93.2000013888077
 20
-145.441840351309
 30
0.0
 41
1.0
 10
94.40000140667663
 20
-145.1516973813266
 30
0.0
 41
1.0
 10
95.00000141561031
 20
-145.0000021606683
 30
0.0
 41
1.0
  0
LINE
  5
CF
330
70
100
AcDbEntity
  8
デジファブ　課題　花びらコースター v2_Sketch1
100
AcDbLine
 10
55.00000081956386
 20
-150.0000022351741
 30
0.0
 11
105.0000015646219
 21
-150.0000022351741
 31
0.0
  0
LINE
  5
D0
330
70
100
AcDbEntity
  8
デジファブ　課題　花びらコースター v2_Sketch1
100
AcDbLine
 10
-75.0
 20
10.0
 30
0.0
 11
-70.0
 21
20.0
 31
0.0
  0
LINE
  5
D1
330
70
100
AcDbEntity
  8
デジファブ　課題　花びらコースター v2_Sketch1
100
AcDbLine
 10
36.65885085789133
 20
125.8235620787534
 30
0.0
 11
40.0
 21
130.0
 31
0.0
  0
LINE
  5
D2
330
70
100
AcDbEntity
  8
デジファブ　課題　花びらコースター v2_Sketch1
100
AcDbLine
 10
14.56469177924425
 20
190.0
 30
0.0
 11
10.6639709621933
 21
186.0992983642955
 31
0.0
  0
LINE
  5
D3
330
70
100
AcDbEntity
  8
デジファブ　課題　花びらコースター v2_Sketch1
100
AcDbLine
 10
70.0
 20
141.9626447942758
 30
0.0
 11
66.00000098347663
 21
138.0000020563602
 31
0.0
  0
LINE
  5
D4
330
70
100
AcDbEntity
  8
デジファブ　課題　花びらコースター v2_Sketch1
100
AcDbLine
 10
-14.00000020861625
 20
166.0000024735927
 30
0.0
 11
-10.0
 21
170.0
 31
0.0
  0
LINE
  5
D5
330
70
100
AcDbEntity
  8
デジファブ　課題　花びらコースター v2_Sketch1
100
AcDbLine
 10
66.00000098347663
 20
138.0000020563602
 30
0.0
 11
70.0
 21
141.9626447942758
 31
0.0
  0
LINE
  5
D6
330
70
100
AcDbEntity
  8
デジファブ　課題　花びらコースター v2_Sketch1
100
AcDbLine
 10
50.0
 20
170.0
 30
0.0
 11
46.54292186760011
 21
165.6786507890651
 31
0.0
  0
LINE
  5
D7
330
70
100
AcDbEntity
  8
デジファブ　課題　花びらコースター v2_Sketch1
100
AcDbLine
 10
54.53245945402148
 20
90.0
 30
0.0
 11
58.1574983801465
 21
86.34078742435752
 31
0.0
  0
LINE
  5
D8
330
70
100
AcDbEntity
  8
デジファブ　課題　花びらコースター v2_Sketch1
100
AcDbLine
 10
20.0
 20
90.0
 30
0.0
 11
23.62503892612501
 21
86.34078742435752
 31
0.0
  0
LINE
  5
D9
330
70
100
AcDbEntity
  8
デジファブ　課題　花びらコースター v2_Sketch1
100
AcDbLine
 10
-10.0
 20
100.0
 30
0.0
 11
-14.00000020861625
 21
96.00000143051147
 31
0.0
  0
LINE
  5
DA
330
70
100
AcDbEntity
  8
デジファブ　課題　花びらコースター v2_Sketch1
100
AcDbLine
 10
70.0
 20
141.9626447942758
 30
0.0
 11
73.92563533228141
 21
138.0000020563602
 31
0.0
  0
LINE
  5
DB
330
70
100
AcDbEntity
  8
デジファブ　課題　花びらコースター v2_Sketch1
100
AcDbLine
 10
-54.0000008046627
 20
76.00000113248825
 30
0.0
 11
-50.0
 21
80.0
 31
0.0
  0
LINE
  5
DC
330
70
100
AcDbEntity
  8
デジファブ　課題　花びらコースター v2_Sketch1
100
AcDbLine
 10
14.56469177924425
 20
190.0
 30
0.0
 11
18.4653742336966
 21
186.0992983642955
 31
0.0
  0
LINE
  5
DD
330
70
100
AcDbEntity
  8
デジファブ　課題　花びらコースター v2_Sketch1
100
AcDbLine
 10
54.53245945402148
 20
90.0
 30
0.0
 11
50.83875107002544
 21
86.34078742435752
 31
0.0
  0
LINE
  5
DE
330
70
100
AcDbEntity
  8
デジファブ　課題　花びらコースター v2_Sketch1
100
AcDbLine
 10
-50.0
 20
80.0
 30
0.0
 11
-46.00000068545341
 21
76.00000113248825
 31
0.0
  0
LINE
  5
DF
330
70
100
AcDbEntity
  8
デジファブ　課題　花びらコースター v2_Sketch1
100
AcDbLine
 10
-14.00000020861625
 20
96.00000143051147
 30
0.0
 11
-10.0
 21
100.0
 31
0.0
  0
LINE
  5
E0
330
70
100
AcDbEntity
  8
デジファブ　課題　花びらコースター v2_Sketch1
100
AcDbLine
 10
16.30629161600394
 20
86.34078742435752
 30
0.0
 11
20.0
 21
90.0
 31
0.0
  0
LINE
  5
E1
330
70
100
AcDbEntity
  8
デジファブ　課題　花びらコースター v2_Sketch1
100
AcDbLine
 10
-6.000022143121015
 20
166.0000024735927
 30
0.0
 11
-10.0
 21
170.0
 31
0.0
  0
LINE
  5
E2
330
70
100
AcDbEntity
  8
デジファブ　課題　花びらコースター v2_Sketch1
100
AcDbLine
 10
-10.0
 20
100.0
 30
0.0
 11
-6.000003069638532
 21
96.00000143051147
 31
0.0
  0
LINE
  5
E3
330
70
100
AcDbEntity
  8
デジファブ　課題　花びらコースター v2_Sketch1
100
AcDbLine
 10
10.6639709621933
 20
186.0992983642955
 30
0.0
 11
14.56469177924425
 21
190.0
 31
0.0
  0
LINE
  5
E4
330
70
100
AcDbEntity
  8
デジファブ　課題　花びらコースター v2_Sketch1
100
AcDbLine
 10
-30.0
 20
190.0
 30
0.0
 11
-34.00000050663948
 21
186.000002771616
 31
0.0
  0
LINE
  5
E5
330
70
100
AcDbEntity
  8
デジファブ　課題　花びらコースター v2_Sketch1
100
AcDbLine
 10
-50.0
 20
170.0
 30
0.0
 11
-46.00000575184552
 21
166.0000024735927
 31
0.0
  0
LINE
  5
E6
330
70
100
AcDbEntity
  8
デジファブ　課題　花びらコースター v2_Sketch1
100
AcDbLine
 10
-30.0
 20
190.0
 30
0.0
 11
-26.00000604986876
 21
186.000002771616
 31
0.0
  0
LINE
  5
E7
330
70
100
AcDbEntity
  8
デジファブ　課題　花びらコースター v2_Sketch1
100
AcDbLine
 10
-10.0
 20
170.0
 30
0.0
 11
-14.00000020861625
 21
166.0000024735927
 31
0.0
  0
LINE
  5
E8
330
70
100
AcDbEntity
  8
デジファブ　課題　花びらコースター v2_Sketch1
100
AcDbLine
 10
-34.00000050663948
 20
186.000002771616
 30
0.0
 11
-30.0
 21
190.0
 31
0.0
  0
LINE
  5
E9
330
70
100
AcDbEntity
  8
デジファブ　課題　花びらコースター v2_Sketch1
100
AcDbLine
 10
46.54292186760011
 20
165.6786507890651
 30
0.0
 11
50.0
 21
170.0
 31
0.0
  0
LINE
  5
EA
330
70
100
AcDbEntity
  8
デジファブ　課題　花びらコースター v2_Sketch1
100
AcDbLine
 10
-50.0
 20
80.0
 30
0.0
 11
-54.0000008046627
 21
76.00000113248825
 31
0.0
  0
LINE
  5
EB
330
70
100
AcDbEntity
  8
デジファブ　課題　花びらコースター v2_Sketch1
100
AcDbLine
 10
50.0
 20
170.0
 30
0.0
 11
53.57577843337655
 21
165.6786507890651
 31
0.0
  0
LINE
  5
EC
330
70
100
AcDbEntity
  8
デジファブ　課題　花びらコースター v2_Sketch1
100
AcDbLine
 10
50.83875107002544
 20
86.34078742435752
 30
0.0
 11
54.53245945402148
 21
90.0
 31
0.0
  0
LINE
  5
ED
330
70
100
AcDbEntity
  8
デジファブ　課題　花びらコースター v2_Sketch1
100
AcDbLine
 10
20.0
 20
90.0
 30
0.0
 11
16.30629161600394
 21
86.34078742435752
 31
0.0
  0
POINT
  5
EF
330
70
100
AcDbEntity
  8
デジファブ　課題　花びらコースター v2_Sketch2
100
AcDbPoint
 10
0.0
 20
0.0
 30
0.0
  0
ARC
  5
F0
330
70
100
AcDbEntity
  8
デジファブ　課題　花びらコースター v2_Sketch2
100
AcDbCircle
 10
193.5978318203398
 20
-12.627800045315
 30
0.0
 40
49.55897595855423
100
AcDbArc
 50
135.1942295627424
 51
146.4890081708954
  0
LINE
  5
F1
330
70
100
AcDbEntity
  8
デジファブ　課題　花びらコースター v2_Sketch2
100
AcDbLine
 10
152.2765527538556
 20
14.73355946714878
 30
0.0
 11
148.4723427370539
 21
7.351580505974074
 31
0.0
  0
LINE
  5
F2
330
70
100
AcDbEntity
  8
デジファブ　課題　花びらコースター v2_Sketch2
100
AcDbLine
 10
93.26401715489971
 20
-20.0
 30
0.0
 11
94.2170617831441
 21
-25.52766321066915
 31
0.0
  0
LINE
  5
F3
330
70
100
AcDbEntity
  8
デジファブ　課題　花びらコースター v2_Sketch2
100
AcDbLine
 10
94.2170617831441
 20
-25.52766321066915
 30
0.0
 11
94.54652543324316
 21
-27.43855389084652
 31
0.0
  0
LINE
  5
F4
330
70
100
AcDbEntity
  8
デジファブ　課題　花びらコースター v2_Sketch2
100
AcDbLine
 10
94.54652543324316
 20
-27.43855389084652
 30
0.0
 11
95.93801393360202
 21
-29.78475537232819
 31
0.0
  0
LINE
  5
F5
330
70
100
AcDbEntity
  8
デジファブ　課題　花びらコースター v2_Sketch2
100
AcDbLine
 10
100.2856825242325
 20
18.40190484049328
 30
0.0
 11
97.11550751023111
 21
19.94170413300825
 31
0.0
  0
LINE
  5
F6
330
70
100
AcDbEntity
  8
デジファブ　課題　花びらコースター v2_Sketch2
100
AcDbLine
 10
98.45097000080642
 20
-34.02187357075578
 30
0.0
 11
101.8562899889741
 21
-39.76361473433538
 31
0.0
  0
LINE
  5
F7
330
70
100
AcDbEntity
  8
デジファブ　課題　花びらコースター v2_Sketch2
100
AcDbLine
 10
101.8562899889741
 20
-39.76361473433538
 30
0.0
 11
108.7092904185791
 21
-45.81678330027819
 31
0.0
  0
LINE
  5
F8
330
70
100
AcDbEntity
  8
デジファブ　課題　花びらコースター v2_Sketch2
100
AcDbLine
 10
108.7092904185791
 20
-45.81678330027819
 30
0.0
 11
116.408286881154
 21
-50.52675760679456
 31
0.0
  0
ARC
  5
F9
330
70
100
AcDbEntity
  8
デジファブ　課題　花びらコースター v2_Sketch2
100
AcDbCircle
 10
148.2028538565099
 20
-28.24879677644798
 30
0.0
 40
21.38712903768542
100
AcDbArc
 50
300.2564371635292
 51
334.4181745547183
  0
LINE
  5
FA
330
70
100
AcDbEntity
  8
デジファブ　課題　花びらコースター v2_Sketch2
100
AcDbLine
 10
170.3918385481494
 20
8.800803369517566
 30
0.0
 11
168.5803099687201
 21
20.66631556478
 31
0.0
  0
ARC
  5
FB
330
70
100
AcDbEntity
  8
デジファブ　課題　花びらコースター v2_Sketch2
100
AcDbCircle
 10
236.6990232097276
 20
31.06611911302537
 30
0.0
 40
68.90801845542148
100
AcDbArc
 50
179.4573818649068
 51
188.6804184250712
  0
LINE
  5
FC
330
70
100
AcDbEntity
  8
デジファブ　課題　花びらコースター v2_Sketch2
100
AcDbLine
 10
124.1072833437288
 20
43.31042280764723
 30
0.0
 11
124.1072833437288
 21
33.52816847872859
 31
0.0
  0
LINE
  5
FD
330
70
100
AcDbEntity
  8
デジファブ　課題　花びらコースター v2_Sketch2
100
AcDbLine
 10
114.868487588639
 20
3.637946918143848
 30
0.0
 11
113.9627232989243
 21
-1.615485962201343
 31
0.0
  0
LINE
  5
FE
330
70
100
AcDbEntity
  8
デジファブ　課題　花びらコースター v2_Sketch2
100
AcDbLine
 10
124.1072833437288
 20
33.52816847872859
 30
0.0
 11
123.1109426250427
 21
27.00666559278283
 31
0.0
  0
LINE
  5
FF
330
70
100
AcDbEntity
  8
デジファブ　課題　花びらコースター v2_Sketch2
100
AcDbLine
 10
111.0642775718373
 20
5.280060018369283
 30
0.0
 11
105.0862332597203
 21
13.96365982089131
 31
0.0
  0
LINE
  5
100
330
70
100
AcDbEntity
  8
デジファブ　課題　花びらコースター v2_Sketch2
100
AcDbLine
 10
97.11550751023111
 20
19.94170413300825
 30
0.0
 11
97.11550751023111
 21
11.3369433807187
 31
0.0
  0
ARC
  5
101
330
70
100
AcDbEntity
  8
デジファブ　課題　花びらコースター v2_Sketch2
100
AcDbCircle
 10
126.3935314382112
 20
5.280060018369283
 30
0.0
 40
11.64144197118617
100
AcDbArc
 50
156.5995224448073
 51
188.1090458108113
  0
LINE
  5
102
330
70
100
AcDbEntity
  8
デジファブ　課題　花びらコースター v2_Sketch2
100
AcDbLine
 10
105.0862332597203
 20
13.96365982089131
 30
0.0
 11
100.2856825242325
 21
18.40190484049328
 31
0.0
  0
LINE
  5
103
330
70
100
AcDbEntity
  8
デジファブ　課題　花びらコースター v2_Sketch2
100
AcDbLine
 10
97.11550751023111
 20
11.33694338071871
 30
0.0
 11
94.2170617831441
 21
-6.687765984603604
 31
0.0
  0
LINE
  5
104
330
70
100
AcDbEntity
  8
デジファブ　課題　花びらコースター v2_Sketch2
100
AcDbLine
 10
116.408286881154
 20
11.51809623866164
 30
0.0
 11
115.709582755304
 21
9.903523191089433
 31
0.0
  0
LINE
  5
105
330
70
100
AcDbEntity
  8
デジファブ　課題　花びらコースター v2_Sketch2
100
AcDbLine
 10
94.2170617831441
 20
-6.687765984603606
 30
0.0
 11
93.26401715489971
 21
-12.61451226649839
 31
0.0
  0
LINE
  5
106
330
70
100
AcDbEntity
  8
デジファブ　課題　花びらコースター v2_Sketch2
100
AcDbLine
 10
95.93801393360202
 20
-29.78475537232818
 30
0.0
 11
98.45097000080642
 21
-34.02187357075578
 31
0.0
  0
ARC
  5
107
330
70
100
AcDbEntity
  8
デジファブ　課題　花びらコースター v2_Sketch2
100
AcDbCircle
 10
133.6630966002188
 20
-26.42286025033727
 30
0.0
 40
27.81851646837265
100
AcDbArc
 50
254.611532167241
 51
285.388467832759
  0
LINE
  5
108
330
70
100
AcDbEntity
  8
デジファブ　課題　花びらコースター v2_Sketch2
100
AcDbLine
 10
113.9627232989243
 20
-1.615485962201343
 30
0.0
 11
111.0642775718373
 21
5.280060018369283
 31
0.0
  0
LINE
  5
109
330
70
100
AcDbEntity
  8
デジファブ　課題　花びらコースター v2_Sketch2
100
AcDbLine
 10
141.0450755613935
 20
-53.24405047593863
 30
0.0
 11
152.4577056117986
 21
-50.52675760679456
 31
0.0
  0
LINE
  5
10A
330
70
100
AcDbEntity
  8
デジファブ　課題　花びらコースター v2_Sketch2
100
AcDbLine
 10
93.26401715489971
 20
-12.61451226649839
 30
0.0
 11
93.26401715489971
 21
-20.0
 31
0.0
  0
LINE
  5
10B
330
70
100
AcDbEntity
  8
デジファブ　課題　花びらコースター v2_Sketch2
100
AcDbLine
 10
152.4577056117986
 20
-50.52675760679456
 30
0.0
 11
158.9792084977443
 21
-46.72254758999287
 31
0.0
  0
LINE
  5
10C
330
70
100
AcDbEntity
  8
デジファブ　課題　花びらコースター v2_Sketch2
100
AcDbLine
 10
167.4933928210625
 20
-37.48375183490304
 30
0.0
 11
171.5127091844893
 21
-29.08795798114056
 31
0.0
  0
LINE
  5
10D
330
70
100
AcDbEntity
  8
デジファブ　課題　花びらコースター v2_Sketch2
100
AcDbLine
 10
171.5127091844893
 20
-29.08795798114056
 30
0.0
 11
173.4714371331794
 21
-18.64385460883751
 31
0.0
  0
LINE
  5
10E
330
70
100
AcDbEntity
  8
デジファブ　課題　花びらコースター v2_Sketch2
100
AcDbLine
 10
116.408286881154
 20
-50.52675760679456
 30
0.0
 11
126.2811176390441
 21
-53.24405047593863
 31
0.0
  0
LINE
  5
10F
330
70
100
AcDbEntity
  8
デジファブ　課題　花びらコースター v2_Sketch2
100
AcDbLine
 10
173.4714371331794
 20
-18.64385460883751
 30
0.0
 11
172.4920731588344
 21
-4.876237405174236
 31
0.0
  0
ARC
  5
110
330
70
100
AcDbEntity
  8
デジファブ　課題　花びらコースター v2_Sketch2
100
AcDbCircle
 10
87.56788154922551
 20
-10.91734768464179
 30
0.0
 40
85.13878865684107
100
AcDbArc
 50
4.068900144989094
 51
13.391294009719
  0
LINE
  5
111
330
70
100
AcDbEntity
  8
デジファブ　課題　花びらコースター v2_Sketch2
100
AcDbLine
 10
167.794094906459
 20
31.7187008888408
 30
0.0
 11
158.4357499239155
 21
22.29669128626644
 31
0.0
  0
LINE
  5
112
330
70
100
AcDbEntity
  8
デジファブ　課題　花びらコースター v2_Sketch2
100
AcDbLine
 10
122.1146019063565
 20
54.1795942842235
 30
0.0
 11
124.1072833437288
 21
43.31042280764723
 31
0.0
  0
LINE
  5
113
330
70
100
AcDbEntity
  8
デジファブ　課題　花びらコースター v2_Sketch2
100
AcDbLine
 10
123.1109426250427
 20
27.00666559278283
 30
0.0
 11
116.408286881154
 21
11.51809623866164
 31
0.0
  0
SPLINE
  5
114
330
70
100
AcDbEntity
  8
デジファブ　課題　花びらコースター v2_Sketch2
100
AcDbSpline
210
0.0
220
0.0
230
1.0
 70
    12
 71
     5
 72
    56
 73
    50
 74
     0
 42
0.000000001
 43
0.0000000001
 40
0.0
 40
0.0
 40
0.0
 40
0.0
 40
0.0
 40
0.0
 40
0.0222222222222222
 40
0.0444444444444445
 40
0.0666666666666667
 40
0.0888888888888889
 40
0.1111111111111111
 40
0.1333333333333333
 40
0.1555555555555556
 40
0.1777777777777778
 40
0.2
 40
0.2222222222222222
 40
0.2444444444444445
 40
0.2666666666666666
 40
0.2888888888888888
 40
0.3111111111111111
 40
0.3333333333333333
 40
0.3555555555555554
 40
0.3777777777777777
 40
0.3999999999999999
 40
0.4222222222222221
 40
0.4444444444444443
 40
0.4666666666666665
 40
0.4888888888888887
 40
0.5111111111111109
 40
0.5333333333333332
 40
0.5555555555555554
 40
0.5777777777777776
 40
0.5999999999999999
 40
0.6222222222222222
 40
0.6444444444444444
 40
0.6666666666666666
 40
0.688888888888889
 40
0.7111111111111112
 40
0.7333333333333334
 40
0.7555555555555557
 40
0.7777777777777779
 40
0.8000000000000001
 40
0.8222222222222224
 40
0.8444444444444446
 40
0.8666666666666669
 40
0.8888888888888891
 40
0.9111111111111114
 40
0.9333333333333337
 40
0.9555555555555558
 40
0.9777777777777782
 40
1.0
 40
1.0
 40
1.0
 40
1.0
 40
1.0
 40
1.0
 10
132.557291365867
 20
16.64639261744306
 30
0.0
 41
1.0
 10
132.5629128446112
 20
16.3733809865336
 30
0.0
 41
1.0
 10
132.5725887507555
 20
15.85148692263951
 30
0.0
 41
1.0
 10
132.5823797107016
 20
15.14095488635797
 30
0.0
 41
1.0
 10
132.5861694834392
 20
14.33899427505652
 30
0.0
 41
1.0
 10
132.576707378846
 20
13.57874148962882
 30
0.0
 41
1.0
 10
132.5603660865034
 20
13.07172267026303
 30
0.0
 41
1.0
 10
132.545650021311
 20
12.81672459861667
 30
0.0
 41
1.0
 10
132.5609648489072
 20
12.86187681143425
 30
0.0
 41
1.0
 10
132.579392241669
 20
13.03355662186222
 30
0.0
 41
1.0
 10
132.4977356967455
 20
12.87920112823347
 30
0.0
 41
1.0
 10
132.2833150990487
 20
12.23967499052767
 30
0.0
 41
1.0
 10
131.9410289489338
 20
11.12108072725847
 30
0.0
 41
1.0
 10
131.5037538267694
 20
9.655584541272826
 30
0.0
 41
1.0
 10
131.0132315731985
 20
8.026091894570544
 30
0.0
 41
1.0
 10
130.5051921465707
 20
6.407048202445134
 30
0.0
 41
1.0
 10
129.9923615120373
 20
4.89732564378586
 30
0.0
 41
1.0
 10
129.4706849116169
 20
3.534569561377782
 30
0.0
 41
1.0
 10
128.9255521030528
 20
2.309423195880105
 30
0.0
 41
1.0
 10
128.3379861362486
 20
1.179680660595283
 30
0.0
 41
1.0
 10
127.6908621603383
 20
0.0843792950332865
 30
0.0
 41
1.0
 10
126.9750312973643
 20
-1.042272079339212
 30
0.0
 41
1.0
 10
126.1957073222369
 20
-2.25667483793769
 30
0.0
 41
1.0
 10
125.3782241597118
 20
-3.592445205723498
 30
0.0
 41
1.0
 10
124.5612339837182
 20
-5.063114248604168
 30
0.0
 41
1.0
 10
123.7905083184192
 20
-6.664026279657563
 30
0.0
 41
1.0
 10
123.1125651142284
 20
-8.37447995171901
 30
0.0
 41
1.0
 10
122.5683240902099
 20
-10.15968490631194
 30
0.0
 41
1.0
 10
122.1868571020617
 20
-11.97278507463806
 30
0.0
 41
1.0
 10
121.9787713035828
 20
-13.75670618998276
 30
0.0
 41
1.0
 10
121.9303618350355
 20
-15.4462746920364
 30
0.0
 41
1.0
 10
121.9955700451887
 20
-16.96957556307328
 30
0.0
 41
1.0
 10
122.1058328201684
 20
-18.25532202273786
 30
0.0
 41
1.0
 10
122.1826721688934
 20
-19.24098310219335
 30
0.0
 41
1.0
 10
122.1497804757509
 20
-19.88118488440476
 30
0.0
 41
1.0
 10
121.9441915757759
 20
-20.15491636875904
 30
0.0
 41
1.0
 10
121.5306082022228
 20
-20.0761156372418
 30
0.0
 41
1.0
 10
120.9048394420765
 20
-19.69312456122103
 30
0.0
 41
1.0
 10
120.0799721715252
 20
-19.07053930784133
 30
0.0
 41
1.0
 10
119.0768027316376
 20
-18.27546032943523
 30
0.0
 41
1.0
 10
117.9122788178423
 20
-17.36153183747854
 30
0.0
 41
1.0
 10
116.5998209497824
 20
-16.3702995724046
 30
0.0
 41
1.0
 10
115.1497454813226
 20
-15.33284159388616
 30
0.0
 41
1.0
 10
113.5696657061719
 20
-14.2712868429762
 30
0.0
 41
1.0
 10
111.8648976780945
 20
-13.20035038268661
 30
0.0
 41
1.0
 10
110.0388614881405
 20
-12.1288357515618
 30
0.0
 41
1.0
 10
108.4825587505879
 20
-11.27467128925141
 30
0.0
 41
1.0
 10
107.2620025905588
 20
-10.6364156718273
 30
0.0
 41
1.0
 10
106.4246157121808
 20
-10.21196340978319
 30
0.0
 41
1.0
 10
106.0000015795231
 20
-10.00000014901161
 30
0.0
 41
1.0
  0
LINE
  5
115
330
70
100
AcDbEntity
  8
デジファブ　課題　花びらコースター v2_Sketch2
100
AcDbLine
 10
118.4359484735207
 20
-27.91375057385892
 30
0.0
 11
117.6448898744155
 21
-30.31264032746249
 31
0.0
  0
ARC
  5
116
330
70
100
AcDbEntity
  8
デジファブ　課題　花びらコースター v2_Sketch2
100
AcDbCircle
 10
120.6721638084367
 20
-36.44261377192911
 30
0.0
 40
11.24944785888508
100
AcDbArc
 50
198.4349405697759
 51
230.879143176488
  0
LINE
  5
117
330
70
100
AcDbEntity
  8
デジファブ　課題　花びらコースター v2_Sketch2
100
AcDbLine
 10
159.3863447576995
 20
-18.57280467119787
 30
0.0
 11
156.352429988066
 21
-8.763146916049535
 31
0.0
  0
LINE
  5
118
330
70
100
AcDbEntity
  8
デジファブ　課題　花びらコースター v2_Sketch2
100
AcDbLine
 10
144.9133866378279
 20
-17.83820917765149
 30
0.0
 11
144.9133866378279
 21
-12.50497513193086
 31
0.0
  0
LINE
  5
119
330
70
100
AcDbEntity
  8
デジファブ　課題　花びらコースター v2_Sketch2
100
AcDbLine
 10
128.0000019073486
 20
-32.00000047683716
 30
0.0
 11
124.1845603233154
 21
-29.80941452834755
 31
0.0
  0
LINE
  5
11A
330
70
100
AcDbEntity
  8
デジファブ　課題　花びらコースター v2_Sketch2
100
AcDbLine
 10
120.1248471190755
 20
-43.30169230139208
 30
0.0
 11
123.0000018328428
 21
-47.00000070035457
 31
0.0
  0
ARC
  5
11B
330
70
100
AcDbEntity
  8
デジファブ　課題　花びらコースター v2_Sketch2
100
AcDbCircle
 10
134.2543016158272
 20
-35.98568491335927
 30
0.0
 40
15.43528431945273
100
AcDbArc
 50
262.6478759685739
 51
319.5492836779063
  0
LINE
  5
11C
330
70
100
AcDbEntity
  8
デジファブ　課題　花びらコースター v2_Sketch2
100
AcDbLine
 10
146.0000021755695
 20
-46.00000068545341
 30
0.0
 11
148.0000022053718
 21
-43.00000064074993
 31
0.0
  0
ARC
  5
11D
330
70
100
AcDbEntity
  8
デジファブ　課題　花びらコースター v2_Sketch2
100
AcDbCircle
 10
-43.66007670528228
 20
-170.489576752711
 30
0.0
 40
279.2086683525702
100
AcDbArc
 50
51.46981998517318
 51
53.57782089210384
  0
LINE
  5
11E
330
70
100
AcDbEntity
  8
デジファブ　課題　花びらコースター v2_Sketch2
100
AcDbLine
 10
130.0585019845756
 20
-53.24405047593863
 30
0.0
 11
133.6630966002188
 21
-53.24405047593863
 31
0.0
  0
ARC
  5
11F
330
70
100
AcDbEntity
  8
デジファブ　課題　花びらコースター v2_Sketch2
100
AcDbCircle
 10
139.0000020712614
 20
-37.00000055134296
 30
0.0
 40
10.81665398757267
100
AcDbArc
 50
326.3099324740202
 51
33.69006752597977
  0
LINE
  5
120
330
70
100
AcDbEntity
  8
デジファブ　課題　花びらコースター v2_Sketch2
100
AcDbLine
 10
138.3277826922494
 20
40.23082422261729
 30
0.0
 11
135.157607678248
 21
44.03503423941898
 31
0.0
  0
ARC
  5
121
330
70
100
AcDbEntity
  8
デジファブ　課題　花びらコースター v2_Sketch2
100
AcDbCircle
 10
133.6630966002188
 20
-33.24237190589079
 30
0.0
 40
20.00167857004785
100
AcDbArc
 50
270.0
 51
307.4837961309032
  0
LINE
  5
122
330
70
100
AcDbEntity
  8
デジファブ　課題　花びらコースター v2_Sketch2
100
AcDbLine
 10
118.4359484735207
 20
-40.06131683186369
 30
0.0
 11
120.1248471190755
 21
-43.30169230139207
 31
0.0
  0
LINE
  5
123
330
70
100
AcDbEntity
  8
デジファブ　課題　花びらコースター v2_Sketch2
100
AcDbLine
 10
140.0000020861625
 20
-29.00000043213367
 30
0.0
 11
136.0000020265579
 21
-24.00000035762787
 31
0.0
  0
LINE
  5
124
330
70
100
AcDbEntity
  8
デジファブ　課題　花びらコースター v2_Sketch2
100
AcDbLine
 10
145.8348587866699
 20
-49.1142133521752
 30
0.0
 11
152.4083407875425
 21
-45.27125464397275
 31
0.0
  0
LINE
  5
125
330
70
100
AcDbEntity
  8
デジファブ　課題　花びらコースター v2_Sketch2
100
AcDbLine
 10
148.472342737054
 20
7.351580505974073
 30
0.0
 11
148.472342737054
 21
20.0
 31
0.0
  0
LINE
  5
126
330
70
100
AcDbEntity
  8
デジファブ　課題　花びらコースター v2_Sketch2
100
AcDbLine
 10
148.0000022053718
 20
-31.000000461936
 30
0.0
 11
142.0000021159649
 21
-34.00000050663948
 31
0.0
  0
LINE
  5
127
330
70
100
AcDbEntity
  8
デジファブ　課題　花びらコースター v2_Sketch2
100
AcDbLine
 10
106.0000015795231
 20
-10.00000014901161
 30
0.0
 11
105.0000015646219
 21
-16.00000023841858
 31
0.0
  0
LINE
  5
128
330
70
100
AcDbEntity
  8
デジファブ　課題　花びらコースター v2_Sketch2
100
AcDbLine
 10
107.0000015944242
 20
-31.000000461936
 30
0.0
 11
110.0
 21
-40.0
 31
0.0
  0
LINE
  5
129
330
70
100
AcDbEntity
  8
デジファブ　課題　花びらコースター v2_Sketch2
100
AcDbLine
 10
135.157607678248
 20
44.03503423941898
 30
0.0
 11
130.2664805137887
 21
47.92982068519214
 31
0.0
  0
LINE
  5
12A
330
70
100
AcDbEntity
  8
デジファブ　課題　花びらコースター v2_Sketch2
100
AcDbLine
 10
124.1845603233154
 20
-29.80941452834755
 30
0.0
 11
118.4359484735207
 21
-27.91375057385892
 31
0.0
  0
LINE
  5
12B
330
70
100
AcDbEntity
  8
デジファブ　課題　花びらコースター v2_Sketch2
100
AcDbLine
 10
144.9133866378279
 20
-12.50497513193086
 30
0.0
 11
143.000002130866
 21
-4.000000059604644
 31
0.0
  0
ARC
  5
12C
330
70
100
AcDbEntity
  8
デジファブ　課題　花びらコースター v2_Sketch2
100
AcDbCircle
 10
129.5854290885873
 20
-34.25015609246788
 30
0.0
 40
12.57300708362331
100
AcDbArc
 50
161.7494961289349
 51
207.5287336242483
  0
ARC
  5
12D
330
70
100
AcDbEntity
  8
デジファブ　課題　花びらコースター v2_Sketch2
100
AcDbCircle
 10
144.0603984754508
 20
-30.9918796364475
 30
0.0
 40
16.54051666217074
100
AcDbArc
 50
300.3112132266817
 51
0.6314431043586792
  0
LINE
  5
12E
330
70
100
AcDbEntity
  8
デジファブ　課題　花びらコースター v2_Sketch2
100
AcDbLine
 10
140.0000020861625
 20
2.000000029802322
 30
0.0
 11
136.0000020265579
 21
10.00000014901161
 31
0.0
  0
LINE
  5
12F
330
70
100
AcDbEntity
  8
デジファブ　課題　花びらコースター v2_Sketch2
100
AcDbLine
 10
105.0000015646219
 20
-16.00000023841858
 30
0.0
 11
105.5000015720725
 21
-22.67155708395308
 31
0.0
  0
LINE
  5
130
330
70
100
AcDbEntity
  8
デジファブ　課題　花びらコースター v2_Sketch2
100
AcDbLine
 10
147.0000021904707
 20
-16.00000023841858
 30
0.0
 11
144.9133866378279
 21
-17.83820917765149
 31
0.0
  0
LINE
  5
131
330
70
100
AcDbEntity
  8
デジファブ　課題　花びらコースター v2_Sketch2
100
AcDbLine
 10
143.000002130866
 20
-4.000000059604644
 30
0.0
 11
140.0000020861625
 21
2.000000029802322
 31
0.0
  0
ARC
  5
132
330
70
100
AcDbEntity
  8
デジファブ　課題　花びらコースター v2_Sketch2
100
AcDbCircle
 10
-98.39341469334442
 20
-107.1967082109395
 30
0.0
 40
262.0598066320688
100
AcDbArc
 50
26.56505117707799
 51
28.2016221672735
  0
LINE
  5
133
330
70
100
AcDbEntity
  8
デジファブ　課題　花びらコースター v2_Sketch2
100
AcDbLine
 10
156.352429988066
 20
-8.763146916049535
 30
0.0
 11
152.1049493105791
 21
-12.50497513193086
 31
0.0
  0
LINE
  5
134
330
70
100
AcDbEntity
  8
デジファブ　課題　花びらコースター v2_Sketch2
100
AcDbLine
 10
133.0000019818544
 20
-21.00000031292438
 30
0.0
 11
129.0044508823814
 21
-33.11653201280928
 31
0.0
  0
ARC
  5
135
330
70
100
AcDbEntity
  8
デジファブ　課題　花びらコースター v2_Sketch2
100
AcDbCircle
 10
146.3831695161029
 20
-19.60756696142258
 30
0.0
 40
40.99782258377581
100
AcDbArc
 50
184.2860212091577
 51
196.1336568610922
  0
LINE
  5
136
330
70
100
AcDbEntity
  8
デジファブ　課題　花びらコースター v2_Sketch2
100
AcDbLine
 10
129.0044508823814
 20
-33.11653201280928
 30
0.0
 11
128.0000019073486
 21
-32.00000047683716
 31
0.0
  0
ARC
  5
137
330
70
100
AcDbEntity
  8
デジファブ　課題　花びらコースター v2_Sketch2
100
AcDbCircle
 10
126.4154383512819
 20
24.68079014927795
 30
0.0
 40
19.5884534198031
100
AcDbArc
 50
24.07056349927953
 51
52.54552081065149
  0
ARC
  5
138
330
70
100
AcDbEntity
  8
デジファブ　課題　花びらコースター v2_Sketch2
100
AcDbCircle
 10
131.3541072099993
 20
-40.50531641140267
 30
0.0
 40
10.58168231737248
100
AcDbArc
 50
217.8623614375417
 51
262.6478759685741
  0
ARC
  5
139
330
70
100
AcDbEntity
  8
デジファブ　課題　花びらコースター v2_Sketch2
100
AcDbCircle
 10
132.8478433492018
 20
20.0
 30
0.0
 40
15.62449938785212
100
AcDbArc
 50
0.0
 51
24.07056349927949
  0
LINE
  5
13A
330
70
100
AcDbEntity
  8
デジファブ　課題　花びらコースター v2_Sketch2
100
AcDbLine
 10
160.5999106655529
 20
-30.80959424205303
 30
0.0
 11
160.5999106655529
 21
-25.0
 31
0.0
  0
LINE
  5
13B
330
70
100
AcDbEntity
  8
デジファブ　課題　花びらコースター v2_Sketch2
100
AcDbLine
 10
160.5999106655529
 20
-25.0
 30
0.0
 11
159.3863447576995
 21
-18.57280467119787
 31
0.0
  0
LINE
  5
13C
330
70
100
AcDbEntity
  8
デジファブ　課題　花びらコースター v2_Sketch2
100
AcDbLine
 10
130.0000019371509
 20
-51.00000075995922
 30
0.0
 11
132.2790958538313
 21
-51.29406706890143
 31
0.0
  0
ARC
  5
13D
330
70
100
AcDbEntity
  8
デジファブ　課題　花びらコースター v2_Sketch2
100
AcDbCircle
 10
130.6678524756344
 20
-33.11653201280928
 30
0.0
 40
20.13674024028136
100
AcDbArc
 50
230.8791431764879
 51
268.2659287683041
  0
LINE
  5
13E
330
70
100
AcDbEntity
  8
デジファブ　課題　花びらコースター v2_Sketch2
100
AcDbLine
 10
142.0000021159649
 20
-34.00000050663948
 30
0.0
 11
140.0000020861625
 21
-29.00000043213367
 31
0.0
  0
LINE
  5
13F
330
70
100
AcDbEntity
  8
デジファブ　課題　花びらコースター v2_Sketch2
100
AcDbLine
 10
147.1136963024819
 20
26.37263058998254
 30
0.0
 11
144.3005551241338
 21
32.67016468056946
 31
0.0
  0
ARC
  5
140
330
70
100
AcDbEntity
  8
デジファブ　課題　花びらコースター v2_Sketch2
100
AcDbCircle
 10
135.2822664012609
 20
6.591043305673574
 30
0.0
 40
25.4491764196171
100
AcDbArc
 50
297.4152930326255
 51
311.3785152958826
  0
LINE
  5
141
330
70
100
AcDbEntity
  8
デジファブ　課題　花びらコースター v2_Sketch2
100
AcDbLine
 10
113.5742317362335
 20
-45.17012415165163
 30
0.0
 11
117.9624098464455
 21
-48.73895292318537
 31
0.0
  0
ARC
  5
142
330
70
100
AcDbEntity
  8
デジファブ　課題　花びらコースター v2_Sketch2
100
AcDbCircle
 10
121.0000018030405
 20
-36.0000005364418
 30
0.0
 40
19.2093729985405
100
AcDbArc
 50
38.65980825409009
 51
51.34019174590991
  0
POINT
  5
144
330
70
100
AcDbEntity
  8
デジファブ　課題　花びらコースター v2_Sketch3
100
AcDbPoint
 10
0.0
 20
0.0
 30
0.0
  0
POINT
  5
146
330
70
100
AcDbEntity
  8
デジファブ　課題　花びらコースター v2_Sketch4
100
AcDbPoint
 10
0.0
 20
0.0
 30
0.0
  0
LINE
  5
147
330
70
100
AcDbEntity
  8
デジファブ　課題　花びらコースター v2_Sketch4
100
AcDbLine
 10
-114.9450552463531
 20
-21.80219888687134
 30
0.0
 11
-116.000000834465
 21
-18.46153974533081
 31
0.0
  0
SPLINE
  5
148
330
70
100
AcDbEntity
  8
デジファブ　課題　花びらコースター v2_Sketch4
100
AcDbSpline
210
0.0
220
0.0
230
1.0
 70
     8
 71
     2
 72
     6
 73
     3
 74
     0
 42
0.000000001
 43
0.0000000001
 40
0.0
 40
0.0
 40
0.0
 40
1.0
 40
1.0
 40
1.0
 10
-116.000000834465
 20
-18.46153974533081
 30
0.0
 10
-100.7032966613769
 20
-18.10989141464233
 30
0.0
 10
-88.57142925262451
 20
-16.17582559585571
 30
0.0
  0
LINE
  5
149
330
70
100
AcDbEntity
  8
デジファブ　課題　花びらコースター v2_Sketch4
100
AcDbLine
 10
-88.57142925262451
 20
-16.17582559585571
 30
0.0
 11
-86.28571510314941
 21
-18.81318807601928
 31
0.0
  0
LINE
  5
14A
330
70
100
AcDbEntity
  8
デジファブ　課題　花びらコースター v2_Sketch4
100
AcDbLine
 10
-102.2857141494751
 20
-28.83516788482666
 30
0.0
 11
-118.2857149839401
 21
-28.83516788482666
 31
0.0
  0
SPLINE
  5
14B
330
70
100
AcDbEntity
  8
デジファブ　課題　花びらコースター v2_Sketch4
100
AcDbSpline
210
0.0
220
0.0
230
1.0
 70
     8
 71
     2
 72
     6
 73
     3
 74
     0
 42
0.000000001
 43
0.0000000001
 40
0.0
 40
0.0
 40
0.0
 40
1.0
 40
1.0
 40
1.0
 10
-86.28571510314941
 20
-18.81318807601928
 30
0.0
 10
-84.70329523086547
 20
-20.74725389480591
 30
0.0
 10
-86.98901176452636
 20
-20.04395723342895
 30
0.0
  0
SPLINE
  5
14C
330
70
100
AcDbEntity
  8
デジファブ　課題　花びらコースター v2_Sketch4
100
AcDbSpline
210
0.0
220
0.0
230
1.0
 70
     8
 71
     2
 72
     6
 73
     3
 74
     0
 42
0.000000001
 43
0.0000000001
 40
0.0
 40
0.0
 40
0.0
 40
1.0
 40
1.0
 40
1.0
 10
-86.98901176452636
 20
-20.04395723342895
 30
0.0
 10
-92.96703338623046
 20
-20.57142972946167
 30
0.0
 10
-98.41758251190185
 20
-21.09890222549438
 30
0.0
  0
LINE
  5
14D
330
70
100
AcDbEntity
  8
デジファブ　課題　花びらコースター v2_Sketch4
100
AcDbLine
 10
-98.41758251190185
 20
-25.49450635910034
 30
0.0
 11
-81.53846025466918
 21
-25.49450635910034
 31
0.0
  0
LINE
  5
14E
330
70
100
AcDbEntity
  8
デジファブ　課題　花びらコースター v2_Sketch4
100
AcDbLine
 10
-118.2857149839401
 20
-28.83516788482666
 30
0.0
 11
-118.2857149839401
 21
-25.49450635910034
 31
0.0
  0
LINE
  5
14F
330
70
100
AcDbEntity
  8
デジファブ　課題　花びらコースター v2_Sketch4
100
AcDbLine
 10
-81.53846025466918
 20
-25.49450635910034
 30
0.0
 11
-81.53846025466918
 21
-28.83516788482666
 31
0.0
  0
LINE
  5
150
330
70
100
AcDbEntity
  8
デジファブ　課題　花びらコースター v2_Sketch4
100
AcDbLine
 10
-81.53846025466918
 20
-28.83516788482666
 30
0.0
 11
-97.01098918914794
 21
-28.83516788482666
 31
0.0
  0
LINE
  5
151
330
70
100
AcDbEntity
  8
デジファブ　課題　花びらコースター v2_Sketch4
100
AcDbLine
 10
-98.41758251190185
 20
-21.09890222549439
 30
0.0
 11
-98.41758251190185
 21
-25.49450635910034
 31
0.0
  0
SPLINE
  5
152
330
70
100
AcDbEntity
  8
デジファブ　課題　花びらコースター v2_Sketch4
100
AcDbSpline
210
0.0
220
0.0
230
1.0
 70
     8
 71
     2
 72
     6
 73
     3
 74
     0
 42
0.000000001
 43
0.0000000001
 40
0.0
 40
0.0
 40
0.0
 40
1.0
 40
1.0
 40
1.0
 10
-119.1648361086845
 20
-39.03296947479248
 30
0.0
 10
-104.7472536563873
 20
-36.74725532531738
 30
0.0
 10
-102.2857141494751
 20
-28.83516788482666
 30
0.0
  0
LINE
  5
153
330
70
100
AcDbEntity
  8
デジファブ　課題　花びらコースター v2_Sketch4
100
AcDbLine
 10
-101.9340658187866
 20
-25.49450635910034
 30
0.0
 11
-101.9340658187866
 21
-21.27472639083862
 31
0.0
  0
LINE
  5
154
330
70
100
AcDbEntity
  8
デジファブ　課題　花びらコースター v2_Sketch4
100
AcDbLine
 10
-118.2857149839401
 20
-25.49450635910034
 30
0.0
 11
-101.9340658187866
 21
-25.49450635910034
 31
0.0
  0
SPLINE
  5
155
330
70
100
AcDbEntity
  8
デジファブ　課題　花びらコースター v2_Sketch4
100
AcDbSpline
210
0.0
220
0.0
230
1.0
 70
     8
 71
     2
 72
     6
 73
     3
 74
     0
 42
0.000000001
 43
0.0000000001
 40
0.0
 40
0.0
 40
0.0
 40
1.0
 40
1.0
 40
1.0
 10
-101.9340658187866
 20
-21.27472639083862
 30
0.0
 10
-108.4395611286163
 20
-21.6263747215271
 30
0.0
 10
-114.9450552463531
 20
-21.80219888687134
 30
0.0
  0
LINE
  5
156
330
70
100
AcDbEntity
  8
デジファブ　課題　花びらコースター v2_Sketch4
100
AcDbLine
 10
-100.7032966613769
 20
-10.19780397415161
 30
0.0
 11
-106.6813194751739
 21
-10.19780397415161
 31
0.0
  0
SPLINE
  5
157
330
70
100
AcDbEntity
  8
デジファブ　課題　花びらコースター v2_Sketch4
100
AcDbSpline
210
0.0
220
0.0
230
1.0
 70
     8
 71
     2
 72
     6
 73
     3
 74
     0
 42
0.000000001
 43
0.0000000001
 40
0.0
 40
0.0
 40
0.0
 40
1.0
 40
1.0
 40
1.0
 10
-89.4505500793457
 20
-10.19780397415161
 30
0.0
 10
-87.51648426055908
 20
-12.83516645431518
 30
0.0
 10
-87.1648359298706
 20
-14.41758394241333
 30
0.0
  0
LINE
  5
158
330
70
100
AcDbEntity
  8
デジファブ　課題　花びらコースター v2_Sketch4
100
AcDbLine
 10
-117.2307699918747
 20
-16.35164976119995
 30
0.0
 11
-119.8681327700615
 21
-13.89011144638061
 31
0.0
  0
LINE
  5
159
330
70
100
AcDbEntity
  8
デジファブ　課題　花びらコースター v2_Sketch4
100
AcDbLine
 10
-113.8901102542877
 20
-2.285714149475098
 30
0.0
 11
-110.1978027820587
 21
-2.813186645507812
 31
0.0
  0
LINE
  5
15A
330
70
100
AcDbEntity
  8
デジファブ　課題　花びらコースター v2_Sketch4
100
AcDbLine
 10
-111.7802202701568
 20
-7.384614944458007
 30
0.0
 11
-100.7032966613769
 21
-7.384614944458007
 31
0.0
  0
SPLINE
  5
15B
330
70
100
AcDbEntity
  8
デジファブ　課題　花びらコースター v2_Sketch4
100
AcDbSpline
210
0.0
220
0.0
230
1.0
 70
     8
 71
     2
 72
     6
 73
     3
 74
     0
 42
0.000000001
 43
0.0000000001
 40
0.0
 40
0.0
 40
0.0
 40
1.0
 40
1.0
 40
1.0
 10
-99.47252750396728
 20
-31.296706199646
 30
0.0
 10
-103.1648361682891
 20
-40.26373863220214
 30
0.0
 10
-117.5824183225631
 20
-43.07692527770996
 30
0.0
  0
SPLINE
  5
15C
330
70
100
AcDbEntity
  8
デジファブ　課題　花びらコースター v2_Sketch4
100
AcDbSpline
210
0.0
220
0.0
230
1.0
 70
     8
 71
     2
 72
     6
 73
     3
 74
     0
 42
0.000000001
 43
0.0000000001
 40
0.0
 40
0.0
 40
0.0
 40
1.0
 40
1.0
 40
1.0
 10
-106.6813194751739
 20
-10.19780397415161
 30
0.0
 10
-105.4505503177643
 20
-11.78022146224975
 30
0.0
 10
-104.5714294910431
 20
-14.94505643844604
 30
0.0
  0
LINE
  5
15D
330
70
100
AcDbEntity
  8
デジファブ　課題　花びらコースター v2_Sketch4
100
AcDbLine
 10
-94.90109920501708
 20
-7.384614944458007
 30
0.0
 11
-81.53846025466918
 21
-7.384614944458007
 31
0.0
  0
LINE
  5
15E
330
70
100
AcDbEntity
  8
デジファブ　課題　花びらコースター v2_Sketch4
100
AcDbLine
 10
-81.53846025466918
 20
-7.384614944458007
 30
0.0
 11
-81.53846025466918
 21
-10.19780397415161
 31
0.0
  0
SPLINE
  5
15F
330
70
100
AcDbEntity
  8
デジファブ　課題　花びらコースター v2_Sketch4
100
AcDbSpline
210
0.0
220
0.0
230
1.0
 70
     8
 71
     2
 72
     6
 73
     3
 74
     0
 42
0.000000001
 43
0.0000000001
 40
0.0
 40
0.0
 40
0.0
 40
1.0
 40
1.0
 40
1.0
 10
-81.89010858535766
 20
-42.19780445098876
 30
0.0
 10
-95.95604419708251
 20
-39.38461780548096
 30
0.0
 10
-99.47252750396728
 20
-31.296706199646
 30
0.0
  0
LINE
  5
160
330
70
100
AcDbEntity
  8
デジファブ　課題　花びらコースター v2_Sketch4
100
AcDbLine
 10
-87.1648359298706
 20
-14.41758394241333
 30
0.0
 11
-91.38461589813232
 21
-15.12088060379028
 31
0.0
  0
CIRCLE
  5
161
330
70
100
AcDbEntity
  8
デジファブ　課題　花びらコースター v2_Sketch4
100
AcDbCircle
 10
-170.0
 20
30.0
 30
0.0
 40
2.325311829125867
  0
SPLINE
  5
162
330
70
100
AcDbEntity
  8
デジファブ　課題　花びらコースター v2_Sketch4
100
AcDbSpline
210
0.0
220
0.0
230
1.0
 70
     8
 71
     2
 72
     6
 73
     3
 74
     0
 42
0.000000001
 43
0.0000000001
 40
0.0
 40
0.0
 40
0.0
 40
1.0
 40
1.0
 40
1.0
 10
-102.2857141494751
 20
-14.06593561172485
 30
0.0
 10
-98.59340667724609
 20
-8.967032432556152
 30
0.0
 10
-97.53846168518066
 20
-2.109889984130859
 30
0.0
  0
CIRCLE
  5
163
330
70
100
AcDbEntity
  8
デジファブ　課題　花びらコースター v2_Sketch4
100
AcDbCircle
 10
-150.0
 20
30.0
 30
0.0
 40
2.377510391478224
  0
SPLINE
  5
164
330
70
100
AcDbEntity
  8
デジファブ　課題　花びらコースター v2_Sketch4
100
AcDbSpline
210
0.0
220
0.0
230
1.0
 70
     8
 71
     2
 72
     6
 73
     3
 74
     0
 42
0.000000001
 43
0.0000000001
 40
0.0
 40
0.0
 40
0.0
 40
1.0
 40
1.0
 40
1.0
 10
-108.6153852939605
 20
-16.00000143051147
 30
0.0
 10
-109.1428577899933
 20
-12.83516645431518
 30
0.0
 10
-110.7252752780914
 20
-10.19780397415161
 30
0.0
  0
LINE
  5
165
330
70
100
AcDbEntity
  8
デジファブ　課題　花びらコースター v2_Sketch4
100
AcDbLine
 10
-110.7252752780914
 20
-10.19780397415161
 30
0.0
 11
-113.0109894275665
 21
-10.19780397415161
 31
0.0
  0
SPLINE
  5
166
330
70
100
AcDbEntity
  8
デジファブ　課題　花びらコースター v2_Sketch4
100
AcDbSpline
210
0.0
220
0.0
230
1.0
 70
     8
 71
     2
 72
     6
 73
     3
 74
     0
 42
0.000000001
 43
0.0000000001
 40
0.0
 40
0.0
 40
0.0
 40
1.0
 40
1.0
 40
1.0
 10
-97.01098918914794
 20
-28.83516788482666
 30
0.0
 10
-95.07692337036132
 20
-35.34066200256348
 30
0.0
 10
-80.30769109725952
 20
-38.15384864807129
 30
0.0
  0
LINE
  5
167
330
70
100
AcDbEntity
  8
デジファブ　課題　花びらコースター v2_Sketch4
100
AcDbLine
 10
-97.53846168518066
 20
-2.10988998413086
 30
0.0
 11
-93.67033004760742
 21
-2.813186645507812
 31
0.0
  0
LINE
  5
168
330
70
100
AcDbEntity
  8
デジファブ　課題　花びらコースター v2_Sketch4
100
AcDbLine
 10
-99.47252750396728
 20
-16.52747392654419
 30
0.0
 11
-102.2857141494751
 21
-14.06593561172485
 31
0.0
  0
LINE
  5
169
330
70
100
AcDbEntity
  8
デジファブ　課題　花びらコースター v2_Sketch4
100
AcDbLine
 10
90.0
 20
40.0
 30
0.0
 11
90.0
 21
-45.24011800982693
 31
0.0
  0
LINE
  5
16A
330
70
100
AcDbEntity
  8
デジファブ　課題　花びらコースター v2_Sketch4
100
AcDbLine
 10
-100.7032966613769
 20
-7.384614944458007
 30
0.0
 11
-100.7032966613769
 21
-10.19780397415161
 31
0.0
  0
SPLINE
  5
16B
330
70
100
AcDbEntity
  8
デジファブ　課題　花びらコースター v2_Sketch4
100
AcDbSpline
210
0.0
220
0.0
230
1.0
 70
     8
 71
     2
 72
     6
 73
     3
 74
     0
 42
0.000000001
 43
0.0000000001
 40
0.0
 40
0.0
 40
0.0
 40
1.0
 40
1.0
 40
1.0
 10
-93.67033004760742
 20
-2.813186645507812
 30
0.0
 10
-92.43956089019775
 20
-3.164834976196289
 30
0.0
 10
-93.84615421295166
 20
-3.868131637573242
 30
0.0
  0
SPLINE
  5
16C
330
70
100
AcDbEntity
  8
デジファブ　課題　花びらコースター v2_Sketch4
100
AcDbSpline
210
0.0
220
0.0
230
1.0
 70
     8
 71
     2
 72
     6
 73
     3
 74
     0
 42
0.000000001
 43
0.0000000001
 40
0.0
 40
0.0
 40
0.0
 40
1.0
 40
1.0
 40
1.0
 10
-119.8681327700615
 20
-13.89011144638061
 30
0.0
 10
-114.9450552463531
 20
-8.08791160583496
 30
0.0
 10
-113.8901102542877
 20
-2.285714149475097
 30
0.0
  0
LINE
  5
16D
330
70
100
AcDbEntity
  8
デジファブ　課題　花びらコースター v2_Sketch4
100
AcDbLine
 10
-81.53846025466918
 20
-10.19780397415161
 30
0.0
 11
-89.4505500793457
 21
-10.19780397415161
 31
0.0
  0
SPLINE
  5
16E
330
70
100
AcDbEntity
  8
デジファブ　課題　花びらコースター v2_Sketch4
100
AcDbSpline
210
0.0
220
0.0
230
1.0
 70
     8
 71
     2
 72
     6
 73
     3
 74
     0
 42
0.000000001
 43
0.0000000001
 40
0.0
 40
0.0
 40
0.0
 40
1.0
 40
1.0
 40
1.0
 10
-113.0109894275665
 20
-10.19780397415161
 30
0.0
 10
-114.5934069156647
 20
-13.53846311569214
 30
0.0
 10
-117.2307699918747
 20
-16.35164976119995
 30
0.0
  0
SPLINE
  5
16F
330
70
100
AcDbEntity
  8
デジファブ　課題　花びらコースター v2_Sketch4
100
AcDbSpline
210
0.0
220
0.0
230
1.0
 70
     8
 71
     2
 72
     6
 73
     3
 74
     0
 42
0.000000001
 43
0.0000000001
 40
0.0
 40
0.0
 40
0.0
 40
1.0
 40
1.0
 40
1.0
 10
-91.38461589813232
 20
-15.12088060379028
 30
0.0
 10
-92.26373672485351
 20
-12.48351812362671
 30
0.0
 10
-93.31868171691894
 20
-10.19780397415161
 30
0.0
  0
LINE
  5
170
330
70
100
AcDbEntity
  8
デジファブ　課題　花びらコースター v2_Sketch4
100
AcDbLine
 10
90.0
 20
-45.24011800982693
 30
0.0
 11
193.086689237818
 21
-45.24011800982693
 31
0.0
  0
LINE
  5
171
330
70
100
AcDbEntity
  8
デジファブ　課題　花びらコースター v2_Sketch4
100
AcDbLine
 10
193.086689237818
 20
-45.24011800982693
 30
0.0
 11
193.086689237818
 21
40.0
 31
0.0
  0
LINE
  5
172
330
70
100
AcDbEntity
  8
デジファブ　課題　花びらコースター v2_Sketch4
100
AcDbLine
 10
-104.5714294910431
 20
-14.94505643844604
 30
0.0
 11
-108.6153852939605
 21
-16.00000143051147
 31
0.0
  0
SPLINE
  5
173
330
70
100
AcDbEntity
  8
デジファブ　課題　花びらコースター v2_Sketch4
100
AcDbSpline
210
0.0
220
0.0
230
1.0
 70
     8
 71
     2
 72
     6
 73
     3
 74
     0
 42
0.000000001
 43
0.0000000001
 40
0.0
 40
0.0
 40
0.0
 40
1.0
 40
1.0
 40
1.0
 10
-93.84615421295166
 20
-3.868131637573242
 30
0.0
 10
-94.02197837829589
 20
-5.09890079498291
 30
0.0
 10
-94.90109920501708
 20
-7.384614944458007
 30
0.0
  0
LINE
  5
174
330
70
100
AcDbEntity
  8
デジファブ　課題　花びらコースター v2_Sketch4
100
AcDbLine
 10
193.086689237818
 20
40.0
 30
0.0
 11
89.99999999999998
 21
40.0
 31
0.0
  0
SPLINE
  5
175
330
70
100
AcDbEntity
  8
デジファブ　課題　花びらコースター v2_Sketch4
100
AcDbSpline
210
0.0
220
0.0
230
1.0
 70
     8
 71
     2
 72
     6
 73
     3
 74
     0
 42
0.000000001
 43
0.0000000001
 40
0.0
 40
0.0
 40
0.0
 40
1.0
 40
1.0
 40
1.0
 10
-110.1978027820587
 20
-2.813186645507812
 30
0.0
 10
-108.967033624649
 20
-3.164834976196289
 30
0.0
 10
-110.3736269474029
 20
-3.692307472229003
 30
0.0
  0
SPLINE
  5
176
330
70
100
AcDbEntity
  8
デジファブ　課題　花びらコースター v2_Sketch4
100
AcDbSpline
210
0.0
220
0.0
230
1.0
 70
     8
 71
     2
 72
     6
 73
     3
 74
     0
 42
0.000000001
 43
0.0000000001
 40
0.0
 40
0.0
 40
0.0
 40
1.0
 40
1.0
 40
1.0
 10
-110.3736269474029
 20
-3.692307472229003
 30
0.0
 10
-111.0769236087799
 20
-5.626373291015625
 30
0.0
 10
-111.7802202701568
 20
-7.384614944458007
 30
0.0
  0
SPLINE
  5
177
330
70
100
AcDbEntity
  8
デジファブ　課題　花びらコースター v2_Sketch4
100
AcDbSpline
210
0.0
220
0.0
230
1.0
 70
     8
 71
     2
 72
     6
 73
     3
 74
     0
 42
0.000000001
 43
0.0000000001
 40
0.0
 40
0.0
 40
0.0
 40
1.0
 40
1.0
 40
1.0
 10
-95.95604419708251
 20
-10.19780397415161
 30
0.0
 10
-97.36263751983642
 20
-13.53846311569214
 30
0.0
 10
-99.47252750396728
 20
-16.52747392654419
 30
0.0
  0
LINE
  5
178
330
70
100
AcDbEntity
  8
デジファブ　課題　花びらコースター v2_Sketch4
100
AcDbLine
 10
-117.5824183225631
 20
-43.07692527770996
 30
0.0
 11
-119.1648361086845
 21
-39.03296947479248
 31
0.0
  0
LINE
  5
179
330
70
100
AcDbEntity
  8
デジファブ　課題　花びらコースター v2_Sketch4
100
AcDbLine
 10
-93.31868171691894
 20
-10.19780397415161
 30
0.0
 11
-95.95604419708251
 21
-10.19780397415161
 31
0.0
  0
LINE
  5
17A
330
70
100
AcDbEntity
  8
デジファブ　課題　花びらコースター v2_Sketch4
100
AcDbLine
 10
-80.30769109725952
 20
-38.15384864807129
 30
0.0
 11
-81.89010858535766
 21
-42.19780445098876
 31
0.0
  0
ENDSEC
  0
SECTION
  2
OBJECTS
  0
DICTIONARY
  5
C
330
0
100
AcDbDictionary
281
     1
  3
ACAD_COLOR
350
63
  3
ACAD_DETAILVIEWSTYLE
350
6A
  3
ACAD_GROUP
350
D
  3
ACAD_LAYOUT
350
62
  3
ACAD_MATERIAL
350
10
  3
ACAD_MLEADERSTYLE
350
66
  3
ACAD_MLINESTYLE
350
5F
  3
ACAD_PLOTSETTINGS
350
61
  3
ACAD_PLOTSTYLENAME
350
E
  3
ACAD_SCALELIST
350
42
  3
ACAD_SECTIONVIEWSTYLE
350
68
  3
ACAD_TABLESTYLE
350
64
  3
ACAD_VISUALSTYLE
350
29
  3
ACDB_RECOMPOSE_DATA
350
183
  3
AcDbVariableDictionary
350
17B
  0
DICTIONARY
  5
63
102
{ACAD_REACTORS
330
C
102
}
330
C
100
AcDbDictionary
281
     1
  0
DICTIONARY
  5
6A
102
{ACAD_REACTORS
330
C
102
}
330
C
100
AcDbDictionary
281
     1
  3
Imperial24
350
6B
  0
DICTIONARY
  5
D
102
{ACAD_REACTORS
330
C
102
}
330
C
100
AcDbDictionary
281
     1
  0
DICTIONARY
  5
62
102
{ACAD_REACTORS
330
C
102
}
330
C
100
AcDbDictionary
281
     1
  3
Layout1
350
6F
  3
Layout2
350
77
  3
Model
350
73
  0
DICTIONARY
  5
10
102
{ACAD_REACTORS
330
C
102
}
330
C
100
AcDbDictionary
281
     1
  3
ByBlock
350
19
  3
ByLayer
350
11
  3
Global
350
21
  0
DICTIONARY
  5
66
102
{ACAD_REACTORS
330
C
102
}
330
C
100
AcDbDictionary
281
     1
  3
Standard
350
67
  0
DICTIONARY
  5
5F
102
{ACAD_REACTORS
330
C
102
}
330
C
100
AcDbDictionary
281
     1
  3
Standard
350
60
  0
DICTIONARY
  5
61
102
{ACAD_REACTORS
330
C
102
}
330
C
100
AcDbDictionary
281
     1
  0
ACDBDICTIONARYWDFLT
  5
E
102
{ACAD_REACTORS
330
C
102
}
330
C
100
AcDbDictionary
281
     1
  3
Normal
350
F
100
AcDbDictionaryWithDefault
340
F
  0
DICTIONARY
  5
42
102
{ACAD_REACTORS
330
C
102
}
330
C
100
AcDbDictionary
281
     1
  3
A0
350
43
  3
A1
350
44
  3
A2
350
45
  3
A3
350
46
  3
A4
350
47
  3
A5
350
48
  3
A6
350
49
  3
A7
350
4A
  3
A8
350
4B
  3
A9
350
4C
  3
B0
350
4D
  3
B1
350
4E
  3
B2
350
4F
  3
B3
350
50
  3
B4
350
51
  3
B5
350
52
  3
B6
350
53
  0
DICTIONARY
  5
68
102
{ACAD_REACTORS
330
C
102
}
330
C
100
AcDbDictionary
281
     1
  3
Imperial24
350
69
  0
DICTIONARY
  5
64
102
{ACAD_REACTORS
330
C
102
}
330
C
100
AcDbDictionary
281
     1
  3
Standard
350
65
  0
DICTIONARY
  5
29
102
{ACAD_REACTORS
330
C
102
}
330
C
100
AcDbDictionary
281
     1
  3
2dWireframe
350
2F
  3
Basic
350
2E
  3
Brighten
350
35
  3
ColorChange
350
39
  3
Conceptual
350
32
  3
Dim
350
34
  3
EdgeColorOff
350
41
  3
Facepattern
350
38
  3
Flat
350
2A
  3
FlatWithEdges
350
2B
  3
Gouraud
350
2C
  3
GouraudWithEdges
350
2D
  3
Hidden
350
31
  3
JitterOff
350
3F
  3
Linepattern
350
37
  3
OverhangOff
350
40
  3
Realistic
350
33
  3
Shaded
350
3E
  3
Shaded with edges
350
3D
  3
Shades of Gray
350
3A
  3
Sketchy
350
3B
  3
Thicken
350
36
  3
Wireframe
350
30
  3
X-Ray
350
3C
  0
XRECORD
  5
183
102
{ACAD_REACTORS
330
C
102
}
330
C
100
AcDbXrecord
280
     1
 90
        1
330
65
  0
DICTIONARY
  5
17B
102
{ACAD_REACTORS
330
C
102
}
330
C
100
AcDbDictionary
281
     1
  3
CANNOSCALE
350
180
  3
CMLEADERSTYLE
350
17D
  3
CTABLESTYLE
350
17C
  3
CVIEWDETAILSTYLE
350
17E
  3
CVIEWSECTIONSTYLE
350
17F
  0
ACDBDETAILVIEWSTYLE
  5
6B
102
{ACAD_XDICTIONARY
360
186
102
}
102
{ACAD_REACTORS
330
6A
102
}
330
6A
100
AcDbModelDocViewStyle
 70
     0
  3
Imperial24
290
     0
100
AcDbDetailViewStyle
 70
     0
 71
     0
 90
        3
 71
     1
340
55
 62
   256
 40
0.24
340
0
 62
   256
 40
0.24
300

 40
0.36
280
     3
 71
     2
340
5D
 90
       25
 62
   256
 71
     3
340
55
 62
   256
 40
0.24
 90
        1
 40
0.75
 90
        1
300
%<\AcVar ViewType \f "%tc1">% %<\AcVar ViewDetailId>%\PSCALE %<\AcVar ViewScale \f "%sn">%
 71
     4
340
5D
 90
       25
 62
   256
340
5D
 90
       25
 62
   256
280
     0
  0
LAYOUT
  5
6F
102
{ACAD_REACTORS
330
62
102
}
330
62
100
AcDbPlotSettings
  1

  2

  4

  6

 40
0.0
 41
0.0
 42
0.0
 43
0.0
 44
0.0
 45
0.0
 46
0.0
 47
0.0
 48
0.0
 49
0.0
140
0.0
141
0.0
142
1.0
143
1.0
 70
   688
 72
     0
 73
     0
 74
     5
  7

 75
    16
147
1.0
 76
     0
 77
     2
 78
   300
148
0.0
149
0.0
100
AcDbLayout
  1
Layout1
 70
     1
 71
     1
 10
0.0
 20
0.0
 11
12.0
 21
9.0
 12
0.0
 22
0.0
 32
0.0
 14
0.0
 24
0.0
 34
0.0
 15
0.0
 25
0.0
 35
0.0
146
0.0
 13
0.0
 23
0.0
 33
0.0
 16
1.0
 26
0.0
 36
0.0
 17
0.0
 27
1.0
 37
0.0
 76
     0
330
6C
  0
LAYOUT
  5
77
102
{ACAD_REACTORS
330
62
102
}
330
62
100
AcDbPlotSettings
  1

  2

  4

  6

 40
0.0
 41
0.0
 42
0.0
 43
0.0
 44
0.0
 45
0.0
 46
0.0
 47
0.0
 48
0.0
 49
0.0
140
0.0
141
0.0
142
1.0
143
1.0
 70
   688
 72
     0
 73
     0
 74
     5
  7

 75
    16
147
1.0
 76
     0
 77
     2
 78
   300
148
0.0
149
0.0
100
AcDbLayout
  1
Layout2
 70
     1
 71
     2
 10
0.0
 20
0.0
 11
12.0
 21
9.0
 12
0.0
 22
0.0
 32
0.0
 14
0.0
 24
0.0
 34
0.0
 15
0.0
 25
0.0
 35
0.0
146
0.0
 13
0.0
 23
0.0
 33
0.0
 16
1.0
 26
0.0
 36
0.0
 17
0.0
 27
1.0
 37
0.0
 76
     0
330
74
  0
LAYOUT
  5
73
102
{ACAD_REACTORS
330
62
102
}
330
62
100
AcDbPlotSettings
  1

  2

  4

  6

 40
0.0
 41
0.0
 42
0.0
 43
0.0
 44
0.0
 45
0.0
 46
0.0
 47
0.0
 48
0.0
 49
0.0
140
0.0
141
0.0
142
1.0
143
1.0
 70
  1712
 72
     0
 73
     0
 74
     0
  7

 75
     0
147
1.0
 76
     0
 77
     2
 78
   300
148
0.0
149
0.0
100
AcDbLayout
  1
Model
 70
     1
 71
     0
 10
0.0
 20
0.0
 11
12.0
 21
9.0
 12
0.0
 22
0.0
 32
0.0
 14
0.0
 24
0.0
 34
0.0
 15
0.0
 25
0.0
 35
0.0
146
0.0
 13
0.0
 23
0.0
 33
0.0
 16
1.0
 26
0.0
 36
0.0
 17
0.0
 27
1.0
 37
0.0
 76
     0
330
70
  0
MATERIAL
  5
19
102
{ACAD_XDICTIONARY
360
1A
102
}
102
{ACAD_REACTORS
330
10
102
}
330
10
100
AcDbMaterial
  1
ByBlock
 72
     0
 43
0.0208333333333333
 43
0.0
 43
0.0
 43
0.0
 43
0.0
 43
0.0208333333333333
 43
0.0
 43
0.0
 43
0.0
 43
0.0
 43
1.0
 43
0.0
 43
0.0
 43
0.0
 43
0.0
 43
1.0
 77
     0
 47
0.0208333333333333
 47
0.0
 47
0.0
 47
0.0
 47
0.0
 47
0.0208333333333333
 47
0.0
 47
0.0
 47
0.0
 47
0.0
 47
1.0
 47
0.0
 47
0.0
 47
0.0
 47
0.0
 47
1.0
171
     0
 49
0.0208333333333333
 49
0.0
 49
0.0
 49
0.0
 49
0.0
 49
0.0208333333333333
 49
0.0
 49
0.0
 49
0.0
 49
0.0
 49
1.0
 49
0.0
 49
0.0
 49
0.0
 49
0.0
 49
1.0
175
     0
142
0.0208333333333333
142
0.0
142
0.0
142
0.0
142
0.0
142
0.0208333333333333
142
0.0
142
0.0
142
0.0
142
0.0
142
1.0
142
0.0
142
0.0
142
0.0
142
0.0
142
1.0
179
     0
144
0.0208333333333333
144
0.0
144
0.0
144
0.0
144
0.0
144
0.0208333333333333
144
0.0
144
0.0
144
0.0
144
0.0
144
1.0
144
0.0
144
0.0
144
0.0
144
0.0
144
1.0
147
0.0208333333333333
147
0.0
147
0.0
147
0.0
147
0.0
147
0.0208333333333333
147
0.0
147
0.0
147
0.0
147
0.0
147
1.0
147
0.0
147
0.0
147
0.0
147
0.0
147
1.0
  0
MATERIAL
  5
11
102
{ACAD_XDICTIONARY
360
12
102
}
102
{ACAD_REACTORS
330
10
102
}
330
10
100
AcDbMaterial
  1
ByLayer
 72
     0
 43
0.0208333333333333
 43
0.0
 43
0.0
 43
0.0
 43
0.0
 43
0.0208333333333333
 43
0.0
 43
0.0
 43
0.0
 43
0.0
 43
1.0
 43
0.0
 43
0.0
 43
0.0
 43
0.0
 43
1.0
 77
     0
 47
0.0208333333333333
 47
0.0
 47
0.0
 47
0.0
 47
0.0
 47
0.0208333333333333
 47
0.0
 47
0.0
 47
0.0
 47
0.0
 47
1.0
 47
0.0
 47
0.0
 47
0.0
 47
0.0
 47
1.0
171
     0
 49
0.0208333333333333
 49
0.0
 49
0.0
 49
0.0
 49
0.0
 49
0.0208333333333333
 49
0.0
 49
0.0
 49
0.0
 49
0.0
 49
1.0
 49
0.0
 49
0.0
 49
0.0
 49
0.0
 49
1.0
175
     0
142
0.0208333333333333
142
0.0
142
0.0
142
0.0
142
0.0
142
0.0208333333333333
142
0.0
142
0.0
142
0.0
142
0.0
142
1.0
142
0.0
142
0.0
142
0.0
142
0.0
142
1.0
179
     0
144
0.0208333333333333
144
0.0
144
0.0
144
0.0
144
0.0
144
0.0208333333333333
144
0.0
144
0.0
144
0.0
144
0.0
144
1.0
144
0.0
144
0.0
144
0.0
144
0.0
144
1.0
147
0.0208333333333333
147
0.0
147
0.0
147
0.0
147
0.0
147
0.0208333333333333
147
0.0
147
0.0
147
0.0
147
0.0
147
1.0
147
0.0
147
0.0
147
0.0
147
0.0
147
1.0
  0
MATERIAL
  5
21
102
{ACAD_XDICTIONARY
360
22
102
}
102
{ACAD_REACTORS
330
10
102
}
330
10
100
AcDbMaterial
  1
Global
 72
     0
 43
0.0208333333333333
 43
0.0
 43
0.0
 43
0.0
 43
0.0
 43
0.0208333333333333
 43
0.0
 43
0.0
 43
0.0
 43
0.0
 43
1.0
 43
0.0
 43
0.0
 43
0.0
 43
0.0
 43
1.0
 77
     0
 47
0.0208333333333333
 47
0.0
 47
0.0
 47
0.0
 47
0.0
 47
0.0208333333333333
 47
0.0
 47
0.0
 47
0.0
 47
0.0
 47
1.0
 47
0.0
 47
0.0
 47
0.0
 47
0.0
 47
1.0
171
     0
 49
0.0208333333333333
 49
0.0
 49
0.0
 49
0.0
 49
0.0
 49
0.0208333333333333
 49
0.0
 49
0.0
 49
0.0
 49
0.0
 49
1.0
 49
0.0
 49
0.0
 49
0.0
 49
0.0
 49
1.0
175
     0
142
0.0208333333333333
142
0.0
142
0.0
142
0.0
142
0.0
142
0.0208333333333333
142
0.0
142
0.0
142
0.0
142
0.0
142
1.0
142
0.0
142
0.0
142
0.0
142
0.0
142
1.0
179
     0
144
0.0208333333333333
144
0.0
144
0.0
144
0.0
144
0.0
144
0.0208333333333333
144
0.0
144
0.0
144
0.0
144
0.0
144
1.0
144
0.0
144
0.0
144
0.0
144
0.0
144
1.0
147
0.0208333333333333
147
0.0
147
0.0
147
0.0
147
0.0
147
0.0208333333333333
147
0.0
147
0.0
147
0.0
147
0.0
147
1.0
147
0.0
147
0.0
147
0.0
147
0.0
147
1.0
  0
MLEADERSTYLE
  5
67
102
{ACAD_REACTORS
330
66
102
}
330
66
100
AcDbMLeaderStyle
179
     2
170
     2
171
     1
172
     0
 90
        2
 40
0.0
 41
0.0
173
     1
 91
-1056964608
340
5B
 92
       -2
290
     1
 42
0.09
291
     1
 43
0.36
  3
Standard
 44
0.18
300

342
55
174
     1
178
     6
175
     1
176
     0
 93
-1056964608
 45
0.18
292
     0
297
     0
 46
0.18
 94
-1056964608
 47
1.0
 49
1.0
140
1.0
293
     1
141
0.0
294
     1
177
     0
142
1.0
295
     0
296
     0
143
0.125
271
     0
272
     9
273
     9
298
     1
  0
MLINESTYLE
  5
60
102
{ACAD_REACTORS
330
5F
102
}
330
5F
100
AcDbMlineStyle
  2
STANDARD
 70
     0
  3

 62
   256
 51
90.0
 52
90.0
 71
     2
 49
0.5
 62
   256
  6
BYLAYER
 49
-0.5
 62
   256
  6
BYLAYER
  0
ACDBPLACEHOLDER
  5
F
102
{ACAD_REACTORS
330
E
102
}
330
E
  0
SCALE
  5
43
102
{ACAD_REACTORS
330
42
102
}
330
42
100
AcDbScale
 70
     0
300
1:1
140
1.0
141
1.0
290
     1
  0
SCALE
  5
44
102
{ACAD_REACTORS
330
42
102
}
330
42
100
AcDbScale
 70
     0
300
1/128" = 1'-0"
140
0.0078125
141
12.0
290
     0
  0
SCALE
  5
45
102
{ACAD_REACTORS
330
42
102
}
330
42
100
AcDbScale
 70
     0
300
1/64" = 1'-0"
140
0.015625
141
12.0
290
     0
  0
SCALE
  5
46
102
{ACAD_REACTORS
330
42
102
}
330
42
100
AcDbScale
 70
     0
300
1/32" = 1'-0"
140
0.03125
141
12.0
290
     0
  0
SCALE
  5
47
102
{ACAD_REACTORS
330
42
102
}
330
42
100
AcDbScale
 70
     0
300
1/16" = 1'-0"
140
0.0625
141
12.0
290
     0
  0
SCALE
  5
48
102
{ACAD_REACTORS
330
42
102
}
330
42
100
AcDbScale
 70
     0
300
3/32" = 1'-0"
140
0.09375
141
12.0
290
     0
  0
SCALE
  5
49
102
{ACAD_REACTORS
330
42
102
}
330
42
100
AcDbScale
 70
     0
300
1/8" = 1'-0"
140
0.125
141
12.0
290
     0
  0
SCALE
  5
4A
102
{ACAD_REACTORS
330
42
102
}
330
42
100
AcDbScale
 70
     0
300
3/16" = 1'-0"
140
0.1875
141
12.0
290
     0
  0
SCALE
  5
4B
102
{ACAD_REACTORS
330
42
102
}
330
42
100
AcDbScale
 70
     0
300
1/4" = 1'-0"
140
0.25
141
12.0
290
     0
  0
SCALE
  5
4C
102
{ACAD_REACTORS
330
42
102
}
330
42
100
AcDbScale
 70
     0
300
3/8" = 1'-0"
140
0.375
141
12.0
290
     0
  0
SCALE
  5
4D
102
{ACAD_REACTORS
330
42
102
}
330
42
100
AcDbScale
 70
     0
300
1/2" = 1'-0"
140
0.5
141
12.0
290
     0
  0
SCALE
  5
4E
102
{ACAD_REACTORS
330
42
102
}
330
42
100
AcDbScale
 70
     0
300
3/4" = 1'-0"
140
0.75
141
12.0
290
     0
  0
SCALE
  5
4F
102
{ACAD_REACTORS
330
42
102
}
330
42
100
AcDbScale
 70
     0
300
1" = 1'-0"
140
1.0
141
12.0
290
     0
  0
SCALE
  5
50
102
{ACAD_REACTORS
330
42
102
}
330
42
100
AcDbScale
 70
     0
300
1-1/2" = 1'-0"
140
1.5
141
12.0
290
     0
  0
SCALE
  5
51
102
{ACAD_REACTORS
330
42
102
}
330
42
100
AcDbScale
 70
     0
300
3" = 1'-0"
140
3.0
141
12.0
290
     0
  0
SCALE
  5
52
102
{ACAD_REACTORS
330
42
102
}
330
42
100
AcDbScale
 70
     0
300
6" = 1'-0"
140
6.0
141
12.0
290
     0
  0
SCALE
  5
53
102
{ACAD_REACTORS
330
42
102
}
330
42
100
AcDbScale
 70
     0
300
1'-0" = 1'-0"
140
12.0
141
12.0
290
     0
  0
ACDBSECTIONVIEWSTYLE
  5
69
102
{ACAD_XDICTIONARY
360
184
102
}
102
{ACAD_REACTORS
330
68
102
}
330
68
100
AcDbModelDocViewStyle
 70
     0
  3
Imperial24
290
     0
100
AcDbSectionViewStyle
 70
     0
 71
     0
 90
       78
 71
     1
340
55
 62
   256
 40
0.24
340
0
340
0
 62
   256
 40
0.24
300
I, O, Q, S, X, Z
 40
0.48
 90
        3
 40
0.18
 90
        1
 71
     2
340
5D
 90
       25
 62
   256
340
5D
 90
       50
 62
   256
 40
0.24
 40
0.0
 40
0.24
 71
     3
340
55
 62
   256
 40
0.24
 90
        1
 40
0.75
 90
        1
300
%<\AcVar ViewType \f "%tc1">% %<\AcVar ViewSectionStartId>%-%<\AcVar ViewSectionEndId>%\PSCALE %<\AcVar ViewScale \f "%sn">%
 71
     4
 62
   256
 62
   257
300
ANSI31
 40
1.0
 90
        0
290
     0
290
     0
 90
        6
 40
0.0
 40
1.570796326794896
 40
0.2617993877991494
 40
1.308996938995747
 40
-0.2617993877991494
 40
1.832595714594046
  0
TABLESTYLE
  5
65
102
{ACAD_XDICTIONARY
360
181
102
}
102
{ACAD_REACTORS
330
64
102
}
330
64
100
AcDbTableStyle
280
     0
  3
Standard
 70
     0
 71
     0
 40
0.06
 41
0.06
280
     0
281
     0
  7
Standard
140
0.18
170
     2
 62
     0
 63
     7
283
     0
 90
      512
 91
        0
  1

274
    -2
284
     1
 64
     0
275
    -2
285
     1
 65
     0
276
    -2
286
     1
 66
     0
277
    -2
287
     1
 67
     0
278
    -2
288
     1
 68
     0
279
    -2
289
     1
 69
     0
  7
Standard
140
0.25
170
     5
 62
     0
 63
     7
283
     0
 90
      512
 91
        0
  1

274
    -2
284
     1
 64
     0
275
    -2
285
     1
 65
     0
276
    -2
286
     1
 66
     0
277
    -2
287
     1
 67
     0
278
    -2
288
     1
 68
     0
279
    -2
289
     1
 69
     0
  7
Standard
140
0.18
170
     5
 62
     0
 63
     7
283
     0
 90
      512
 91
        0
  1

274
    -2
284
     1
 64
     0
275
    -2
285
     1
 65
     0
276
    -2
286
     1
 66
     0
277
    -2
287
     1
 67
     0
278
    -2
288
     1
 68
     0
279
    -2
289
     1
 69
     0
  0
VISUALSTYLE
  5
2F
102
{ACAD_REACTORS
330
29
102
}
330
29
100
AcDbVisualStyle
  2
2dWireframe
 70
     4
177
     3
291
     0
 70
    58
 90
        0
176
     1
 90
        2
176
     1
 90
        0
176
     1
 90
        0
176
     1
 40
0.6
176
     1
 40
30.0
176
     1
 62
     7
420
 16777215
176
     1
 90
        1
176
     1
 90
        4
176
     1
 62
     7
176
     1
 62
   257
176
     1
 90
        1
176
     1
 90
        1
176
     1
 40
1.0
176
     1
 90
        0
176
     1
 62
   257
176
     1
 40
1.0
176
     1
 90
        1
176
     1
 90
        6
176
     1
 90
        2
176
     1
 62
     7
176
     1
 90
        5
176
     1
 90
        0
176
     1
 90
        0
176
     1
290
     0
176
     1
 90
        1
176
     1
 40
0.0
176
     1
 90
        0
176
     1
290
     1
176
     1
290
     1
176
     1
290
     0
176
     1
290
     0
176
     1
290
     0
176
     1
290
     0
176
     1
290
     0
176
     1
290
     0
176
     1
290
     0
176
     1
 90
       50
176
     1
 40
0.0
176
     1
 40
1.0
176
     1
 90
        0
176
     1
 62
    18
420
        0
176
     1
 90
       50
176
     1
 90
        3
176
     1
 62
     5
420
      255
176
     1
290
     0
176
     1
 90
       50
176
     1
 90
       50
176
     1
 90
       50
176
     1
290
     0
176
     1
 90
       50
176
     1
 62
   256
176
     0
 40
1.0
176
     0
 90
        2
176
     1
  1
strokes_ogs.tif
176
     1
290
     0
176
     1
 40
1.0
176
     1
 40
1.0
176
     1
1001
ACAD
1000
AcDbSavedByObjectVersion
1070
     0
  0
VISUALSTYLE
  5
2E
102
{ACAD_REACTORS
330
29
102
}
330
29
100
AcDbVisualStyle
  2
Basic
 70
     7
177
     3
291
     1
 70
    58
 90
        1
176
     1
 90
        0
176
     1
 90
        1
176
     1
 90
        0
176
     1
 40
0.6
176
     1
 40
30.0
176
     1
 62
     7
420
 16777215
176
     1
 90
        0
176
     1
 90
        4
176
     1
 62
     7
176
     1
 62
   257
176
     1
 90
        1
176
     1
 90
        1
176
     1
 40
1.0
176
     1
 90
        8
176
     1
 62
     7
176
     1
 40
1.0
176
     1
 90
        1
176
     1
 90
        6
176
     1
 90
        2
176
     1
 62
     7
176
     1
 90
        5
176
     1
 90
        0
176
     1
 90
        0
176
     1
290
     0
176
     1
 90
        1
176
     1
 40
0.0
176
     1
 90
        0
176
     1
290
     0
176
     1
290
     1
176
     1
290
     1
176
     1
290
     0
176
     1
290
     0
176
     1
290
     0
176
     1
290
     0
176
     1
290
     0
176
     1
290
     0
176
     1
 90
       50
176
     1
 40
0.0
176
     1
 40
1.0
176
     1
 90
        0
176
     1
 62
    18
420
        0
176
     1
 90
       50
176
     1
 90
        3
176
     1
 62
     5
420
      255
176
     1
290
     0
176
     1
 90
       50
176
     1
 90
       50
176
     1
 90
       50
176
     1
290
     0
176
     1
 90
       50
176
     1
 62
   256
176
     0
 40
1.0
176
     0
 90
        2
176
     1
  1
strokes_ogs.tif
176
     1
290
     0
176
     1
 40
1.0
176
     1
 40
1.0
176
     1
1001
ACAD
1000
AcDbSavedByObjectVersion
1070
     0
  0
VISUALSTYLE
  5
35
102
{ACAD_REACTORS
330
29
102
}
330
29
100
AcDbVisualStyle
  2
Brighten
 70
    12
177
     3
291
     1
 70
    58
 90
        2
176
     1
 90
        2
176
     1
 90
        0
176
     1
 90
        0
176
     1
 40
0.6
176
     1
 40
30.0
176
     1
 62
     7
420
 16777215
176
     1
 90
        1
176
     1
 90
        4
176
     1
 62
     7
176
     1
 62
   257
176
     1
 90
        1
176
     1
 90
        1
176
     1
 40
1.0
176
     1
 90
        8
176
     1
 62
     7
176
     1
 40
1.0
176
     1
 90
        1
176
     1
 90
        6
176
     1
 90
        2
176
     1
 62
     7
176
     1
 90
        5
176
     1
 90
        0
176
     1
 90
        0
176
     1
290
     0
176
     1
 90
        1
176
     1
 40
50.0
176
     1
 90
        0
176
     1
290
     0
176
     1
290
     1
176
     1
290
     1
176
     1
290
     0
176
     1
290
     0
176
     1
290
     0
176
     1
290
     0
176
     1
290
     0
176
     1
290
     0
176
     1
 90
       50
176
     1
 40
0.0
176
     1
 40
1.0
176
     1
 90
        0
176
     1
 62
    18
420
        0
176
     1
 90
       50
176
     1
 90
        3
176
     1
 62
     5
420
      255
176
     1
290
     0
176
     1
 90
       50
176
     1
 90
       50
176
     1
 90
       50
176
     1
290
     0
176
     1
 90
       50
176
     1
 62
   256
176
     0
 40
1.0
176
     0
 90
        2
176
     1
  1
strokes_ogs.tif
176
     1
290
     0
176
     1
 40
1.0
176
     1
 40
1.0
176
     1
1001
ACAD
1000
AcDbSavedByObjectVersion
1070
     0
  0
VISUALSTYLE
  5
39
102
{ACAD_REACTORS
330
29
102
}
330
29
100
AcDbVisualStyle
  2
ColorChange
 70
    16
177
     3
291
     1
 70
    58
 90
        2
176
     1
 90
        2
176
     1
 90
        3
176
     1
 90
        0
176
     1
 40
0.6
176
     1
 40
30.0
176
     1
 62
     8
420
  8421504
176
     1
 90
        1
176
     1
 90
        4
176
     1
 62
     7
176
     1
 62
   257
176
     1
 90
        1
176
     1
 90
        1
176
     1
 40
1.0
176
     1
 90
        8
176
     1
 62
     8
420
  8421504
176
     1
 40
1.0
176
     1
 90
        1
176
     1
 90
        6
176
     1
 90
        2
176
     1
 62
     7
176
     1
 90
        5
176
     1
 90
        0
176
     1
 90
        0
176
     1
290
     0
176
     1
 90
        1
176
     1
 40
0.0
176
     1
 90
        0
176
     1
290
     0
176
     1
290
     1
176
     1
290
     1
176
     1
290
     0
176
     1
290
     0
176
     1
290
     0
176
     1
290
     0
176
     1
290
     0
176
     1
290
     0
176
     1
 90
       50
176
     1
 40
0.0
176
     1
 40
1.0
176
     1
 90
        0
176
     1
 62
    18
420
        0
176
     1
 90
       50
176
     1
 90
        3
176
     1
 62
     5
420
      255
176
     1
290
     0
176
     1
 90
       50
176
     1
 90
       50
176
     1
 90
       50
176
     1
290
     0
176
     1
 90
       50
176
     1
 62
   256
176
     0
 40
1.0
176
     0
 90
        2
176
     1
  1
strokes_ogs.tif
176
     1
290
     0
176
     1
 40
1.0
176
     1
 40
1.0
176
     1
1001
ACAD
1000
AcDbSavedByObjectVersion
1070
     0
  0
VISUALSTYLE
  5
32
102
{ACAD_REACTORS
330
29
102
}
330
29
100
AcDbVisualStyle
  2
Conceptual
 70
     9
177
     3
291
     0
 70
    58
 90
        3
176
     1
 90
        2
176
     1
 90
        0
176
     1
 90
        0
176
     1
 40
0.6
176
     1
 40
30.0
176
     1
 62
     7
420
 16777215
176
     1
 90
        2
176
     1
 90
        2
176
     1
 62
     7
176
     1
 62
   257
176
     1
 90
        1
176
     1
 90
        1
176
     1
 40
179.0
176
     1
 90
        8
176
     1
 62
     7
176
     1
 40
1.0
176
     1
 90
        1
176
     1
 90
        6
176
     1
 90
        2
176
     1
 62
     7
176
     1
 90
        3
176
     1
 90
        0
176
     1
 90
        0
176
     1
290
     0
176
     1
 90
        1
176
     1
 40
0.0
176
     1
 90
        0
176
     1
290
     0
176
     1
290
     1
176
     1
290
     1
176
     1
290
     0
176
     1
290
     0
176
     1
290
     0
176
     1
290
     0
176
     1
290
     0
176
     1
290
     0
176
     1
 90
       50
176
     1
 40
0.0
176
     1
 40
1.0
176
     1
 90
        0
176
     1
 62
    18
420
        0
176
     1
 90
       50
176
     1
 90
        3
176
     1
 62
     5
420
      255
176
     1
290
     0
176
     1
 90
       50
176
     1
 90
       50
176
     1
 90
       50
176
     1
290
     0
176
     1
 90
       50
176
     1
 62
   256
176
     0
 40
1.0
176
     0
 90
        2
176
     1
  1
strokes_ogs.tif
176
     1
290
     0
176
     1
 40
1.0
176
     1
 40
1.0
176
     1
1001
ACAD
1000
AcDbSavedByObjectVersion
1070
     0
  0
VISUALSTYLE
  5
34
102
{ACAD_REACTORS
330
29
102
}
330
29
100
AcDbVisualStyle
  2
Dim
 70
    11
177
     3
291
     1
 70
    58
 90
        2
176
     1
 90
        2
176
     1
 90
        0
176
     1
 90
        0
176
     1
 40
0.6
176
     1
 40
30.0
176
     1
 62
     7
420
 16777215
176
     1
 90
        1
176
     1
 90
        4
176
     1
 62
     7
176
     1
 62
   257
176
     1
 90
        1
176
     1
 90
        1
176
     1
 40
1.0
176
     1
 90
        8
176
     1
 62
     7
176
     1
 40
1.0
176
     1
 90
        1
176
     1
 90
        6
176
     1
 90
        2
176
     1
 62
     7
176
     1
 90
        5
176
     1
 90
        0
176
     1
 90
        0
176
     1
290
     0
176
     1
 90
        1
176
     1
 40
-50.0
176
     1
 90
        0
176
     1
290
     0
176
     1
290
     1
176
     1
290
     1
176
     1
290
     0
176
     1
290
     0
176
     1
290
     0
176
     1
290
     0
176
     1
290
     0
176
     1
290
     0
176
     1
 90
       50
176
     1
 40
0.0
176
     1
 40
1.0
176
     1
 90
        0
176
     1
 62
    18
420
        0
176
     1
 90
       50
176
     1
 90
        3
176
     1
 62
     5
420
      255
176
     1
290
     0
176
     1
 90
       50
176
     1
 90
       50
176
     1
 90
       50
176
     1
290
     0
176
     1
 90
       50
176
     1
 62
   256
176
     0
 40
1.0
176
     0
 90
        2
176
     1
  1
strokes_ogs.tif
176
     1
290
     0
176
     1
 40
1.0
176
     1
 40
1.0
176
     1
1001
ACAD
1000
AcDbSavedByObjectVersion
1070
     0
  0
VISUALSTYLE
  5
41
102
{ACAD_REACTORS
330
29
102
}
330
29
100
AcDbVisualStyle
  2
EdgeColorOff
 70
    22
177
     3
291
     1
 70
    58
 90
        2
176
     0
 90
        2
176
     0
 90
        0
176
     0
 90
        0
176
     0
 40
0.6
176
     0
 40
30.0
176
     0
 62
     7
420
 16777215
176
     0
 90
        1
176
     0
 90
        4
176
     0
 62
     7
176
     0
 62
   257
176
     0
 90
        1
176
     0
 90
        1
176
     0
 40
1.0
176
     0
 90
        8
176
     2
 62
     7
176
     0
 40
1.0
176
     0
 90
        1
176
     0
 90
        6
176
     0
 90
        2
176
     0
 62
     7
176
     0
 90
        5
176
     0
 90
        0
176
     0
 90
        0
176
     0
290
     0
176
     0
 90
        1
176
     0
 40
0.0
176
     0
 90
        0
176
     0
290
     0
176
     0
290
     1
176
     0
290
     1
176
     0
290
     0
176
     0
290
     0
176
     0
290
     0
176
     0
290
     0
176
     0
290
     0
176
     0
290
     0
176
     0
 90
       50
176
     0
 40
0.0
176
     0
 40
1.0
176
     0
 90
        0
176
     0
 62
    18
420
        0
176
     0
 90
       50
176
     0
 90
        3
176
     0
 62
     5
420
      255
176
     0
290
     0
176
     0
 90
       50
176
     0
 90
       50
176
     0
 90
       50
176
     0
290
     0
176
     0
 90
       50
176
     0
 62
   256
176
     0
 40
1.0
176
     0
 90
        2
176
     0
  1
strokes_ogs.tif
176
     0
290
     0
176
     0
 40
1.0
176
     0
 40
1.0
176
     0
1001
ACAD
1000
AcDbSavedByObjectVersion
1070
     0
  0
VISUALSTYLE
  5
38
102
{ACAD_REACTORS
330
29
102
}
330
29
100
AcDbVisualStyle
  2
Facepattern
 70
    15
177
     3
291
     1
 70
    58
 90
        2
176
     1
 90
        2
176
     1
 90
        0
176
     1
 90
        0
176
     1
 40
0.6
176
     1
 40
30.0
176
     1
 62
     7
420
 16777215
176
     1
 90
        1
176
     1
 90
        4
176
     1
 62
     7
176
     1
 62
   257
176
     1
 90
        1
176
     1
 90
        1
176
     1
 40
1.0
176
     1
 90
        8
176
     1
 62
     7
176
     1
 40
1.0
176
     1
 90
        1
176
     1
 90
        6
176
     1
 90
        2
176
     1
 62
     7
176
     1
 90
        5
176
     1
 90
        0
176
     1
 90
        0
176
     1
290
     0
176
     1
 90
        1
176
     1
 40
0.0
176
     1
 90
        0
176
     1
290
     0
176
     1
290
     1
176
     1
290
     1
176
     1
290
     0
176
     1
290
     0
176
     1
290
     0
176
     1
290
     0
176
     1
290
     0
176
     1
290
     0
176
     1
 90
       50
176
     1
 40
0.0
176
     1
 40
1.0
176
     1
 90
        0
176
     1
 62
    18
420
        0
176
     1
 90
       50
176
     1
 90
        3
176
     1
 62
     5
420
      255
176
     1
290
     0
176
     1
 90
       50
176
     1
 90
       50
176
     1
 90
       50
176
     1
290
     0
176
     1
 90
       50
176
     1
 62
   256
176
     0
 40
1.0
176
     0
 90
        2
176
     1
  1
strokes_ogs.tif
176
     1
290
     0
176
     1
 40
1.0
176
     1
 40
1.0
176
     1
1001
ACAD
1000
AcDbSavedByObjectVersion
1070
     0
  0
VISUALSTYLE
  5
2A
102
{ACAD_REACTORS
330
29
102
}
330
29
100
AcDbVisualStyle
  2
Flat
 70
     0
177
     3
291
     1
 70
    58
 90
        2
176
     1
 90
        1
176
     1
 90
        1
176
     1
 90
        2
176
     1
 40
0.6
176
     1
 40
30.0
176
     1
 62
     7
420
 16777215
176
     1
 90
        0
176
     1
 90
        0
176
     1
 62
     7
176
     1
 62
   257
176
     1
 90
        1
176
     1
 90
        1
176
     1
 40
1.0
176
     1
 90
        8
176
     1
 62
     7
176
     1
 40
1.0
176
     1
 90
        1
176
     1
 90
        6
176
     1
 90
        2
176
     1
 62
     7
176
     1
 90
        5
176
     1
 90
        0
176
     1
 90
        0
176
     1
290
     0
176
     1
 90
       13
176
     1
 40
0.0
176
     1
 90
        0
176
     1
290
     0
176
     1
290
     1
176
     1
290
     1
176
     1
290
     0
176
     1
290
     0
176
     1
290
     0
176
     1
290
     0
176
     1
290
     0
176
     1
290
     0
176
     1
 90
       50
176
     1
 40
0.0
176
     1
 40
1.0
176
     1
 90
        0
176
     1
 62
    18
420
        0
176
     1
 90
       50
176
     1
 90
        3
176
     1
 62
     5
420
      255
176
     1
290
     0
176
     1
 90
       50
176
     1
 90
       50
176
     1
 90
       50
176
     1
290
     0
176
     1
 90
       50
176
     1
 62
   256
176
     0
 40
1.0
176
     0
 90
        2
176
     1
  1
strokes_ogs.tif
176
     1
290
     0
176
     1
 40
1.0
176
     1
 40
1.0
176
     1
1001
ACAD
1000
AcDbSavedByObjectVersion
1070
     0
  0
VISUALSTYLE
  5
2B
102
{ACAD_REACTORS
330
29
102
}
330
29
100
AcDbVisualStyle
  2
FlatWithEdges
 70
     1
177
     3
291
     1
 70
    58
 90
        2
176
     1
 90
        1
176
     1
 90
        1
176
     1
 90
        2
176
     1
 40
0.6
176
     1
 40
30.0
176
     1
 62
     7
420
 16777215
176
     1
 90
        1
176
     1
 90
        0
176
     1
 62
     7
176
     1
 62
   257
176
     1
 90
        1
176
     1
 90
        1
176
     1
 40
1.0
176
     1
 90
        0
176
     1
 62
   257
176
     1
 40
1.0
176
     1
 90
        1
176
     1
 90
        6
176
     1
 90
        2
176
     1
 62
     7
176
     1
 90
        5
176
     1
 90
        0
176
     1
 90
        0
176
     1
290
     0
176
     1
 90
       13
176
     1
 40
0.0
176
     1
 90
        0
176
     1
290
     0
176
     1
290
     1
176
     1
290
     1
176
     1
290
     0
176
     1
290
     0
176
     1
290
     0
176
     1
290
     0
176
     1
290
     0
176
     1
290
     0
176
     1
 90
       50
176
     1
 40
0.0
176
     1
 40
1.0
176
     1
 90
        0
176
     1
 62
    18
420
        0
176
     1
 90
       50
176
     1
 90
        3
176
     1
 62
     5
420
      255
176
     1
290
     0
176
     1
 90
       50
176
     1
 90
       50
176
     1
 90
       50
176
     1
290
     0
176
     1
 90
       50
176
     1
 62
   256
176
     0
 40
1.0
176
     0
 90
        2
176
     1
  1
strokes_ogs.tif
176
     1
290
     0
176
     1
 40
1.0
176
     1
 40
1.0
176
     1
1001
ACAD
1000
AcDbSavedByObjectVersion
1070
     0
  0
VISUALSTYLE
  5
2C
102
{ACAD_REACTORS
330
29
102
}
330
29
100
AcDbVisualStyle
  2
Gouraud
 70
     2
177
     3
291
     1
 70
    58
 90
        2
176
     1
 90
        2
176
     1
 90
        1
176
     1
 90
        2
176
     1
 40
0.6
176
     1
 40
30.0
176
     1
 62
     7
420
 16777215
176
     1
 90
        0
176
     1
 90
        0
176
     1
 62
     7
176
     1
 62
   257
176
     1
 90
        1
176
     1
 90
        1
176
     1
 40
1.0
176
     1
 90
        0
176
     1
 62
     7
176
     1
 40
1.0
176
     1
 90
        1
176
     1
 90
        6
176
     1
 90
        2
176
     1
 62
     7
176
     1
 90
        5
176
     1
 90
        0
176
     1
 90
        0
176
     1
290
     0
176
     1
 90
       13
176
     1
 40
0.0
176
     1
 90
        0
176
     1
290
     0
176
     1
290
     1
176
     1
290
     1
176
     1
290
     0
176
     1
290
     0
176
     1
290
     0
176
     1
290
     0
176
     1
290
     0
176
     1
290
     0
176
     1
 90
       50
176
     1
 40
0.0
176
     1
 40
1.0
176
     1
 90
        0
176
     1
 62
    18
420
        0
176
     1
 90
       50
176
     1
 90
        3
176
     1
 62
     5
420
      255
176
     1
290
     0
176
     1
 90
       50
176
     1
 90
       50
176
     1
 90
       50
176
     1
290
     0
176
     1
 90
       50
176
     1
 62
   256
176
     0
 40
1.0
176
     0
 90
        2
176
     1
  1
strokes_ogs.tif
176
     1
290
     0
176
     1
 40
1.0
176
     1
 40
1.0
176
     1
1001
ACAD
1000
AcDbSavedByObjectVersion
1070
     0
  0
VISUALSTYLE
  5
2D
102
{ACAD_REACTORS
330
29
102
}
330
29
100
AcDbVisualStyle
  2
GouraudWithEdges
 70
     3
177
     3
291
     1
 70
    58
 90
        2
176
     1
 90
        2
176
     1
 90
        1
176
     1
 90
        2
176
     1
 40
0.6
176
     1
 40
30.0
176
     1
 62
     7
420
 16777215
176
     1
 90
        1
176
     1
 90
        0
176
     1
 62
     7
176
     1
 62
   257
176
     1
 90
        1
176
     1
 90
        1
176
     1
 40
1.0
176
     1
 90
        0
176
     1
 62
   257
176
     1
 40
1.0
176
     1
 90
        1
176
     1
 90
        6
176
     1
 90
        2
176
     1
 62
     7
176
     1
 90
        5
176
     1
 90
        0
176
     1
 90
        0
176
     1
290
     0
176
     1
 90
       13
176
     1
 40
0.0
176
     1
 90
        0
176
     1
290
     0
176
     1
290
     1
176
     1
290
     1
176
     1
290
     0
176
     1
290
     0
176
     1
290
     0
176
     1
290
     0
176
     1
290
     0
176
     1
290
     0
176
     1
 90
       50
176
     1
 40
0.0
176
     1
 40
1.0
176
     1
 90
        0
176
     1
 62
    18
420
        0
176
     1
 90
       50
176
     1
 90
        3
176
     1
 62
     5
420
      255
176
     1
290
     0
176
     1
 90
       50
176
     1
 90
       50
176
     1
 90
       50
176
     1
290
     0
176
     1
 90
       50
176
     1
 62
   256
176
     0
 40
1.0
176
     0
 90
        2
176
     1
  1
strokes_ogs.tif
176
     1
290
     0
176
     1
 40
1.0
176
     1
 40
1.0
176
     1
1001
ACAD
1000
AcDbSavedByObjectVersion
1070
     0
  0
VISUALSTYLE
  5
31
102
{ACAD_REACTORS
330
29
102
}
330
29
100
AcDbVisualStyle
  2
Hidden
 70
     6
177
     3
291
     0
 70
    58
 90
        1
176
     1
 90
        2
176
     1
 90
        2
176
     1
 90
        0
176
     1
 40
0.6
176
     1
 40
30.0
176
     1
 62
     7
420
 16777215
176
     1
 90
        2
176
     1
 90
        2
176
     1
 62
     7
176
     1
 62
   257
176
     1
 90
        2
176
     1
 90
        1
176
     1
 40
40.0
176
     1
 90
        0
176
     1
 62
   257
176
     1
 40
1.0
176
     1
 90
        1
176
     1
 90
        6
176
     1
 90
        2
176
     1
 62
     7
176
     1
 90
        3
176
     1
 90
        0
176
     1
 90
        0
176
     1
290
     0
176
     1
 90
        1
176
     1
 40
0.0
176
     1
 90
        0
176
     1
290
     0
176
     1
290
     1
176
     1
290
     1
176
     1
290
     0
176
     1
290
     0
176
     1
290
     0
176
     1
290
     0
176
     1
290
     0
176
     1
290
     0
176
     1
 90
       50
176
     1
 40
0.0
176
     1
 40
1.0
176
     1
 90
        0
176
     1
 62
    18
420
        0
176
     1
 90
       50
176
     1
 90
        3
176
     1
 62
     5
420
      255
176
     1
290
     0
176
     1
 90
       50
176
     1
 90
       50
176
     1
 90
       50
176
     1
290
     0
176
     1
 90
       50
176
     1
 62
   256
176
     0
 40
1.0
176
     0
 90
        2
176
     1
  1
strokes_ogs.tif
176
     1
290
     0
176
     1
 40
1.0
176
     1
 40
1.0
176
     1
1001
ACAD
1000
AcDbSavedByObjectVersion
1070
     0
  0
VISUALSTYLE
  5
3F
102
{ACAD_REACTORS
330
29
102
}
330
29
100
AcDbVisualStyle
  2
JitterOff
 70
    20
177
     3
291
     1
 70
    58
 90
        2
176
     0
 90
        2
176
     0
 90
        0
176
     0
 90
        0
176
     0
 40
0.6
176
     0
 40
30.0
176
     0
 62
     7
420
 16777215
176
     0
 90
        1
176
     0
 90
        4
176
     0
 62
     7
176
     0
 62
   257
176
     0
 90
        1
176
     0
 90
        1
176
     0
 40
1.0
176
     0
 90
       10
176
     2
 62
     7
176
     0
 40
1.0
176
     0
 90
        1
176
     0
 90
        6
176
     0
 90
        2
176
     0
 62
     7
176
     0
 90
        5
176
     0
 90
        0
176
     0
 90
        0
176
     0
290
     0
176
     0
 90
        1
176
     0
 40
0.0
176
     0
 90
        0
176
     0
290
     0
176
     0
290
     1
176
     0
290
     1
176
     0
290
     0
176
     0
290
     0
176
     0
290
     0
176
     0
290
     0
176
     0
290
     0
176
     0
290
     0
176
     0
 90
       50
176
     0
 40
0.0
176
     0
 40
1.0
176
     0
 90
        0
176
     0
 62
    18
420
        0
176
     0
 90
       50
176
     0
 90
        3
176
     0
 62
     5
420
      255
176
     0
290
     0
176
     0
 90
       50
176
     0
 90
       50
176
     0
 90
       50
176
     0
290
     0
176
     0
 90
       50
176
     0
 62
   256
176
     0
 40
1.0
176
     0
 90
        2
176
     0
  1
strokes_ogs.tif
176
     0
290
     0
176
     0
 40
1.0
176
     0
 40
1.0
176
     0
1001
ACAD
1000
AcDbSavedByObjectVersion
1070
     0
  0
VISUALSTYLE
  5
37
102
{ACAD_REACTORS
330
29
102
}
330
29
100
AcDbVisualStyle
  2
Linepattern
 70
    14
177
     3
291
     1
 70
    58
 90
        2
176
     1
 90
        2
176
     1
 90
        0
176
     1
 90
        0
176
     1
 40
0.6
176
     1
 40
30.0
176
     1
 62
     7
420
 16777215
176
     1
 90
        1
176
     1
 90
        4
176
     1
 62
     7
176
     1
 62
   257
176
     1
 90
        7
176
     1
 90
        7
176
     1
 40
1.0
176
     1
 90
        8
176
     1
 62
     7
176
     1
 40
1.0
176
     1
 90
        1
176
     1
 90
        6
176
     1
 90
        2
176
     1
 62
     7
176
     1
 90
        5
176
     1
 90
        0
176
     1
 90
        0
176
     1
290
     0
176
     1
 90
        1
176
     1
 40
0.0
176
     1
 90
        0
176
     1
290
     0
176
     1
290
     1
176
     1
290
     1
176
     1
290
     0
176
     1
290
     0
176
     1
290
     0
176
     1
290
     0
176
     1
290
     0
176
     1
290
     0
176
     1
 90
       50
176
     1
 40
0.0
176
     1
 40
1.0
176
     1
 90
        0
176
     1
 62
    18
420
        0
176
     1
 90
       50
176
     1
 90
        3
176
     1
 62
     5
420
      255
176
     1
290
     0
176
     1
 90
       50
176
     1
 90
       50
176
     1
 90
       50
176
     1
290
     0
176
     1
 90
       50
176
     1
 62
   256
176
     0
 40
1.0
176
     0
 90
        2
176
     1
  1
strokes_ogs.tif
176
     1
290
     0
176
     1
 40
1.0
176
     1
 40
1.0
176
     1
1001
ACAD
1000
AcDbSavedByObjectVersion
1070
     0
  0
VISUALSTYLE
  5
40
102
{ACAD_REACTORS
330
29
102
}
330
29
100
AcDbVisualStyle
  2
OverhangOff
 70
    21
177
     3
291
     1
 70
    58
 90
        2
176
     0
 90
        2
176
     0
 90
        0
176
     0
 90
        0
176
     0
 40
0.6
176
     0
 40
30.0
176
     0
 62
     7
420
 16777215
176
     0
 90
        1
176
     0
 90
        4
176
     0
 62
     7
176
     0
 62
   257
176
     0
 90
        1
176
     0
 90
        1
176
     0
 40
1.0
176
     0
 90
        9
176
     2
 62
     7
176
     0
 40
1.0
176
     0
 90
        1
176
     0
 90
        6
176
     0
 90
        2
176
     0
 62
     7
176
     0
 90
        5
176
     0
 90
        0
176
     0
 90
        0
176
     0
290
     0
176
     0
 90
        1
176
     0
 40
0.0
176
     0
 90
        0
176
     0
290
     0
176
     0
290
     1
176
     0
290
     1
176
     0
290
     0
176
     0
290
     0
176
     0
290
     0
176
     0
290
     0
176
     0
290
     0
176
     0
290
     0
176
     0
 90
       50
176
     0
 40
0.0
176
     0
 40
1.0
176
     0
 90
        0
176
     0
 62
    18
420
        0
176
     0
 90
       50
176
     0
 90
        3
176
     0
 62
     5
420
      255
176
     0
290
     0
176
     0
 90
       50
176
     0
 90
       50
176
     0
 90
       50
176
     0
290
     0
176
     0
 90
       50
176
     0
 62
   256
176
     0
 40
1.0
176
     0
 90
        2
176
     0
  1
strokes_ogs.tif
176
     0
290
     0
176
     0
 40
1.0
176
     0
 40
1.0
176
     0
1001
ACAD
1000
AcDbSavedByObjectVersion
1070
     0
  0
VISUALSTYLE
  5
33
102
{ACAD_REACTORS
330
29
102
}
330
29
100
AcDbVisualStyle
  2
Realistic
 70
     8
177
     3
291
     0
 70
    58
 90
        2
176
     1
 90
        3
176
     1
 90
        0
176
     1
 90
        2
176
     1
 40
0.6
176
     1
 40
30.0
176
     1
 62
     7
420
 16777215
176
     1
 90
        0
176
     1
 90
        0
176
     1
 62
     7
176
     1
 62
   257
176
     1
 90
        1
176
     1
 90
        1
176
     1
 40
1.0
176
     1
 90
        8
176
     1
 62
   257
176
     1
 40
1.0
176
     1
 90
        1
176
     1
 90
        6
176
     1
 90
        2
176
     1
 62
     7
176
     1
 90
        3
176
     1
 90
        0
176
     1
 90
        0
176
     1
290
     0
176
     1
 90
       13
176
     1
 40
0.0
176
     1
 90
        0
176
     1
290
     0
176
     1
290
     1
176
     1
290
     1
176
     1
290
     0
176
     1
290
     0
176
     1
290
     0
176
     1
290
     0
176
     1
290
     0
176
     1
290
     0
176
     1
 90
       50
176
     1
 40
0.0
176
     1
 40
1.0
176
     1
 90
        0
176
     1
 62
    18
420
        0
176
     1
 90
       50
176
     1
 90
        3
176
     1
 62
     5
420
      255
176
     1
290
     0
176
     1
 90
       50
176
     1
 90
       50
176
     1
 90
       50
176
     1
290
     0
176
     1
 90
       50
176
     1
 62
   256
176
     0
 40
1.0
176
     0
 90
        2
176
     1
  1
strokes_ogs.tif
176
     1
290
     0
176
     1
 40
1.0
176
     1
 40
1.0
176
     1
1001
ACAD
1000
AcDbSavedByObjectVersion
1070
     0
  0
VISUALSTYLE
  5
3E
102
{ACAD_REACTORS
330
29
102
}
330
29
100
AcDbVisualStyle
  2
Shaded
 70
    27
177
     3
291
     0
 70
    58
 90
        2
176
     1
 90
        2
176
     1
 90
        1
176
     1
 90
        2
176
     1
 40
0.6
176
     1
 40
30.0
176
     1
 62
     7
420
 16777215
176
     1
 90
        0
176
     1
 90
        4
176
     1
 62
     7
176
     1
 62
   257
176
     1
 90
        1
176
     1
 90
        1
176
     1
 40
1.0
176
     1
 90
        8
176
     1
 62
   257
176
     1
 40
1.0
176
     1
 90
        1
176
     1
 90
        6
176
     1
 90
        2
176
     1
 62
     8
420
  7895160
176
     1
 90
        3
176
     1
 90
        0
176
     1
 90
        0
176
     1
290
     0
176
     1
 90
        5
176
     1
 40
0.0
176
     1
 90
        0
176
     1
290
     0
176
     1
290
     1
176
     1
290
     1
176
     1
290
     0
176
     1
290
     0
176
     1
290
     0
176
     1
290
     0
176
     1
290
     0
176
     1
290
     0
176
     1
 90
       50
176
     1
 40
0.0
176
     1
 40
1.0
176
     1
 90
        0
176
     1
 62
    18
420
        0
176
     1
 90
       50
176
     1
 90
        3
176
     1
 62
     5
420
      255
176
     1
290
     0
176
     1
 90
       50
176
     1
 90
       50
176
     1
 90
       50
176
     1
290
     0
176
     1
 90
       50
176
     1
 62
   256
176
     0
 40
1.0
176
     0
 90
        2
176
     1
  1
strokes_ogs.tif
176
     1
290
     0
176
     1
 40
1.0
176
     1
 40
1.0
176
     1
1001
ACAD
1000
AcDbSavedByObjectVersion
1070
     0
  0
VISUALSTYLE
  5
3D
102
{ACAD_REACTORS
330
29
102
}
330
29
100
AcDbVisualStyle
  2
Shaded with edges
 70
    26
177
     3
291
     0
 70
    58
 90
        2
176
     1
 90
        2
176
     1
 90
        1
176
     1
 90
        2
176
     1
 40
0.6
176
     1
 40
30.0
176
     1
 62
     7
420
 16777215
176
     1
 90
        1
176
     1
 90
        2
176
     1
 62
     7
176
     1
 62
   257
176
     1
 90
        2
176
     1
 90
        1
176
     1
 40
1.0
176
     1
 90
        8
176
     1
 62
   257
176
     1
 40
1.0
176
     1
 90
        1
176
     1
 90
        6
176
     1
 90
        2
176
     1
 62
     7
176
     1
 90
        3
176
     1
 90
        0
176
     1
 90
        0
176
     1
290
     0
176
     1
 90
        5
176
     1
 40
0.0
176
     1
 90
        0
176
     1
290
     0
176
     1
290
     1
176
     1
290
     1
176
     1
290
     0
176
     1
290
     0
176
     1
290
     0
176
     1
290
     0
176
     1
290
     0
176
     1
290
     0
176
     1
 90
       50
176
     1
 40
0.0
176
     1
 40
1.0
176
     1
 90
        0
176
     1
 62
    18
420
        0
176
     1
 90
       50
176
     1
 90
        3
176
     1
 62
     5
420
      255
176
     1
290
     0
176
     1
 90
       50
176
     1
 90
       50
176
     1
 90
       50
176
     1
290
     0
176
     1
 90
       50
176
     1
 62
   256
176
     0
 40
1.0
176
     0
 90
        2
176
     1
  1
strokes_ogs.tif
176
     1
290
     0
176
     1
 40
1.0
176
     1
 40
1.0
176
     1
1001
ACAD
1000
AcDbSavedByObjectVersion
1070
     0
  0
VISUALSTYLE
  5
3A
102
{ACAD_REACTORS
330
29
102
}
330
29
100
AcDbVisualStyle
  2
Shades of Gray
 70
    23
177
     3
291
     0
 70
    58
 90
        2
176
     1
 90
        2
176
     1
 90
        3
176
     1
 90
        0
176
     1
 40
0.6
176
     1
 40
30.0
176
     1
 62
     7
420
 16777215
176
     1
 90
        2
176
     1
 90
        2
176
     1
 62
     7
176
     1
 62
     7
176
     1
 90
        1
176
     1
 90
        1
176
     1
 40
40.0
176
     1
 90
        8
176
     1
 62
     7
176
     1
 40
1.0
176
     1
 90
        1
176
     1
 90
        6
176
     1
 90
        2
176
     1
 62
     7
176
     1
 90
        3
176
     1
 90
        0
176
     1
 90
        0
176
     1
290
     0
176
     1
 90
        1
176
     1
 40
0.0
176
     1
 90
        0
176
     1
290
     0
176
     1
290
     1
176
     1
290
     1
176
     1
290
     0
176
     1
290
     0
176
     1
290
     0
176
     1
290
     0
176
     1
290
     0
176
     1
290
     0
176
     1
 90
       50
176
     1
 40
0.0
176
     1
 40
1.0
176
     1
 90
        0
176
     1
 62
    18
420
        0
176
     1
 90
       50
176
     1
 90
        3
176
     1
 62
     5
420
      255
176
     1
290
     0
176
     1
 90
       50
176
     1
 90
       50
176
     1
 90
       50
176
     1
290
     0
176
     1
 90
       50
176
     1
 62
   256
176
     0
 40
1.0
176
     0
 90
        2
176
     1
  1
strokes_ogs.tif
176
     1
290
     0
176
     1
 40
1.0
176
     1
 40
1.0
176
     1
1001
ACAD
1000
AcDbSavedByObjectVersion
1070
     0
  0
VISUALSTYLE
  5
3B
102
{ACAD_REACTORS
330
29
102
}
330
29
100
AcDbVisualStyle
  2
Sketchy
 70
    24
177
     3
291
     0
 70
    58
 90
        1
176
     1
 90
        2
176
     1
 90
        2
176
     1
 90
        0
176
     1
 40
0.6
176
     1
 40
30.0
176
     1
 62
     7
420
 16777215
176
     1
 90
        2
176
     1
 90
        2
176
     1
 62
     7
176
     1
 62
     7
176
     1
 90
        1
176
     1
 90
        1
176
     1
 40
40.0
176
     1
 90
       11
176
     1
 62
     7
176
     1
 40
1.0
176
     1
 90
        1
176
     1
 90
        6
176
     1
 90
        2
176
     1
 62
     7
176
     1
 90
        6
176
     1
 90
        0
176
     1
 90
        0
176
     1
290
     0
176
     1
 90
        1
176
     1
 40
0.0
176
     1
 90
        0
176
     1
290
     0
176
     1
290
     1
176
     1
290
     1
176
     1
290
     0
176
     1
290
     0
176
     1
290
     0
176
     1
290
     0
176
     1
290
     0
176
     1
290
     0
176
     1
 90
       50
176
     1
 40
0.0
176
     1
 40
1.0
176
     1
 90
        0
176
     1
 62
    18
420
        0
176
     1
 90
       50
176
     1
 90
        3
176
     1
 62
     5
420
      255
176
     1
290
     0
176
     1
 90
       50
176
     1
 90
       50
176
     1
 90
       50
176
     1
290
     0
176
     1
 90
       50
176
     1
 62
   256
176
     0
 40
1.0
176
     0
 90
        2
176
     1
  1
strokes_ogs.tif
176
     1
290
     0
176
     1
 40
1.0
176
     1
 40
1.0
176
     1
1001
ACAD
1000
AcDbSavedByObjectVersion
1070
     0
  0
VISUALSTYLE
  5
36
102
{ACAD_REACTORS
330
29
102
}
330
29
100
AcDbVisualStyle
  2
Thicken
 70
    13
177
     3
291
     1
 70
    58
 90
        2
176
     1
 90
        2
176
     1
 90
        0
176
     1
 90
        0
176
     1
 40
0.6
176
     1
 40
30.0
176
     1
 62
     7
420
 16777215
176
     1
 90
        1
176
     1
 90
        4
176
     1
 62
     7
176
     1
 62
   257
176
     1
 90
        1
176
     1
 90
        1
176
     1
 40
1.0
176
     1
 90
       12
176
     1
 62
     7
176
     1
 40
1.0
176
     1
 90
        1
176
     1
 90
        6
176
     1
 90
        2
176
     1
 62
     7
176
     1
 90
        5
176
     1
 90
        0
176
     1
 90
        0
176
     1
290
     0
176
     1
 90
        1
176
     1
 40
0.0
176
     1
 90
        0
176
     1
290
     0
176
     1
290
     1
176
     1
290
     1
176
     1
290
     0
176
     1
290
     0
176
     1
290
     0
176
     1
290
     0
176
     1
290
     0
176
     1
290
     0
176
     1
 90
       50
176
     1
 40
0.0
176
     1
 40
1.0
176
     1
 90
        0
176
     1
 62
    18
420
        0
176
     1
 90
       50
176
     1
 90
        3
176
     1
 62
     5
420
      255
176
     1
290
     0
176
     1
 90
       50
176
     1
 90
       50
176
     1
 90
       50
176
     1
290
     0
176
     1
 90
       50
176
     1
 62
   256
176
     0
 40
1.0
176
     0
 90
        2
176
     1
  1
strokes_ogs.tif
176
     1
290
     0
176
     1
 40
1.0
176
     1
 40
1.0
176
     1
1001
ACAD
1000
AcDbSavedByObjectVersion
1070
     0
  0
VISUALSTYLE
  5
30
102
{ACAD_REACTORS
330
29
102
}
330
29
100
AcDbVisualStyle
  2
Wireframe
 70
     5
177
     3
291
     0
 70
    58
 90
        0
176
     1
 90
        2
176
     1
 90
        0
176
     1
 90
        0
176
     1
 40
0.6
176
     1
 40
30.0
176
     1
 62
     7
420
 16777215
176
     1
 90
        1
176
     1
 90
        4
176
     1
 62
     7
176
     1
 62
   257
176
     1
 90
        1
176
     1
 90
        1
176
     1
 40
1.0
176
     1
 90
        0
176
     1
 62
   257
176
     1
 40
1.0
176
     1
 90
        1
176
     1
 90
        6
176
     1
 90
        2
176
     1
 62
     7
176
     1
 90
        3
176
     1
 90
        0
176
     1
 90
        0
176
     1
290
     0
176
     1
 90
        1
176
     1
 40
0.0
176
     1
 90
        0
176
     1
290
     0
176
     1
290
     1
176
     1
290
     1
176
     1
290
     0
176
     1
290
     0
176
     1
290
     0
176
     1
290
     0
176
     1
290
     0
176
     1
290
     0
176
     1
 90
       50
176
     1
 40
0.0
176
     1
 40
1.0
176
     1
 90
        0
176
     1
 62
    18
420
        0
176
     1
 90
       50
176
     1
 90
        3
176
     1
 62
     5
420
      255
176
     1
290
     0
176
     1
 90
       50
176
     1
 90
       50
176
     1
 90
       50
176
     1
290
     0
176
     1
 90
       50
176
     1
 62
   256
176
     0
 40
1.0
176
     0
 90
        2
176
     1
  1
strokes_ogs.tif
176
     1
290
     0
176
     1
 40
1.0
176
     1
 40
1.0
176
     1
1001
ACAD
1000
AcDbSavedByObjectVersion
1070
     0
  0
VISUALSTYLE
  5
3C
102
{ACAD_REACTORS
330
29
102
}
330
29
100
AcDbVisualStyle
  2
X-Ray
 70
    25
177
     3
291
     0
 70
    58
 90
        2
176
     1
 90
        2
176
     1
 90
        1
176
     1
 90
        1
176
     1
 40
0.5
176
     1
 40
30.0
176
     1
 62
     7
420
 16777215
176
     1
 90
        1
176
     1
 90
        0
176
     1
 62
     7
176
     1
 62
   257
176
     1
 90
        1
176
     1
 90
        1
176
     1
 40
1.0
176
     1
 90
        8
176
     1
 62
     7
176
     1
 40
1.0
176
     1
 90
        1
176
     1
 90
        6
176
     1
 90
        2
176
     1
 62
     7
176
     1
 90
        3
176
     1
 90
        0
176
     1
 90
        0
176
     1
290
     0
176
     1
 90
       13
176
     1
 40
0.0
176
     1
 90
        0
176
     1
290
     0
176
     1
290
     1
176
     1
290
     1
176
     1
290
     0
176
     1
290
     0
176
     1
290
     0
176
     1
290
     0
176
     1
290
     0
176
     1
290
     0
176
     1
 90
       50
176
     1
 40
0.0
176
     1
 40
1.0
176
     1
 90
        0
176
     1
 62
    18
420
        0
176
     1
 90
       50
176
     1
 90
        3
176
     1
 62
     5
420
      255
176
     1
290
     0
176
     1
 90
       50
176
     1
 90
       50
176
     1
 90
       50
176
     1
290
     0
176
     1
 90
       50
176
     1
 62
   256
176
     0
 40
1.0
176
     0
 90
        2
176
     1
  1
strokes_ogs.tif
176
     1
290
     0
176
     1
 40
1.0
176
     1
 40
1.0
176
     1
1001
ACAD
1000
AcDbSavedByObjectVersion
1070
     0
  0
DICTIONARYVAR
  5
180
102
{ACAD_REACTORS
330
17B
102
}
330
17B
100
DictionaryVariables
280
     0
  1
1:1
  0
DICTIONARYVAR
  5
17D
102
{ACAD_REACTORS
330
17B
102
}
330
17B
100
DictionaryVariables
280
     0
  1
STANDARD
  0
DICTIONARYVAR
  5
17C
102
{ACAD_REACTORS
330
17B
102
}
330
17B
100
DictionaryVariables
280
     0
  1
STANDARD
  0
DICTIONARYVAR
  5
17E
102
{ACAD_REACTORS
330
17B
102
}
330
17B
100
DictionaryVariables
280
     0
  1
Imperial24
  0
DICTIONARYVAR
  5
17F
102
{ACAD_REACTORS
330
17B
102
}
330
17B
100
DictionaryVariables
280
     0
  1
Imperial24
  0
DICTIONARY
  5
186
330
6B
100
AcDbDictionary
280
     1
281
     1
  3
ACAD_XREC_ROUNDTRIP
360
187
  0
DICTIONARY
  5
1A
330
19
100
AcDbDictionary
280
     1
281
     1
  3
BUMPTILE
360
1C
  3
DIFFUSETILE
360
1B
  3
OPACITYTILE
360
1F
  3
REFLECTIONTILE
360
1E
  3
REFRACTIONTILE
360
20
  3
SPECULARTILE
360
1D
  0
DICTIONARY
  5
12
330
11
100
AcDbDictionary
280
     1
281
     1
  3
BUMPTILE
360
14
  3
DIFFUSETILE
360
13
  3
OPACITYTILE
360
17
  3
REFLECTIONTILE
360
16
  3
REFRACTIONTILE
360
18
  3
SPECULARTILE
360
15
  0
DICTIONARY
  5
22
330
21
100
AcDbDictionary
280
     1
281
     1
  3
BUMPTILE
360
24
  3
DIFFUSETILE
360
23
  3
OPACITYTILE
360
27
  3
REFLECTIONTILE
360
26
  3
REFRACTIONTILE
360
28
  3
SPECULARTILE
360
25
  0
DICTIONARY
  5
184
330
69
100
AcDbDictionary
280
     1
281
     1
  3
ACAD_XREC_ROUNDTRIP
360
185
  0
DICTIONARY
  5
181
330
65
100
AcDbDictionary
280
     1
281
     1
  3
ACAD_ROUNDTRIP_2008_TABLESTYLE_CELLSTYLEMAP
360
182
  0
XRECORD
  5
187
102
{ACAD_REACTORS
330
186
102
}
330
186
100
AcDbXrecord
280
     1
102
DISPLAYNAME
  1
Imperial24
102
FLAGS
 90
        0
  0
XRECORD
  5
1C
102
{ACAD_REACTORS
330
1A
102
}
330
1A
100
AcDbXrecord
280
     1
270
     1
271
     1
  0
XRECORD
  5
1B
102
{ACAD_REACTORS
330
1A
102
}
330
1A
100
AcDbXrecord
280
     1
270
     1
271
     1
  0
XRECORD
  5
1F
102
{ACAD_REACTORS
330
1A
102
}
330
1A
100
AcDbXrecord
280
     1
270
     1
271
     1
  0
XRECORD
  5
1E
102
{ACAD_REACTORS
330
1A
102
}
330
1A
100
AcDbXrecord
280
     1
270
     1
271
     1
  0
XRECORD
  5
20
102
{ACAD_REACTORS
330
1A
102
}
330
1A
100
AcDbXrecord
280
     1
270
     1
271
     1
  0
XRECORD
  5
1D
102
{ACAD_REACTORS
330
1A
102
}
330
1A
100
AcDbXrecord
280
     1
270
     1
271
     1
  0
XRECORD
  5
14
102
{ACAD_REACTORS
330
12
102
}
330
12
100
AcDbXrecord
280
     1
270
     1
271
     1
  0
XRECORD
  5
13
102
{ACAD_REACTORS
330
12
102
}
330
12
100
AcDbXrecord
280
     1
270
     1
271
     1
  0
XRECORD
  5
17
102
{ACAD_REACTORS
330
12
102
}
330
12
100
AcDbXrecord
280
     1
270
     1
271
     1
  0
XRECORD
  5
16
102
{ACAD_REACTORS
330
12
102
}
330
12
100
AcDbXrecord
280
     1
270
     1
271
     1
  0
XRECORD
  5
18
102
{ACAD_REACTORS
330
12
102
}
330
12
100
AcDbXrecord
280
     1
270
     1
271
     1
  0
XRECORD
  5
15
102
{ACAD_REACTORS
330
12
102
}
330
12
100
AcDbXrecord
280
     1
270
     1
271
     1
  0
XRECORD
  5
24
102
{ACAD_REACTORS
330
22
102
}
330
22
100
AcDbXrecord
280
     1
270
     1
271
     1
  0
XRECORD
  5
23
102
{ACAD_REACTORS
330
22
102
}
330
22
100
AcDbXrecord
280
     1
270
     1
271
     1
  0
XRECORD
  5
27
102
{ACAD_REACTORS
330
22
102
}
330
22
100
AcDbXrecord
280
     1
270
     1
271
     1
  0
XRECORD
  5
26
102
{ACAD_REACTORS
330
22
102
}
330
22
100
AcDbXrecord
280
     1
270
     1
271
     1
  0
XRECORD
  5
28
102
{ACAD_REACTORS
330
22
102
}
330
22
100
AcDbXrecord
280
     1
270
     1
271
     1
  0
XRECORD
  5
25
102
{ACAD_REACTORS
330
22
102
}
330
22
100
AcDbXrecord
280
     1
270
     1
271
     1
  0
XRECORD
  5
185
102
{ACAD_REACTORS
330
184
102
}
330
184
100
AcDbXrecord
280
     1
102
DISPLAYNAME
  1
Imperial24
102
FLAGS
 90
        0
  0
CELLSTYLEMAP
  5
182
102
{ACAD_REACTORS
330
181
102
}
330
181
100
AcDbCellStyleMap
 90
        3
300
CELLSTYLE
  1
TABLEFORMAT_BEGIN
 90
        5
170
     1
 91
        0
 92
    32768
 62
   257
 93
        1
300
CONTENTFORMAT
  1
CONTENTFORMAT_BEGIN
 90
        0
 91
        0
 92
      512
 93
        0
300

 40
0.0
140
1.0
 94
        5
 62
     0
340
55
144
0.25
309
CONTENTFORMAT_END
171
     0
 94
        0
309
TABLEFORMAT_END
  1
CELLSTYLE_BEGIN
 90
        1
 91
        1
300
_TITLE
309
CELLSTYLE_END
300
CELLSTYLE
  1
TABLEFORMAT_BEGIN
 90
        5
170
     1
 91
        0
 92
        0
 62
   257
 93
        1
300
CONTENTFORMAT
  1
CONTENTFORMAT_BEGIN
 90
        0
 91
        0
 92
      512
 93
        0
300

 40
0.0
140
1.0
 94
        5
 62
     0
340
55
144
0.18
309
CONTENTFORMAT_END
171
     0
 94
        0
309
TABLEFORMAT_END
  1
CELLSTYLE_BEGIN
 90
        2
 91
        1
300
_HEADER
309
CELLSTYLE_END
300
CELLSTYLE
  1
TABLEFORMAT_BEGIN
 90
        5
170
     1
 91
        0
 92
        0
 62
   257
 93
        1
300
CONTENTFORMAT
  1
CONTENTFORMAT_BEGIN
 90
        0
 91
        0
 92
      512
 93
        0
300

 40
0.0
140
1.0
 94
        2
 62
     0
340
55
144
0.18
309
CONTENTFORMAT_END
171
     0
 94
        0
309
TABLEFORMAT_END
  1
CELLSTYLE_BEGIN
 90
        3
 91
        2
300
_DATA
309
CELLSTYLE_END
  0
ENDSEC
  0
EOF
